<?xml version="1.0" encoding="UTF-8" standalone="no"?>
<!DOCTYPE svg PUBLIC "-//W3C//DTD SVG 1.1//EN"
 "http://www.w3.org/Graphics/SVG/1.1/DTD/svg11.dtd">
<!-- Generated by graphviz version 2.40.1 (20161225.0304)
 -->
<!-- Title: GeneralSequencer Pages: 1 -->
<svg width="106pt" height="193pt"
 viewBox="0.00 0.00 106.00 193.00" xmlns="http://www.w3.org/2000/svg" xmlns:xlink="http://www.w3.org/1999/xlink">
<g id="graph0" class="graph" transform="scale(1 1) rotate(0) translate(4 189)">
<title>GeneralSequencer</title>
<polygon fill="#ffffff" stroke="transparent" points="-4,4 -4,-189 102,-189 102,4 -4,4"/>
<!-- Node1 -->
<g id="node1" class="node">
<title>Node1</title>
<g id="a_node1"><a xlink:title=" ">
<polygon fill="#bfbfbf" stroke="#000000" points="0,-.5 0,-90.5 98,-90.5 98,-.5 0,-.5"/>
<text text-anchor="middle" x="49" y="-78.5" font-family="Helvetica,sans-Serif" font-size="10.00" fill="#000000">GeneralSequencer</text>
<polyline fill="none" stroke="#000000" points="0,-71.5 98,-71.5 "/>
<text text-anchor="start" x="8" y="-59.5" font-family="Helvetica,sans-Serif" font-size="10.00" fill="#000000">+ avatar1</text>
<text text-anchor="start" x="8" y="-48.5" font-family="Helvetica,sans-Serif" font-size="10.00" fill="#000000">+ star</text>
<text text-anchor="start" x="8" y="-37.5" font-family="Helvetica,sans-Serif" font-size="10.00" fill="#000000">+ dustCloudPrefab</text>
<text text-anchor="start" x="8" y="-26.5" font-family="Helvetica,sans-Serif" font-size="10.00" fill="#000000">+ speedScale</text>
<polyline fill="none" stroke="#000000" points="0,-19.5 98,-19.5 "/>
<text text-anchor="start" x="8" y="-7.5" font-family="Helvetica,sans-Serif" font-size="10.00" fill="#000000">+ Start()</text>
</a>
</g>
</g>
<!-- Node2 -->
<g id="node2" class="node">
<title>Node2</title>
<g id="a_node2"><a xlink:title=" ">
<polygon fill="#ffffff" stroke="#bfbfbf" points="7,-127.5 7,-184.5 91,-184.5 91,-127.5 7,-127.5"/>
<text text-anchor="middle" x="49" y="-172.5" font-family="Helvetica,sans-Serif" font-size="10.00" fill="#000000">MonoBehaviour</text>
<polyline fill="none" stroke="#bfbfbf" points="7,-165.5 91,-165.5 "/>
<text text-anchor="middle" x="49" y="-153.5" font-family="Helvetica,sans-Serif" font-size="10.00" fill="#000000"> </text>
<polyline fill="none" stroke="#bfbfbf" points="7,-146.5 91,-146.5 "/>
<text text-anchor="middle" x="49" y="-134.5" font-family="Helvetica,sans-Serif" font-size="10.00" fill="#000000"> </text>
</a>
</g>
</g>
<!-- Node2&#45;&gt;Node1 -->
<g id="edge1" class="edge">
<title>Node2&#45;&gt;Node1</title>
<path fill="none" stroke="#191970" d="M49,-117.1977C49,-108.667 49,-99.5607 49,-90.7995"/>
<polygon fill="none" stroke="#191970" points="45.5001,-117.2559 49,-127.2559 52.5001,-117.2559 45.5001,-117.2559"/>
</g>
</g>
</svg>
