<?xml version="1.0" encoding="UTF-8" standalone="no"?>
<!DOCTYPE svg PUBLIC "-//W3C//DTD SVG 1.1//EN"
 "http://www.w3.org/Graphics/SVG/1.1/DTD/svg11.dtd">
<!-- Generated by graphviz version 2.40.1 (20161225.0304)
 -->
<!-- Title: ScoreTracker Pages: 1 -->
<svg width="202pt" height="193pt"
 viewBox="0.00 0.00 201.50 193.00" xmlns="http://www.w3.org/2000/svg" xmlns:xlink="http://www.w3.org/1999/xlink">
<g id="graph0" class="graph" transform="scale(1 1) rotate(0) translate(4 189)">
<title>ScoreTracker</title>
<!-- Node1 -->
<g id="node1" class="node">
<title>Node1</title>
<g id="a_node1"><a xlink:title=" ">
<polygon fill="#bfbfbf" stroke="#000000" points="33.5,-.5 33.5,-68.5 128.5,-68.5 128.5,-.5 33.5,-.5"/>
<text text-anchor="middle" x="81" y="-56.5" font-family="Helvetica,sans-Serif" font-size="10.00" fill="#000000">ScoreTracker</text>
<polyline fill="none" stroke="#000000" points="33.5,-49.5 128.5,-49.5 "/>
<text text-anchor="start" x="41.5" y="-37.5" font-family="Helvetica,sans-Serif" font-size="10.00" fill="#000000">+ Score</text>
<polyline fill="none" stroke="#000000" points="33.5,-30.5 128.5,-30.5 "/>
<text text-anchor="start" x="41.5" y="-18.5" font-family="Helvetica,sans-Serif" font-size="10.00" fill="#000000">+ IncreaseScore()</text>
<text text-anchor="start" x="41.5" y="-7.5" font-family="Helvetica,sans-Serif" font-size="10.00" fill="#000000">+ ResetScore()</text>
</a>
</g>
</g>
<!-- Node1&#45;&gt;Node1 -->
<g id="edge3" class="edge">
<title>Node1&#45;&gt;Node1</title>
<path fill="none" stroke="#404040" d="M128.6902,-45.7816C139.0134,-44.6785 146.5,-40.918 146.5,-34.5 146.5,-30.9902 144.261,-28.2751 140.5434,-26.3548"/>
<polygon fill="none" stroke="#404040" points="140.291,-26.2881 133.4674,-28.6202 128.6902,-23.2184 135.5138,-20.8863 140.291,-26.2881"/>
<text text-anchor="middle" x="170" y="-32" font-family="Helvetica,sans-Serif" font-size="10.00" fill="#000000"> +Instance</text>
</g>
<!-- Node2 -->
<g id="node2" class="node">
<title>Node2</title>
<g id="a_node2"><a xlink:href="class_mono_behaviour.html" target="_top" xlink:title=" ">
<polygon fill="none" stroke="#000000" points="0,-127.5 0,-184.5 84,-184.5 84,-127.5 0,-127.5"/>
<text text-anchor="middle" x="42" y="-172.5" font-family="Helvetica,sans-Serif" font-size="10.00" fill="#000000">MonoBehaviour</text>
<polyline fill="none" stroke="#000000" points="0,-165.5 84,-165.5 "/>
<text text-anchor="middle" x="42" y="-153.5" font-family="Helvetica,sans-Serif" font-size="10.00" fill="#000000"> </text>
<polyline fill="none" stroke="#000000" points="0,-146.5 84,-146.5 "/>
<text text-anchor="middle" x="42" y="-134.5" font-family="Helvetica,sans-Serif" font-size="10.00" fill="#000000"> </text>
</a>
</g>
</g>
<!-- Node2&#45;&gt;Node1 -->
<g id="edge1" class="edge">
<title>Node2&#45;&gt;Node1</title>
<path fill="none" stroke="#191970" d="M54.4158,-117.3201C59.4287,-101.7029 65.1645,-83.8337 70.022,-68.7007"/>
<polygon fill="none" stroke="#191970" points="50.9663,-116.615 51.2425,-127.2062 57.6313,-118.7544 50.9663,-116.615"/>
</g>
<!-- Node3 -->
<g id="node3" class="node">
<title>Node3</title>
<g id="a_node3"><a xlink:title=" ">
<polygon fill="none" stroke="#bfbfbf" points="102.5,-127.5 102.5,-184.5 137.5,-184.5 137.5,-127.5 102.5,-127.5"/>
<text text-anchor="middle" x="120" y="-172.5" font-family="Helvetica,sans-Serif" font-size="10.00" fill="#000000">Text</text>
<polyline fill="none" stroke="#bfbfbf" points="102.5,-165.5 137.5,-165.5 "/>
<text text-anchor="middle" x="120" y="-153.5" font-family="Helvetica,sans-Serif" font-size="10.00" fill="#000000"> </text>
<polyline fill="none" stroke="#bfbfbf" points="102.5,-146.5 137.5,-146.5 "/>
<text text-anchor="middle" x="120" y="-134.5" font-family="Helvetica,sans-Serif" font-size="10.00" fill="#000000"> </text>
</a>
</g>
</g>
<!-- Node3&#45;&gt;Node1 -->
<g id="edge2" class="edge">
<title>Node3&#45;&gt;Node1</title>
<path fill="none" stroke="#404040" d="M110.7575,-127.2062C106.2701,-113.2262 100.7696,-96.0898 95.7237,-80.37"/>
<polygon fill="none" stroke="#404040" points="95.6456,-80.1266 90.0032,-75.6362 91.978,-68.7007 97.6204,-73.1911 95.6456,-80.1266"/>
<text text-anchor="middle" x="138" y="-101" font-family="Helvetica,sans-Serif" font-size="10.00" fill="#000000"> +ScoreText</text>
<text text-anchor="middle" x="138" y="-90" font-family="Helvetica,sans-Serif" font-size="10.00" fill="#000000">+HighScoreText</text>
</g>
</g>
</svg>
