<?xml version="1.0" encoding="UTF-8" standalone="no"?>
<!DOCTYPE svg PUBLIC "-//W3C//DTD SVG 1.1//EN"
 "http://www.w3.org/Graphics/SVG/1.1/DTD/svg11.dtd">
<!-- Generated by graphviz version 2.40.1 (20161225.0304)
 -->
<!-- Title: MonoBehaviour Pages: 1 -->
<!--zoomable 452 -->
<svg id="main" version="1.1" xmlns="http://www.w3.org/2000/svg" xmlns:xlink="http://www.w3.org/1999/xlink" xml:space="preserve" onload="init(evt)">
<style type="text/css"><![CDATA[
.edge:hover path { stroke: red; }
.edge:hover polygon { stroke: red; fill: red; }
]]></style>
<script type="text/javascript"><![CDATA[
var edges = document.getElementsByTagName('g');
if (edges && edges.length) {
  for (var i=0;i<edges.length;i++) {
    if (edges[i].id.substr(0,4)=='edge') {
      edges[i].setAttribute('class','edge');
    }
  }
}
]]></script>
        <defs>
                <circle id="rim" cx="0" cy="0" r="7"/>
                <circle id="rim2" cx="0" cy="0" r="3.5"/>
                <g id="zoomPlus">
                        <use xlink:href="#rim" fill="#404040">
                                <set attributeName="fill" to="#808080" begin="zoomplus.mouseover" end="zoomplus.mouseout"/>
                        </use>
                        <path d="M-4,0h8M0,-4v8" fill="none" stroke="white" stroke-width="1.5" pointer-events="none"/>
                </g>
                <g id="zoomMin">
                        <use xlink:href="#rim" fill="#404040">
                                <set attributeName="fill" to="#808080" begin="zoomminus.mouseover" end="zoomminus.mouseout"/>
                        </use>
                        <path d="M-4,0h8" fill="none" stroke="white" stroke-width="1.5" pointer-events="none"/>
                </g>
                <g id="dirArrow">
                        <path fill="none" stroke="white" stroke-width="1.5" d="M0,-3.0v7 M-2.5,-0.5L0,-3.0L2.5,-0.5"/>
                </g>
               <g id="resetDef">
                       <use xlink:href="#rim2" fill="#404040">
                               <set attributeName="fill" to="#808080" begin="reset.mouseover" end="reset.mouseout"/>
                       </use>
               </g>
        </defs>

<script type="text/javascript">
var viewWidth = 1053;
var viewHeight = 452;
var sectionId = 'dynsection-0';
</script>
<script xlink:href="svgpan.js"/>
<svg id="graph" class="graph">
<g id="viewport">
<title>MonoBehaviour</title>
<!-- Node1 -->
<g id="node1" class="node">
<title>Node1</title>
<g id="a_node1"><a xlink:title=" ">
<polygon fill="#bfbfbf" stroke="#000000" points="461,-386.5 461,-443.5 545,-443.5 545,-386.5 461,-386.5"/>
<text text-anchor="middle" x="503" y="-431.5" font-family="Helvetica,sans-Serif" font-size="10.00" fill="#000000">MonoBehaviour</text>
<polyline fill="none" stroke="#000000" points="461,-424.5 545,-424.5 "/>
<text text-anchor="middle" x="503" y="-412.5" font-family="Helvetica,sans-Serif" font-size="10.00" fill="#000000"> </text>
<polyline fill="none" stroke="#000000" points="461,-405.5 545,-405.5 "/>
<text text-anchor="middle" x="503" y="-393.5" font-family="Helvetica,sans-Serif" font-size="10.00" fill="#000000"> </text>
</a>
</g>
</g>
<!-- Node2 -->
<g id="node2" class="node">
<title>Node2</title>
<g id="a_node2"><a xlink:href="class_main_menu_script.html" target="_top" xlink:title=" ">
<polygon fill="none" stroke="#000000" points="0,-182.5 0,-349.5 108,-349.5 108,-182.5 0,-182.5"/>
<text text-anchor="middle" x="54" y="-337.5" font-family="Helvetica,sans-Serif" font-size="10.00" fill="#000000">MainMenuScript</text>
<polyline fill="none" stroke="#000000" points="0,-330.5 108,-330.5 "/>
<text text-anchor="start" x="8" y="-318.5" font-family="Helvetica,sans-Serif" font-size="10.00" fill="#000000">+ moveTime</text>
<text text-anchor="start" x="8" y="-307.5" font-family="Helvetica,sans-Serif" font-size="10.00" fill="#000000">+ movePos</text>
<text text-anchor="start" x="8" y="-296.5" font-family="Helvetica,sans-Serif" font-size="10.00" fill="#000000">+ DeathMenu</text>
<text text-anchor="start" x="8" y="-285.5" font-family="Helvetica,sans-Serif" font-size="10.00" fill="#000000">+ DeathMenuScale</text>
<text text-anchor="start" x="8" y="-274.5" font-family="Helvetica,sans-Serif" font-size="10.00" fill="#000000">+ MainMenu</text>
<text text-anchor="start" x="8" y="-263.5" font-family="Helvetica,sans-Serif" font-size="10.00" fill="#000000">+ MainMenuScale</text>
<text text-anchor="start" x="8" y="-252.5" font-family="Helvetica,sans-Serif" font-size="10.00" fill="#000000">+ PauseMenu</text>
<text text-anchor="start" x="8" y="-241.5" font-family="Helvetica,sans-Serif" font-size="10.00" fill="#000000">+ PauseMenuScale</text>
<polyline fill="none" stroke="#000000" points="0,-234.5 108,-234.5 "/>
<text text-anchor="start" x="8" y="-222.5" font-family="Helvetica,sans-Serif" font-size="10.00" fill="#000000">+ MainMenuOpen()</text>
<text text-anchor="start" x="8" y="-211.5" font-family="Helvetica,sans-Serif" font-size="10.00" fill="#000000">+ MainMenuClose()</text>
<text text-anchor="start" x="8" y="-200.5" font-family="Helvetica,sans-Serif" font-size="10.00" fill="#000000">+ PauseMenuOpen()</text>
<text text-anchor="start" x="8" y="-189.5" font-family="Helvetica,sans-Serif" font-size="10.00" fill="#000000">+ PauseMenuClose()</text>
</a>
</g>
</g>
<!-- Node1&#45;&gt;Node2 -->
<g id="edge1" class="edge">
<title>Node1&#45;&gt;Node2</title>
<path fill="none" stroke="#191970" d="M450.503,-410.9841C358.3899,-403.1559 172.1871,-383.6128 117,-350 114.0419,-348.1983 111.1759,-346.2014 108.4046,-344.0481"/>
<polygon fill="none" stroke="#191970" points="450.4643,-414.493 460.7209,-411.8372 451.0468,-407.5173 450.4643,-414.493"/>
</g>
<!-- Node3 -->
<g id="node3" class="node">
<title>Node3</title>
<g id="a_node3"><a xlink:href="class_score_tracker.html" target="_top" xlink:title=" ">
<polygon fill="none" stroke="#000000" points="126.5,-215.5 126.5,-316.5 221.5,-316.5 221.5,-215.5 126.5,-215.5"/>
<text text-anchor="middle" x="174" y="-304.5" font-family="Helvetica,sans-Serif" font-size="10.00" fill="#000000">ScoreTracker</text>
<polyline fill="none" stroke="#000000" points="126.5,-297.5 221.5,-297.5 "/>
<text text-anchor="start" x="134.5" y="-285.5" font-family="Helvetica,sans-Serif" font-size="10.00" fill="#000000">+ ScoreText</text>
<text text-anchor="start" x="134.5" y="-274.5" font-family="Helvetica,sans-Serif" font-size="10.00" fill="#000000">+ HighScoreText</text>
<text text-anchor="start" x="134.5" y="-263.5" font-family="Helvetica,sans-Serif" font-size="10.00" fill="#000000">+ Instance</text>
<text text-anchor="start" x="134.5" y="-252.5" font-family="Helvetica,sans-Serif" font-size="10.00" fill="#000000">+ Score</text>
<polyline fill="none" stroke="#000000" points="126.5,-245.5 221.5,-245.5 "/>
<text text-anchor="start" x="134.5" y="-233.5" font-family="Helvetica,sans-Serif" font-size="10.00" fill="#000000">+ IncreaseScore()</text>
<text text-anchor="start" x="134.5" y="-222.5" font-family="Helvetica,sans-Serif" font-size="10.00" fill="#000000">+ ResetScore()</text>
</a>
</g>
</g>
<!-- Node1&#45;&gt;Node3 -->
<g id="edge2" class="edge">
<title>Node1&#45;&gt;Node3</title>
<path fill="none" stroke="#191970" d="M450.7295,-407.1232C382.113,-396.0101 266.2404,-374.3472 231,-350 218.5301,-341.3847 208.0058,-329.0781 199.5271,-316.5325"/>
<polygon fill="none" stroke="#191970" points="450.4786,-410.6274 460.9058,-408.7502 451.5838,-403.7152 450.4786,-410.6274"/>
</g>
<!-- Node4 -->
<g id="node4" class="node">
<title>Node4</title>
<g id="a_node4"><a xlink:href="class_shape.html" target="_top" xlink:title=" ">
<polygon fill="none" stroke="#000000" points="239.5,-204.5 239.5,-327.5 352.5,-327.5 352.5,-204.5 239.5,-204.5"/>
<text text-anchor="middle" x="296" y="-315.5" font-family="Helvetica,sans-Serif" font-size="10.00" fill="#000000">Shape</text>
<polyline fill="none" stroke="#000000" points="239.5,-308.5 352.5,-308.5 "/>
<text text-anchor="start" x="247.5" y="-296.5" font-family="Helvetica,sans-Serif" font-size="10.00" fill="#000000">+ ClosestNeighbors</text>
<text text-anchor="start" x="247.5" y="-285.5" font-family="Helvetica,sans-Serif" font-size="10.00" fill="#000000">+ Neighbors</text>
<text text-anchor="start" x="247.5" y="-274.5" font-family="Helvetica,sans-Serif" font-size="10.00" fill="#000000">+ Position</text>
<text text-anchor="start" x="247.5" y="-263.5" font-family="Helvetica,sans-Serif" font-size="10.00" fill="#000000">+ IsDragging</text>
<text text-anchor="start" x="247.5" y="-252.5" font-family="Helvetica,sans-Serif" font-size="10.00" fill="#000000">+ CanBeDragged</text>
<polyline fill="none" stroke="#000000" points="239.5,-245.5 352.5,-245.5 "/>
<text text-anchor="start" x="247.5" y="-233.5" font-family="Helvetica,sans-Serif" font-size="10.00" fill="#000000">+ Trigger()</text>
<text text-anchor="start" x="247.5" y="-222.5" font-family="Helvetica,sans-Serif" font-size="10.00" fill="#000000">+ MakeTriggerAction()</text>
<text text-anchor="start" x="247.5" y="-211.5" font-family="Helvetica,sans-Serif" font-size="10.00" fill="#000000">+ Destroy()</text>
</a>
</g>
</g>
<!-- Node1&#45;&gt;Node4 -->
<g id="edge3" class="edge">
<title>Node1&#45;&gt;Node4</title>
<path fill="none" stroke="#191970" d="M451.2545,-397.9388C423.054,-387.0417 388.5877,-370.9948 362,-350 353.8489,-343.5636 346.1057,-335.9235 338.982,-327.9145"/>
<polygon fill="none" stroke="#191970" points="450.3528,-401.3387 460.9449,-401.5781 452.8139,-394.7856 450.3528,-401.3387"/>
</g>
<!-- Node7 -->
<g id="node7" class="node">
<title>Node7</title>
<g id="a_node7"><a xlink:href="class_shape_slot.html" target="_top" xlink:title=" ">
<polygon fill="none" stroke="#000000" points="370.5,-226.5 370.5,-305.5 495.5,-305.5 495.5,-226.5 370.5,-226.5"/>
<text text-anchor="middle" x="433" y="-293.5" font-family="Helvetica,sans-Serif" font-size="10.00" fill="#000000">ShapeSlot</text>
<polyline fill="none" stroke="#000000" points="370.5,-286.5 495.5,-286.5 "/>
<text text-anchor="start" x="378.5" y="-274.5" font-family="Helvetica,sans-Serif" font-size="10.00" fill="#000000">+ IsEmpty</text>
<text text-anchor="start" x="378.5" y="-263.5" font-family="Helvetica,sans-Serif" font-size="10.00" fill="#000000">+ Shape</text>
<polyline fill="none" stroke="#000000" points="370.5,-256.5 495.5,-256.5 "/>
<text text-anchor="start" x="378.5" y="-244.5" font-family="Helvetica,sans-Serif" font-size="10.00" fill="#000000">+ SpawnRandomShape()</text>
<text text-anchor="start" x="378.5" y="-233.5" font-family="Helvetica,sans-Serif" font-size="10.00" fill="#000000">+ RemoveShape()</text>
</a>
</g>
</g>
<!-- Node1&#45;&gt;Node7 -->
<g id="edge6" class="edge">
<title>Node1&#45;&gt;Node7</title>
<path fill="none" stroke="#191970" d="M485.1352,-376.9736C474.8728,-355.1292 462.001,-327.7307 451.6151,-305.6236"/>
<polygon fill="none" stroke="#191970" points="482.0833,-378.7086 489.5033,-386.2713 488.419,-375.7321 482.0833,-378.7086"/>
</g>
<!-- Node8 -->
<g id="node8" class="node">
<title>Node8</title>
<g id="a_node8"><a xlink:href="class_shapes_producer.html" target="_top" xlink:title=" ">
<polygon fill="none" stroke="#000000" points="513.5,-226.5 513.5,-305.5 634.5,-305.5 634.5,-226.5 513.5,-226.5"/>
<text text-anchor="middle" x="574" y="-293.5" font-family="Helvetica,sans-Serif" font-size="10.00" fill="#000000">ShapesProducer</text>
<polyline fill="none" stroke="#000000" points="513.5,-286.5 634.5,-286.5 "/>
<text text-anchor="start" x="521.5" y="-274.5" font-family="Helvetica,sans-Serif" font-size="10.00" fill="#000000">+ Instance</text>
<text text-anchor="start" x="521.5" y="-263.5" font-family="Helvetica,sans-Serif" font-size="10.00" fill="#000000">+ HasNotPlacedShapes</text>
<polyline fill="none" stroke="#000000" points="513.5,-256.5 634.5,-256.5 "/>
<text text-anchor="start" x="521.5" y="-244.5" font-family="Helvetica,sans-Serif" font-size="10.00" fill="#000000">+ SpawnNewShapes()</text>
<text text-anchor="start" x="521.5" y="-233.5" font-family="Helvetica,sans-Serif" font-size="10.00" fill="#000000">+ FreeShape()</text>
</a>
</g>
</g>
<!-- Node1&#45;&gt;Node8 -->
<g id="edge7" class="edge">
<title>Node1&#45;&gt;Node8</title>
<path fill="none" stroke="#191970" d="M521.12,-376.9736C531.5291,-355.1292 544.5847,-327.7307 555.119,-305.6236"/>
<polygon fill="none" stroke="#191970" points="517.8316,-375.7382 516.6895,-386.2713 524.1509,-378.7494 517.8316,-375.7382"/>
</g>
<!-- Node9 -->
<g id="node9" class="node">
<title>Node9</title>
<g id="a_node9"><a xlink:href="class_shapes_repository.html" target="_top" xlink:title=" ">
<polygon fill="none" stroke="#000000" points="653,-204.5 653,-327.5 789,-327.5 789,-204.5 653,-204.5"/>
<text text-anchor="middle" x="721" y="-315.5" font-family="Helvetica,sans-Serif" font-size="10.00" fill="#000000">ShapesRepository</text>
<polyline fill="none" stroke="#000000" points="653,-308.5 789,-308.5 "/>
<text text-anchor="start" x="661" y="-296.5" font-family="Helvetica,sans-Serif" font-size="10.00" fill="#000000">+ CommonBaseShape</text>
<text text-anchor="start" x="661" y="-285.5" font-family="Helvetica,sans-Serif" font-size="10.00" fill="#000000">+ CommonTransistorShape</text>
<text text-anchor="start" x="661" y="-274.5" font-family="Helvetica,sans-Serif" font-size="10.00" fill="#000000">+ SquareBaseSprite</text>
<text text-anchor="start" x="661" y="-263.5" font-family="Helvetica,sans-Serif" font-size="10.00" fill="#000000">+ CircleBaseSprite</text>
<text text-anchor="start" x="661" y="-252.5" font-family="Helvetica,sans-Serif" font-size="10.00" fill="#000000">+ TriangleBaseSprite</text>
<text text-anchor="start" x="661" y="-241.5" font-family="Helvetica,sans-Serif" font-size="10.00" fill="#000000">+ Instance</text>
<polyline fill="none" stroke="#000000" points="653,-234.5 789,-234.5 "/>
<text text-anchor="start" x="661" y="-222.5" font-family="Helvetica,sans-Serif" font-size="10.00" fill="#000000">+ GetBaseSprite()</text>
<text text-anchor="start" x="661" y="-211.5" font-family="Helvetica,sans-Serif" font-size="10.00" fill="#000000">+ CreateRandom()</text>
</a>
</g>
</g>
<!-- Node1&#45;&gt;Node9 -->
<g id="edge8" class="edge">
<title>Node1&#45;&gt;Node9</title>
<path fill="none" stroke="#191970" d="M554.7396,-396.9033C582.6442,-385.7698 616.8288,-369.8277 644,-350 652.9492,-343.4695 661.6677,-335.7765 669.8282,-327.7422"/>
<polygon fill="none" stroke="#191970" points="553.1997,-393.7469 545.1531,-400.6392 555.7415,-400.2692 553.1997,-393.7469"/>
</g>
<!-- Node10 -->
<g id="node10" class="node">
<title>Node10</title>
<g id="a_node10"><a xlink:href="class_tile_map.html" target="_top" xlink:title=" ">
<polygon fill="none" stroke="#000000" points="807,-221 807,-311 931,-311 931,-221 807,-221"/>
<text text-anchor="middle" x="869" y="-299" font-family="Helvetica,sans-Serif" font-size="10.00" fill="#000000">TileMap</text>
<polyline fill="none" stroke="#000000" points="807,-292 931,-292 "/>
<text text-anchor="start" x="815" y="-280" font-family="Helvetica,sans-Serif" font-size="10.00" fill="#000000">+ Instance</text>
<polyline fill="none" stroke="#000000" points="807,-273 931,-273 "/>
<text text-anchor="start" x="815" y="-261" font-family="Helvetica,sans-Serif" font-size="10.00" fill="#000000">+ GetClosestNeighbors()</text>
<text text-anchor="start" x="815" y="-250" font-family="Helvetica,sans-Serif" font-size="10.00" fill="#000000">+ GetNeighbors()</text>
<text text-anchor="start" x="815" y="-239" font-family="Helvetica,sans-Serif" font-size="10.00" fill="#000000">+ DropShape()</text>
<text text-anchor="start" x="815" y="-228" font-family="Helvetica,sans-Serif" font-size="10.00" fill="#000000">+ GetCellWithShape()</text>
</a>
</g>
</g>
<!-- Node1&#45;&gt;Node10 -->
<g id="edge9" class="edge">
<title>Node1&#45;&gt;Node10</title>
<path fill="none" stroke="#191970" d="M555.1296,-407.6252C628.4594,-396.5639 757.6354,-374.3592 798,-350 814.1851,-340.2327 828.4702,-325.4574 839.9043,-311.0083"/>
<polygon fill="none" stroke="#191970" points="554.5423,-404.174 545.1681,-409.1111 555.5751,-411.0974 554.5423,-404.174"/>
</g>
<!-- Node11 -->
<g id="node11" class="node">
<title>Node11</title>
<g id="a_node11"><a xlink:href="class_tile_map_cell.html" target="_top" xlink:title=" ">
<polygon fill="none" stroke="#000000" points="949.5,-215.5 949.5,-316.5 1044.5,-316.5 1044.5,-215.5 949.5,-215.5"/>
<text text-anchor="middle" x="997" y="-304.5" font-family="Helvetica,sans-Serif" font-size="10.00" fill="#000000">TileMapCell</text>
<polyline fill="none" stroke="#000000" points="949.5,-297.5 1044.5,-297.5 "/>
<text text-anchor="start" x="957.5" y="-285.5" font-family="Helvetica,sans-Serif" font-size="10.00" fill="#000000">+ Position</text>
<text text-anchor="start" x="957.5" y="-274.5" font-family="Helvetica,sans-Serif" font-size="10.00" fill="#000000">+ IsEmpty</text>
<text text-anchor="start" x="957.5" y="-263.5" font-family="Helvetica,sans-Serif" font-size="10.00" fill="#000000">+ shape</text>
<text text-anchor="start" x="957.5" y="-252.5" font-family="Helvetica,sans-Serif" font-size="10.00" fill="#000000">+ IsMouseOver</text>
<polyline fill="none" stroke="#000000" points="949.5,-245.5 1044.5,-245.5 "/>
<text text-anchor="start" x="957.5" y="-233.5" font-family="Helvetica,sans-Serif" font-size="10.00" fill="#000000">+ DropHere()</text>
<text text-anchor="start" x="957.5" y="-222.5" font-family="Helvetica,sans-Serif" font-size="10.00" fill="#000000">+ RemoveShape()</text>
</a>
</g>
</g>
<!-- Node1&#45;&gt;Node11 -->
<g id="edge10" class="edge">
<title>Node1&#45;&gt;Node11</title>
<path fill="none" stroke="#191970" d="M555.1239,-412.4488C656.7016,-406.6464 876.7446,-389.7574 940,-350 952.9816,-341.8408 963.7229,-329.5258 972.2473,-316.822"/>
<polygon fill="none" stroke="#191970" points="554.8785,-408.9569 545.0887,-413.0078 555.2679,-415.9461 554.8785,-408.9569"/>
</g>
<!-- Node5 -->
<g id="node5" class="node">
<title>Node5</title>
<g id="a_node5"><a xlink:href="class_base_shape.html" target="_top" xlink:title=" ">
<polygon fill="none" stroke="#000000" points="203.5,-44.5 203.5,-101.5 270.5,-101.5 270.5,-44.5 203.5,-44.5"/>
<text text-anchor="middle" x="237" y="-89.5" font-family="Helvetica,sans-Serif" font-size="10.00" fill="#000000">BaseShape</text>
<polyline fill="none" stroke="#000000" points="203.5,-82.5 270.5,-82.5 "/>
<text text-anchor="start" x="211.5" y="-70.5" font-family="Helvetica,sans-Serif" font-size="10.00" fill="#000000">+ Type</text>
<polyline fill="none" stroke="#000000" points="203.5,-63.5 270.5,-63.5 "/>
<text text-anchor="start" x="211.5" y="-51.5" font-family="Helvetica,sans-Serif" font-size="10.00" fill="#000000">+ Destroy()</text>
</a>
</g>
</g>
<!-- Node4&#45;&gt;Node5 -->
<g id="edge4" class="edge">
<title>Node4&#45;&gt;Node5</title>
<path fill="none" stroke="#191970" d="M274.1607,-194.5594C264.321,-162.3719 253.2596,-126.188 245.7831,-101.7312"/>
<polygon fill="none" stroke="#191970" points="270.8992,-195.863 277.1698,-204.403 277.5934,-193.8166 270.8992,-195.863"/>
</g>
<!-- Node6 -->
<g id="node6" class="node">
<title>Node6</title>
<g id="a_node6"><a xlink:href="class_transistor_shape.html" target="_top" xlink:title=" ">
<polygon fill="none" stroke="#000000" points="288.5,-.5 288.5,-145.5 421.5,-145.5 421.5,-.5 288.5,-.5"/>
<text text-anchor="middle" x="355" y="-133.5" font-family="Helvetica,sans-Serif" font-size="10.00" fill="#000000">TransistorShape</text>
<polyline fill="none" stroke="#000000" points="288.5,-126.5 421.5,-126.5 "/>
<text text-anchor="start" x="296.5" y="-114.5" font-family="Helvetica,sans-Serif" font-size="10.00" fill="#000000">+ InputHolder</text>
<text text-anchor="start" x="296.5" y="-103.5" font-family="Helvetica,sans-Serif" font-size="10.00" fill="#000000">+ Absorbed</text>
<text text-anchor="start" x="296.5" y="-92.5" font-family="Helvetica,sans-Serif" font-size="10.00" fill="#000000">+ InputType</text>
<text text-anchor="start" x="296.5" y="-81.5" font-family="Helvetica,sans-Serif" font-size="10.00" fill="#000000">+ OutputType</text>
<polyline fill="none" stroke="#000000" points="288.5,-74.5 421.5,-74.5 "/>
<text text-anchor="start" x="296.5" y="-62.5" font-family="Helvetica,sans-Serif" font-size="10.00" fill="#000000">+ SetupIOTypes()</text>
<text text-anchor="start" x="296.5" y="-51.5" font-family="Helvetica,sans-Serif" font-size="10.00" fill="#000000">+ SetAbsorbed()</text>
<text text-anchor="start" x="296.5" y="-40.5" font-family="Helvetica,sans-Serif" font-size="10.00" fill="#000000">+ CanAbsorp()</text>
<text text-anchor="start" x="296.5" y="-29.5" font-family="Helvetica,sans-Serif" font-size="10.00" fill="#000000">+ CanAbsorpToExplosion()</text>
<text text-anchor="start" x="296.5" y="-18.5" font-family="Helvetica,sans-Serif" font-size="10.00" fill="#000000">+ Trigger()</text>
<text text-anchor="start" x="296.5" y="-7.5" font-family="Helvetica,sans-Serif" font-size="10.00" fill="#000000">+ MakeTriggerAction()</text>
</a>
</g>
</g>
<!-- Node4&#45;&gt;Node6 -->
<g id="edge5" class="edge">
<title>Node4&#45;&gt;Node6</title>
<path fill="none" stroke="#191970" d="M317.8181,-194.6288C322.6876,-178.6998 327.8573,-161.7888 332.7442,-145.8028"/>
<polygon fill="none" stroke="#191970" points="314.4066,-193.8166 314.8302,-204.403 321.1008,-195.863 314.4066,-193.8166"/>
</g>
</g>
</svg>
        <g id="navigator" transform="translate(0 0)" fill="#404254">
                <rect fill="#f2f5e9" fill-opacity="0.5" stroke="#606060" stroke-width=".5" x="0" y="0" width="60" height="60"/>
                <use id="zoomplus" xlink:href="#zoomPlus" x="17" y="9" onmousedown="handleZoom(evt,'in')"/>
                <use id="zoomminus" xlink:href="#zoomMin" x="42" y="9" onmousedown="handleZoom(evt,'out')"/>
                <use id="reset" xlink:href="#resetDef" x="30" y="36" onmousedown="handleReset()"/>
                <g id="arrowUp" xlink:href="#dirArrow" transform="translate(30 24)" onmousedown="handlePan(0,-1)">
                  <use xlink:href="#rim" fill="#404040">
                        <set attributeName="fill" to="#808080" begin="arrowUp.mouseover" end="arrowUp.mouseout"/>
                  </use>
                  <path fill="none" stroke="white" stroke-width="1.5" d="M0,-3.0v7 M-2.5,-0.5L0,-3.0L2.5,-0.5"/>
                </g>
                <g id="arrowRight" xlink:href="#dirArrow" transform="rotate(90) translate(36 -43)" onmousedown="handlePan(1,0)">
                  <use xlink:href="#rim" fill="#404040">
                        <set attributeName="fill" to="#808080" begin="arrowRight.mouseover" end="arrowRight.mouseout"/>
                  </use>
                  <path fill="none" stroke="white" stroke-width="1.5" d="M0,-3.0v7 M-2.5,-0.5L0,-3.0L2.5,-0.5"/>
                </g>
                <g id="arrowDown" xlink:href="#dirArrow" transform="rotate(180) translate(-30 -48)" onmousedown="handlePan(0,1)">
                  <use xlink:href="#rim" fill="#404040">
                        <set attributeName="fill" to="#808080" begin="arrowDown.mouseover" end="arrowDown.mouseout"/>
                  </use>
                  <path fill="none" stroke="white" stroke-width="1.5" d="M0,-3.0v7 M-2.5,-0.5L0,-3.0L2.5,-0.5"/>
                </g>
                <g id="arrowLeft" xlink:href="#dirArrow" transform="rotate(270) translate(-36 17)" onmousedown="handlePan(-1,0)">
                  <use xlink:href="#rim" fill="#404040">
                        <set attributeName="fill" to="#808080" begin="arrowLeft.mouseover" end="arrowLeft.mouseout"/>
                  </use>
                  <path fill="none" stroke="white" stroke-width="1.5" d="M0,-3.0v7 M-2.5,-0.5L0,-3.0L2.5,-0.5"/>
                </g>
        </g>
        <svg viewBox="0 0 15 15" width="100%" height="30px" preserveAspectRatio="xMaxYMin meet">
         <g id="arrow_out" transform="scale(0.3 0.3)">
          <a xlink:href="class_mono_behaviour__inherit__graph_org.svg" target="_base">
           <rect id="button" ry="5" rx="5" y="6" x="6" height="38" width="38"
                fill="#f2f5e9" fill-opacity="0.5" stroke="#606060" stroke-width="1.0"/>
           <path id="arrow"
             d="M 11.500037,31.436501 C 11.940474,20.09759 22.043105,11.32322 32.158766,21.979434 L 37.068811,17.246167 C 37.068811,17.246167 37.088388,32 37.088388,32 L 22.160133,31.978069 C 22.160133,31.978069 26.997745,27.140456 26.997745,27.140456 C 18.528582,18.264221 13.291696,25.230495 11.500037,31.436501 z"
             style="fill:#404040;"/>
          </a>
         </g>
        </svg>
</svg>
