<?xml version="1.0" encoding="UTF-8" standalone="no"?>
<!DOCTYPE svg PUBLIC "-//W3C//DTD SVG 1.1//EN"
 "http://www.w3.org/Graphics/SVG/1.1/DTD/svg11.dtd">
<!-- Generated by graphviz version 2.40.1 (20161225.0304)
 -->
<!-- Title: LogoCinematic Pages: 1 -->
<svg width="92pt" height="193pt"
 viewBox="0.00 0.00 92.00 193.00" xmlns="http://www.w3.org/2000/svg" xmlns:xlink="http://www.w3.org/1999/xlink">
<g id="graph0" class="graph" transform="scale(1 1) rotate(0) translate(4 189)">
<title>LogoCinematic</title>
<polygon fill="#ffffff" stroke="transparent" points="-4,4 -4,-189 88,-189 88,4 -4,4"/>
<!-- Node1 -->
<g id="node1" class="node">
<title>Node1</title>
<g id="a_node1"><a xlink:title=" ">
<polygon fill="#bfbfbf" stroke="#000000" points="1.5,-.5 1.5,-90.5 82.5,-90.5 82.5,-.5 1.5,-.5"/>
<text text-anchor="middle" x="42" y="-78.5" font-family="Helvetica,sans-Serif" font-size="10.00" fill="#000000">LogoCinematic</text>
<polyline fill="none" stroke="#000000" points="1.5,-71.5 82.5,-71.5 "/>
<text text-anchor="start" x="9.5" y="-59.5" font-family="Helvetica,sans-Serif" font-size="10.00" fill="#000000">+ lean</text>
<text text-anchor="start" x="9.5" y="-48.5" font-family="Helvetica,sans-Serif" font-size="10.00" fill="#000000">+ tween</text>
<polyline fill="none" stroke="#000000" points="1.5,-41.5 82.5,-41.5 "/>
<text text-anchor="start" x="9.5" y="-29.5" font-family="Helvetica,sans-Serif" font-size="10.00" fill="#000000">&#45; Awake()</text>
<text text-anchor="start" x="9.5" y="-18.5" font-family="Helvetica,sans-Serif" font-size="10.00" fill="#000000">&#45; Start()</text>
<text text-anchor="start" x="9.5" y="-7.5" font-family="Helvetica,sans-Serif" font-size="10.00" fill="#000000">&#45; playBoom()</text>
</a>
</g>
</g>
<!-- Node2 -->
<g id="node2" class="node">
<title>Node2</title>
<g id="a_node2"><a xlink:title=" ">
<polygon fill="#ffffff" stroke="#bfbfbf" points="0,-127.5 0,-184.5 84,-184.5 84,-127.5 0,-127.5"/>
<text text-anchor="middle" x="42" y="-172.5" font-family="Helvetica,sans-Serif" font-size="10.00" fill="#000000">MonoBehaviour</text>
<polyline fill="none" stroke="#bfbfbf" points="0,-165.5 84,-165.5 "/>
<text text-anchor="middle" x="42" y="-153.5" font-family="Helvetica,sans-Serif" font-size="10.00" fill="#000000"> </text>
<polyline fill="none" stroke="#bfbfbf" points="0,-146.5 84,-146.5 "/>
<text text-anchor="middle" x="42" y="-134.5" font-family="Helvetica,sans-Serif" font-size="10.00" fill="#000000"> </text>
</a>
</g>
</g>
<!-- Node2&#45;&gt;Node1 -->
<g id="edge1" class="edge">
<title>Node2&#45;&gt;Node1</title>
<path fill="none" stroke="#191970" d="M42,-117.1977C42,-108.667 42,-99.5607 42,-90.7995"/>
<polygon fill="none" stroke="#191970" points="38.5001,-117.2559 42,-127.2559 45.5001,-117.2559 38.5001,-117.2559"/>
</g>
</g>
</svg>
