<?xml version="1.0" encoding="UTF-8" standalone="no"?>
<!DOCTYPE svg PUBLIC "-//W3C//DTD SVG 1.1//EN"
 "http://www.w3.org/Graphics/SVG/1.1/DTD/svg11.dtd">
<!-- Generated by graphviz version 2.40.1 (20161225.0304)
 -->
<!-- Title: MainMenuScript Pages: 1 -->
<svg width="373pt" height="237pt"
 viewBox="0.00 0.00 373.00 237.00" xmlns="http://www.w3.org/2000/svg" xmlns:xlink="http://www.w3.org/1999/xlink">
<g id="graph0" class="graph" transform="scale(1 1) rotate(0) translate(4 233)">
<title>MainMenuScript</title>
<!-- Node1 -->
<g id="node1" class="node">
<title>Node1</title>
<g id="a_node1"><a xlink:title=" ">
<polygon fill="#bfbfbf" stroke="#000000" points="115,-.5 115,-90.5 223,-90.5 223,-.5 115,-.5"/>
<text text-anchor="middle" x="169" y="-78.5" font-family="Helvetica,sans-Serif" font-size="10.00" fill="#000000">MainMenuScript</text>
<polyline fill="none" stroke="#000000" points="115,-71.5 223,-71.5 "/>
<text text-anchor="middle" x="169" y="-59.5" font-family="Helvetica,sans-Serif" font-size="10.00" fill="#000000"> </text>
<polyline fill="none" stroke="#000000" points="115,-52.5 223,-52.5 "/>
<text text-anchor="start" x="123" y="-40.5" font-family="Helvetica,sans-Serif" font-size="10.00" fill="#000000">+ MainMenuOpen()</text>
<text text-anchor="start" x="123" y="-29.5" font-family="Helvetica,sans-Serif" font-size="10.00" fill="#000000">+ MainMenuClose()</text>
<text text-anchor="start" x="123" y="-18.5" font-family="Helvetica,sans-Serif" font-size="10.00" fill="#000000">+ PauseMenuOpen()</text>
<text text-anchor="start" x="123" y="-7.5" font-family="Helvetica,sans-Serif" font-size="10.00" fill="#000000">+ PauseMenuClose()</text>
</a>
</g>
</g>
<!-- Node2 -->
<g id="node2" class="node">
<title>Node2</title>
<g id="a_node2"><a xlink:href="class_mono_behaviour.html" target="_top" xlink:title=" ">
<polygon fill="none" stroke="#000000" points="0,-171.5 0,-228.5 84,-228.5 84,-171.5 0,-171.5"/>
<text text-anchor="middle" x="42" y="-216.5" font-family="Helvetica,sans-Serif" font-size="10.00" fill="#000000">MonoBehaviour</text>
<polyline fill="none" stroke="#000000" points="0,-209.5 84,-209.5 "/>
<text text-anchor="middle" x="42" y="-197.5" font-family="Helvetica,sans-Serif" font-size="10.00" fill="#000000"> </text>
<polyline fill="none" stroke="#000000" points="0,-190.5 84,-190.5 "/>
<text text-anchor="middle" x="42" y="-178.5" font-family="Helvetica,sans-Serif" font-size="10.00" fill="#000000"> </text>
</a>
</g>
</g>
<!-- Node2&#45;&gt;Node1 -->
<g id="edge1" class="edge">
<title>Node2&#45;&gt;Node1</title>
<path fill="none" stroke="#191970" d="M71.945,-163.5708C89.852,-141.7864 112.7539,-113.9254 131.8134,-90.7388"/>
<polygon fill="none" stroke="#191970" points="69.2364,-161.3542 65.5901,-171.3018 74.644,-165.7993 69.2364,-161.3542"/>
</g>
<!-- Node3 -->
<g id="node3" class="node">
<title>Node3</title>
<g id="a_node3"><a xlink:title=" ">
<polygon fill="none" stroke="#bfbfbf" points="102,-171.5 102,-228.5 158,-228.5 158,-171.5 102,-171.5"/>
<text text-anchor="middle" x="130" y="-216.5" font-family="Helvetica,sans-Serif" font-size="10.00" fill="#000000">Vector2[]</text>
<polyline fill="none" stroke="#bfbfbf" points="102,-209.5 158,-209.5 "/>
<text text-anchor="middle" x="130" y="-197.5" font-family="Helvetica,sans-Serif" font-size="10.00" fill="#000000"> </text>
<polyline fill="none" stroke="#bfbfbf" points="102,-190.5 158,-190.5 "/>
<text text-anchor="middle" x="130" y="-178.5" font-family="Helvetica,sans-Serif" font-size="10.00" fill="#000000"> </text>
</a>
</g>
</g>
<!-- Node3&#45;&gt;Node1 -->
<g id="edge2" class="edge">
<title>Node3&#45;&gt;Node1</title>
<path fill="none" stroke="#404040" d="M128.4208,-171.1979C128.1935,-153.0337 129.3213,-129.2632 135,-109 135.6723,-106.6012 136.4458,-104.1911 137.3008,-101.7862"/>
<polygon fill="none" stroke="#404040" points="137.3148,-101.7515 135.8608,-94.6884 141.8213,-90.6298 143.2753,-97.6928 137.3148,-101.7515"/>
<text text-anchor="middle" x="160.5" y="-128.5" font-family="Helvetica,sans-Serif" font-size="10.00" fill="#000000"> +movePos</text>
</g>
<!-- Node4 -->
<g id="node4" class="node">
<title>Node4</title>
<g id="a_node4"><a xlink:title=" ">
<polygon fill="none" stroke="#bfbfbf" points="176.5,-171.5 176.5,-228.5 247.5,-228.5 247.5,-171.5 176.5,-171.5"/>
<text text-anchor="middle" x="212" y="-216.5" font-family="Helvetica,sans-Serif" font-size="10.00" fill="#000000">GameObject</text>
<polyline fill="none" stroke="#bfbfbf" points="176.5,-209.5 247.5,-209.5 "/>
<text text-anchor="middle" x="212" y="-197.5" font-family="Helvetica,sans-Serif" font-size="10.00" fill="#000000"> </text>
<polyline fill="none" stroke="#bfbfbf" points="176.5,-190.5 247.5,-190.5 "/>
<text text-anchor="middle" x="212" y="-178.5" font-family="Helvetica,sans-Serif" font-size="10.00" fill="#000000"> </text>
</a>
</g>
</g>
<!-- Node4&#45;&gt;Node1 -->
<g id="edge3" class="edge">
<title>Node4&#45;&gt;Node1</title>
<path fill="none" stroke="#404040" d="M204.0128,-171.3018C198.6315,-151.9666 191.3508,-125.807 184.8224,-102.3504"/>
<polygon fill="none" stroke="#404040" points="184.8083,-102.2994 179.346,-97.5916 181.5907,-90.7388 187.0531,-95.4466 184.8083,-102.2994"/>
<text text-anchor="middle" x="228.5" y="-139.5" font-family="Helvetica,sans-Serif" font-size="10.00" fill="#000000"> +PauseMenu</text>
<text text-anchor="middle" x="228.5" y="-128.5" font-family="Helvetica,sans-Serif" font-size="10.00" fill="#000000">+MainMenu</text>
<text text-anchor="middle" x="228.5" y="-117.5" font-family="Helvetica,sans-Serif" font-size="10.00" fill="#000000">+DeathMenu</text>
</g>
<!-- Node5 -->
<g id="node5" class="node">
<title>Node5</title>
<g id="a_node5"><a xlink:title=" ">
<polygon fill="none" stroke="#bfbfbf" points="274.5,-171.5 274.5,-228.5 309.5,-228.5 309.5,-171.5 274.5,-171.5"/>
<text text-anchor="middle" x="292" y="-216.5" font-family="Helvetica,sans-Serif" font-size="10.00" fill="#000000">float</text>
<polyline fill="none" stroke="#bfbfbf" points="274.5,-209.5 309.5,-209.5 "/>
<text text-anchor="middle" x="292" y="-197.5" font-family="Helvetica,sans-Serif" font-size="10.00" fill="#000000"> </text>
<polyline fill="none" stroke="#bfbfbf" points="274.5,-190.5 309.5,-190.5 "/>
<text text-anchor="middle" x="292" y="-178.5" font-family="Helvetica,sans-Serif" font-size="10.00" fill="#000000"> </text>
</a>
</g>
</g>
<!-- Node5&#45;&gt;Node1 -->
<g id="edge4" class="edge">
<title>Node5&#45;&gt;Node1</title>
<path fill="none" stroke="#404040" d="M287.9362,-171.4971C284.0686,-152.3308 276.7128,-127.3184 263,-109 254.8759,-98.1473 244.3243,-88.5398 233.2382,-80.2925"/>
<polygon fill="none" stroke="#404040" points="233.231,-80.2875 226.0219,-80.1178 223.4058,-73.3979 230.6149,-73.5677 233.231,-80.2875"/>
<text text-anchor="middle" x="323.5" y="-145" font-family="Helvetica,sans-Serif" font-size="10.00" fill="#000000"> +MainMenuScale</text>
<text text-anchor="middle" x="323.5" y="-134" font-family="Helvetica,sans-Serif" font-size="10.00" fill="#000000">+PauseMenuScale</text>
<text text-anchor="middle" x="323.5" y="-123" font-family="Helvetica,sans-Serif" font-size="10.00" fill="#000000">+moveTime</text>
<text text-anchor="middle" x="323.5" y="-112" font-family="Helvetica,sans-Serif" font-size="10.00" fill="#000000">+DeathMenuScale</text>
</g>
</g>
</svg>
