<?xml version="1.0" encoding="UTF-8" standalone="no"?>
<!DOCTYPE svg PUBLIC "-//W3C//DTD SVG 1.1//EN"
 "http://www.w3.org/Graphics/SVG/1.1/DTD/svg11.dtd">
<!-- Generated by graphviz version 2.40.1 (20161225.0304)
 -->
<!-- Title: ShapesProducer Pages: 1 -->
<svg width="231pt" height="182pt"
 viewBox="0.00 0.00 230.50 182.00" xmlns="http://www.w3.org/2000/svg" xmlns:xlink="http://www.w3.org/1999/xlink">
<g id="graph0" class="graph" transform="scale(1 1) rotate(0) translate(4 178)">
<title>ShapesProducer</title>
<!-- Node1 -->
<g id="node1" class="node">
<title>Node1</title>
<g id="a_node1"><a xlink:title=" ">
<polygon fill="#bfbfbf" stroke="#000000" points="41.5,-.5 41.5,-79.5 162.5,-79.5 162.5,-.5 41.5,-.5"/>
<text text-anchor="middle" x="102" y="-67.5" font-family="Helvetica,sans-Serif" font-size="10.00" fill="#000000">ShapesProducer</text>
<polyline fill="none" stroke="#000000" points="41.5,-60.5 162.5,-60.5 "/>
<text text-anchor="start" x="49.5" y="-48.5" font-family="Helvetica,sans-Serif" font-size="10.00" fill="#000000">+ Instance</text>
<text text-anchor="start" x="49.5" y="-37.5" font-family="Helvetica,sans-Serif" font-size="10.00" fill="#000000">+ HasNotPlacedShapes</text>
<polyline fill="none" stroke="#000000" points="41.5,-30.5 162.5,-30.5 "/>
<text text-anchor="start" x="49.5" y="-18.5" font-family="Helvetica,sans-Serif" font-size="10.00" fill="#000000">+ SpawnNewShapes()</text>
<text text-anchor="start" x="49.5" y="-7.5" font-family="Helvetica,sans-Serif" font-size="10.00" fill="#000000">+ FreeShape()</text>
</a>
</g>
</g>
<!-- Node2 -->
<g id="node2" class="node">
<title>Node2</title>
<g id="a_node2"><a xlink:href="class_mono_behaviour.html" target="_top" xlink:title=" ">
<polygon fill="none" stroke="#000000" points="0,-116.5 0,-173.5 84,-173.5 84,-116.5 0,-116.5"/>
<text text-anchor="middle" x="42" y="-161.5" font-family="Helvetica,sans-Serif" font-size="10.00" fill="#000000">MonoBehaviour</text>
<polyline fill="none" stroke="#000000" points="0,-154.5 84,-154.5 "/>
<text text-anchor="middle" x="42" y="-142.5" font-family="Helvetica,sans-Serif" font-size="10.00" fill="#000000"> </text>
<polyline fill="none" stroke="#000000" points="0,-135.5 84,-135.5 "/>
<text text-anchor="middle" x="42" y="-123.5" font-family="Helvetica,sans-Serif" font-size="10.00" fill="#000000"> </text>
</a>
</g>
</g>
<!-- Node2&#45;&gt;Node1 -->
<g id="edge1" class="edge">
<title>Node2&#45;&gt;Node1</title>
<path fill="none" stroke="#191970" d="M63.4099,-107.5327C68.5736,-98.4963 74.108,-88.811 79.3273,-79.6773"/>
<polygon fill="none" stroke="#191970" points="60.3178,-105.8893 58.3953,-116.3083 66.3956,-109.3623 60.3178,-105.8893"/>
</g>
<!-- Node3 -->
<g id="node3" class="node">
<title>Node3</title>
<g id="a_node3"><a xlink:href="interface_i_shapes_producer.html" target="_top" xlink:title=" ">
<polygon fill="none" stroke="#000000" points="101.5,-116.5 101.5,-173.5 222.5,-173.5 222.5,-116.5 101.5,-116.5"/>
<text text-anchor="middle" x="162" y="-161.5" font-family="Helvetica,sans-Serif" font-size="10.00" fill="#000000">IShapesProducer</text>
<polyline fill="none" stroke="#000000" points="101.5,-154.5 222.5,-154.5 "/>
<text text-anchor="start" x="109.5" y="-142.5" font-family="Helvetica,sans-Serif" font-size="10.00" fill="#000000">+ HasNotPlacedShapes</text>
<polyline fill="none" stroke="#000000" points="101.5,-135.5 222.5,-135.5 "/>
<text text-anchor="start" x="109.5" y="-123.5" font-family="Helvetica,sans-Serif" font-size="10.00" fill="#000000">+ SpawnNewShapes()</text>
</a>
</g>
</g>
<!-- Node3&#45;&gt;Node1 -->
<g id="edge2" class="edge">
<title>Node3&#45;&gt;Node1</title>
<path fill="none" stroke="#191970" d="M140.5901,-107.5327C135.4264,-98.4963 129.892,-88.811 124.6727,-79.6773"/>
<polygon fill="none" stroke="#191970" points="137.6044,-109.3623 145.6047,-116.3083 143.6822,-105.8893 137.6044,-109.3623"/>
</g>
</g>
</svg>
