<?xml version="1.0" encoding="UTF-8" standalone="no"?>
<!DOCTYPE svg PUBLIC "-//W3C//DTD SVG 1.1//EN"
 "http://www.w3.org/Graphics/SVG/1.1/DTD/svg11.dtd">
<!-- Generated by graphviz version 2.40.1 (20161225.0304)
 -->
<!-- Title: ShapesProducer Pages: 1 -->
<svg width="236pt" height="172pt"
 viewBox="0.00 0.00 235.50 172.00" xmlns="http://www.w3.org/2000/svg" xmlns:xlink="http://www.w3.org/1999/xlink">
<g id="graph0" class="graph" transform="scale(1 1) rotate(0) translate(4 168)">
<title>ShapesProducer</title>
<!-- Node1 -->
<g id="node1" class="node">
<title>Node1</title>
<g id="a_node1"><a xlink:title=" ">
<polygon fill="#bfbfbf" stroke="#000000" points="41.5,-.5 41.5,-68.5 162.5,-68.5 162.5,-.5 41.5,-.5"/>
<text text-anchor="middle" x="102" y="-56.5" font-family="Helvetica,sans-Serif" font-size="10.00" fill="#000000">ShapesProducer</text>
<polyline fill="none" stroke="#000000" points="41.5,-49.5 162.5,-49.5 "/>
<text text-anchor="start" x="49.5" y="-37.5" font-family="Helvetica,sans-Serif" font-size="10.00" fill="#000000">+ HasNotPlacedShapes</text>
<polyline fill="none" stroke="#000000" points="41.5,-30.5 162.5,-30.5 "/>
<text text-anchor="start" x="49.5" y="-18.5" font-family="Helvetica,sans-Serif" font-size="10.00" fill="#000000">+ SpawnNewShapes()</text>
<text text-anchor="start" x="49.5" y="-7.5" font-family="Helvetica,sans-Serif" font-size="10.00" fill="#000000">+ FreeShape()</text>
</a>
</g>
</g>
<!-- Node1&#45;&gt;Node1 -->
<g id="edge3" class="edge">
<title>Node1&#45;&gt;Node1</title>
<path fill="none" stroke="#404040" d="M162.5615,-43.6406C173.1406,-42.4219 180.5,-39.375 180.5,-34.5 180.5,-31.834 178.299,-29.7147 174.5741,-28.1422"/>
<polygon fill="none" stroke="#404040" points="174.2519,-28.0676 167.504,-30.6103 162.5615,-25.3594 169.3095,-22.8167 174.2519,-28.0676"/>
<text text-anchor="middle" x="204" y="-32" font-family="Helvetica,sans-Serif" font-size="10.00" fill="#000000"> +Instance</text>
</g>
<!-- Node2 -->
<g id="node2" class="node">
<title>Node2</title>
<g id="a_node2"><a xlink:href="class_mono_behaviour.html" target="_top" xlink:title=" ">
<polygon fill="none" stroke="#000000" points="0,-106.5 0,-163.5 84,-163.5 84,-106.5 0,-106.5"/>
<text text-anchor="middle" x="42" y="-151.5" font-family="Helvetica,sans-Serif" font-size="10.00" fill="#000000">MonoBehaviour</text>
<polyline fill="none" stroke="#000000" points="0,-144.5 84,-144.5 "/>
<text text-anchor="middle" x="42" y="-132.5" font-family="Helvetica,sans-Serif" font-size="10.00" fill="#000000"> </text>
<polyline fill="none" stroke="#000000" points="0,-125.5 84,-125.5 "/>
<text text-anchor="middle" x="42" y="-113.5" font-family="Helvetica,sans-Serif" font-size="10.00" fill="#000000"> </text>
</a>
</g>
</g>
<!-- Node2&#45;&gt;Node1 -->
<g id="edge1" class="edge">
<title>Node2&#45;&gt;Node1</title>
<path fill="none" stroke="#191970" d="M64.2945,-97.6567C69.9366,-88.2061 75.9688,-78.1023 81.5166,-68.8097"/>
<polygon fill="none" stroke="#191970" points="61.1541,-96.0892 59.0331,-106.4696 67.1644,-99.6775 61.1541,-96.0892"/>
</g>
<!-- Node3 -->
<g id="node3" class="node">
<title>Node3</title>
<g id="a_node3"><a xlink:href="interface_i_shapes_producer.html" target="_top" xlink:title=" ">
<polygon fill="none" stroke="#000000" points="101.5,-106.5 101.5,-163.5 222.5,-163.5 222.5,-106.5 101.5,-106.5"/>
<text text-anchor="middle" x="162" y="-151.5" font-family="Helvetica,sans-Serif" font-size="10.00" fill="#000000">IShapesProducer</text>
<polyline fill="none" stroke="#000000" points="101.5,-144.5 222.5,-144.5 "/>
<text text-anchor="start" x="109.5" y="-132.5" font-family="Helvetica,sans-Serif" font-size="10.00" fill="#000000">+ HasNotPlacedShapes</text>
<polyline fill="none" stroke="#000000" points="101.5,-125.5 222.5,-125.5 "/>
<text text-anchor="start" x="109.5" y="-113.5" font-family="Helvetica,sans-Serif" font-size="10.00" fill="#000000">+ SpawnNewShapes()</text>
</a>
</g>
</g>
<!-- Node3&#45;&gt;Node1 -->
<g id="edge2" class="edge">
<title>Node3&#45;&gt;Node1</title>
<path fill="none" stroke="#191970" d="M139.7055,-97.6567C134.0634,-88.2061 128.0312,-78.1023 122.4834,-68.8097"/>
<polygon fill="none" stroke="#191970" points="136.8356,-99.6775 144.9669,-106.4696 142.8459,-96.0892 136.8356,-99.6775"/>
</g>
</g>
</svg>
