<?xml version="1.0" encoding="UTF-8" standalone="no"?>
<!DOCTYPE svg PUBLIC "-//W3C//DTD SVG 1.1//EN"
 "http://www.w3.org/Graphics/SVG/1.1/DTD/svg11.dtd">
<!-- Generated by graphviz version 2.40.1 (20161225.0304)
 -->
<!-- Title: BaseShape Pages: 1 -->
<svg width="453pt" height="474pt"
 viewBox="0.00 0.00 452.50 474.00" xmlns="http://www.w3.org/2000/svg" xmlns:xlink="http://www.w3.org/1999/xlink">
<g id="graph0" class="graph" transform="scale(1 1) rotate(0) translate(4 470)">
<title>BaseShape</title>
<polygon fill="#ffffff" stroke="transparent" points="-4,4 -4,-470 448.5,-470 448.5,4 -4,4"/>
<!-- Node1 -->
<g id="node1" class="node">
<title>Node1</title>
<g id="a_node1"><a xlink:title=" ">
<polygon fill="#bfbfbf" stroke="#000000" points="176.5,-.5 176.5,-68.5 243.5,-68.5 243.5,-.5 176.5,-.5"/>
<text text-anchor="middle" x="210" y="-56.5" font-family="Helvetica,sans-Serif" font-size="10.00" fill="#000000">BaseShape</text>
<polyline fill="none" stroke="#000000" points="176.5,-49.5 243.5,-49.5 "/>
<text text-anchor="start" x="184.5" y="-37.5" font-family="Helvetica,sans-Serif" font-size="10.00" fill="#000000">+ Type</text>
<text text-anchor="start" x="184.5" y="-26.5" font-family="Helvetica,sans-Serif" font-size="10.00" fill="#000000">&#45; m_Type</text>
<polyline fill="none" stroke="#000000" points="176.5,-19.5 243.5,-19.5 "/>
<text text-anchor="start" x="184.5" y="-7.5" font-family="Helvetica,sans-Serif" font-size="10.00" fill="#000000">+ Destroy()</text>
</a>
</g>
</g>
<!-- Node2 -->
<g id="node2" class="node">
<title>Node2</title>
<g id="a_node2"><a xlink:href="class_shape.html" target="_top" xlink:title=" ">
<polygon fill="#ffffff" stroke="#000000" points="139.5,-105.5 139.5,-349.5 280.5,-349.5 280.5,-105.5 139.5,-105.5"/>
<text text-anchor="middle" x="210" y="-337.5" font-family="Helvetica,sans-Serif" font-size="10.00" fill="#000000">Shape</text>
<polyline fill="none" stroke="#000000" points="139.5,-330.5 280.5,-330.5 "/>
<text text-anchor="start" x="147.5" y="-318.5" font-family="Helvetica,sans-Serif" font-size="10.00" fill="#000000">+ ClosestNeighbors</text>
<text text-anchor="start" x="147.5" y="-307.5" font-family="Helvetica,sans-Serif" font-size="10.00" fill="#000000">+ Neighbors</text>
<text text-anchor="start" x="147.5" y="-296.5" font-family="Helvetica,sans-Serif" font-size="10.00" fill="#000000">+ Position</text>
<text text-anchor="start" x="147.5" y="-285.5" font-family="Helvetica,sans-Serif" font-size="10.00" fill="#000000">+ IsDragging</text>
<text text-anchor="start" x="147.5" y="-274.5" font-family="Helvetica,sans-Serif" font-size="10.00" fill="#000000">+ CanBeDragged</text>
<text text-anchor="start" x="147.5" y="-263.5" font-family="Helvetica,sans-Serif" font-size="10.00" fill="#000000">&#45; m_MouseEntered</text>
<text text-anchor="start" x="147.5" y="-252.5" font-family="Helvetica,sans-Serif" font-size="10.00" fill="#000000">&#45; m_DraggingStartPosition</text>
<text text-anchor="start" x="147.5" y="-241.5" font-family="Helvetica,sans-Serif" font-size="10.00" fill="#000000">&#45; m_DraggingCurrentPosition</text>
<text text-anchor="start" x="147.5" y="-230.5" font-family="Helvetica,sans-Serif" font-size="10.00" fill="#000000">&#45; m_DraggablePlane</text>
<polyline fill="none" stroke="#000000" points="139.5,-223.5 280.5,-223.5 "/>
<text text-anchor="start" x="147.5" y="-211.5" font-family="Helvetica,sans-Serif" font-size="10.00" fill="#000000">+ Trigger()</text>
<text text-anchor="start" x="147.5" y="-200.5" font-family="Helvetica,sans-Serif" font-size="10.00" fill="#000000">+ MakeTriggerAction()</text>
<text text-anchor="start" x="147.5" y="-189.5" font-family="Helvetica,sans-Serif" font-size="10.00" fill="#000000">+ Destroy()</text>
<text text-anchor="start" x="147.5" y="-178.5" font-family="Helvetica,sans-Serif" font-size="10.00" fill="#000000">&#45; Awake()</text>
<text text-anchor="start" x="147.5" y="-167.5" font-family="Helvetica,sans-Serif" font-size="10.00" fill="#000000">&#45; Update()</text>
<text text-anchor="start" x="147.5" y="-156.5" font-family="Helvetica,sans-Serif" font-size="10.00" fill="#000000">&#45; InitDraggable()</text>
<text text-anchor="start" x="147.5" y="-145.5" font-family="Helvetica,sans-Serif" font-size="10.00" fill="#000000">&#45; OnMouseEnter()</text>
<text text-anchor="start" x="147.5" y="-134.5" font-family="Helvetica,sans-Serif" font-size="10.00" fill="#000000">&#45; OnMouseExit()</text>
<text text-anchor="start" x="147.5" y="-123.5" font-family="Helvetica,sans-Serif" font-size="10.00" fill="#000000">&#45; UpdateDraggable()</text>
<text text-anchor="start" x="147.5" y="-112.5" font-family="Helvetica,sans-Serif" font-size="10.00" fill="#000000">&#45; UpdateDraggablePosition()</text>
</a>
</g>
</g>
<!-- Node2&#45;&gt;Node1 -->
<g id="edge1" class="edge">
<title>Node2&#45;&gt;Node1</title>
<path fill="none" stroke="#191970" d="M210,-95.1309C210,-85.573 210,-76.5624 210,-68.5568"/>
<polygon fill="none" stroke="#191970" points="206.5001,-95.2701 210,-105.2702 213.5001,-95.2702 206.5001,-95.2701"/>
</g>
<!-- Node3 -->
<g id="node3" class="node">
<title>Node3</title>
<g id="a_node3"><a xlink:title=" ">
<polygon fill="#ffffff" stroke="#bfbfbf" points="0,-397.5 0,-454.5 84,-454.5 84,-397.5 0,-397.5"/>
<text text-anchor="middle" x="42" y="-442.5" font-family="Helvetica,sans-Serif" font-size="10.00" fill="#000000">MonoBehaviour</text>
<polyline fill="none" stroke="#bfbfbf" points="0,-435.5 84,-435.5 "/>
<text text-anchor="middle" x="42" y="-423.5" font-family="Helvetica,sans-Serif" font-size="10.00" fill="#000000"> </text>
<polyline fill="none" stroke="#bfbfbf" points="0,-416.5 84,-416.5 "/>
<text text-anchor="middle" x="42" y="-404.5" font-family="Helvetica,sans-Serif" font-size="10.00" fill="#000000"> </text>
</a>
</g>
</g>
<!-- Node3&#45;&gt;Node2 -->
<g id="edge2" class="edge">
<title>Node3&#45;&gt;Node2</title>
<path fill="none" stroke="#191970" d="M73.0229,-389.345C91.6818,-367.2986 116.2332,-338.2899 139.3909,-310.928"/>
<polygon fill="none" stroke="#191970" points="70.2174,-387.2421 66.4286,-397.1364 75.5606,-391.7644 70.2174,-387.2421"/>
</g>
<!-- Node4 -->
<g id="node4" class="node">
<title>Node4</title>
<g id="a_node4"><a xlink:href="interface_i_shape.html" target="_top" xlink:title=" ">
<polygon fill="#ffffff" stroke="#000000" points="102,-386.5 102,-465.5 204,-465.5 204,-386.5 102,-386.5"/>
<text text-anchor="middle" x="153" y="-453.5" font-family="Helvetica,sans-Serif" font-size="10.00" fill="#000000">IShape</text>
<polyline fill="none" stroke="#000000" points="102,-446.5 204,-446.5 "/>
<text text-anchor="start" x="110" y="-434.5" font-family="Helvetica,sans-Serif" font-size="10.00" fill="#000000">+ Position</text>
<text text-anchor="start" x="110" y="-423.5" font-family="Helvetica,sans-Serif" font-size="10.00" fill="#000000">+ ClosestNeighbors</text>
<text text-anchor="start" x="110" y="-412.5" font-family="Helvetica,sans-Serif" font-size="10.00" fill="#000000">+ Neighbors</text>
<polyline fill="none" stroke="#000000" points="102,-405.5 204,-405.5 "/>
<text text-anchor="middle" x="153" y="-393.5" font-family="Helvetica,sans-Serif" font-size="10.00" fill="#000000"> </text>
</a>
</g>
</g>
<!-- Node4&#45;&gt;Node2 -->
<g id="edge3" class="edge">
<title>Node4&#45;&gt;Node2</title>
<path fill="none" stroke="#191970" d="M167.2348,-376.4278C169.6405,-368.0501 172.2289,-359.036 174.8992,-349.7371"/>
<polygon fill="none" stroke="#191970" points="163.7938,-375.73 164.3978,-386.3076 170.5219,-377.6621 163.7938,-375.73"/>
</g>
<!-- Node5 -->
<g id="node5" class="node">
<title>Node5</title>
<g id="a_node5"><a xlink:href="interface_i_draggable.html" target="_top" xlink:title=" ">
<polygon fill="#ffffff" stroke="#000000" points="222.5,-392 222.5,-460 313.5,-460 313.5,-392 222.5,-392"/>
<text text-anchor="middle" x="268" y="-448" font-family="Helvetica,sans-Serif" font-size="10.00" fill="#000000">IDraggable</text>
<polyline fill="none" stroke="#000000" points="222.5,-441 313.5,-441 "/>
<text text-anchor="start" x="230.5" y="-429" font-family="Helvetica,sans-Serif" font-size="10.00" fill="#000000">+ CanBeDragged</text>
<text text-anchor="start" x="230.5" y="-418" font-family="Helvetica,sans-Serif" font-size="10.00" fill="#000000">+ IsDragging</text>
<polyline fill="none" stroke="#000000" points="222.5,-411 313.5,-411 "/>
<text text-anchor="middle" x="268" y="-399" font-family="Helvetica,sans-Serif" font-size="10.00" fill="#000000"> </text>
</a>
</g>
</g>
<!-- Node5&#45;&gt;Node2 -->
<g id="edge4" class="edge">
<title>Node5&#45;&gt;Node2</title>
<path fill="none" stroke="#191970" d="M255.1449,-382.0047C252.2608,-372.134 249.064,-361.1931 245.7422,-349.8246"/>
<polygon fill="none" stroke="#191970" points="251.8652,-383.2596 258.0294,-391.8766 258.5843,-381.2963 251.8652,-383.2596"/>
</g>
<!-- Node6 -->
<g id="node6" class="node">
<title>Node6</title>
<g id="a_node6"><a xlink:href="interface_i_triggerable.html" target="_top" xlink:title=" ">
<polygon fill="#ffffff" stroke="#000000" points="331.5,-392 331.5,-460 444.5,-460 444.5,-392 331.5,-392"/>
<text text-anchor="middle" x="388" y="-448" font-family="Helvetica,sans-Serif" font-size="10.00" fill="#000000">ITriggerable</text>
<polyline fill="none" stroke="#000000" points="331.5,-441 444.5,-441 "/>
<text text-anchor="middle" x="388" y="-429" font-family="Helvetica,sans-Serif" font-size="10.00" fill="#000000"> </text>
<polyline fill="none" stroke="#000000" points="331.5,-422 444.5,-422 "/>
<text text-anchor="start" x="339.5" y="-410" font-family="Helvetica,sans-Serif" font-size="10.00" fill="#000000">+ Trigger()</text>
<text text-anchor="start" x="339.5" y="-399" font-family="Helvetica,sans-Serif" font-size="10.00" fill="#000000">+ MakeTriggerAction()</text>
</a>
</g>
</g>
<!-- Node6&#45;&gt;Node2 -->
<g id="edge5" class="edge">
<title>Node6&#45;&gt;Node2</title>
<path fill="none" stroke="#191970" d="M350.484,-384.1633C330.2584,-361.6084 304.6264,-333.0244 280.8098,-306.4649"/>
<polygon fill="none" stroke="#191970" points="348.1187,-386.7682 357.4007,-391.8766 353.3303,-382.0949 348.1187,-386.7682"/>
</g>
</g>
</svg>
