<?xml version="1.0" encoding="UTF-8" standalone="no"?>
<!DOCTYPE svg PUBLIC "-//W3C//DTD SVG 1.1//EN"
 "http://www.w3.org/Graphics/SVG/1.1/DTD/svg11.dtd">
<!-- Generated by graphviz version 2.40.1 (20161225.0304)
 -->
<!-- Title: ShapesRepository Pages: 1 -->
<!--zoomable 557 -->
<svg id="main" version="1.1" xmlns="http://www.w3.org/2000/svg" xmlns:xlink="http://www.w3.org/1999/xlink" xml:space="preserve" onload="init(evt)">
<style type="text/css"><![CDATA[
.edge:hover path { stroke: red; }
.edge:hover polygon { stroke: red; fill: red; }
]]></style>
<script type="text/javascript"><![CDATA[
var edges = document.getElementsByTagName('g');
if (edges && edges.length) {
  for (var i=0;i<edges.length;i++) {
    if (edges[i].id.substr(0,4)=='edge') {
      edges[i].setAttribute('class','edge');
    }
  }
}
]]></script>
        <defs>
                <circle id="rim" cx="0" cy="0" r="7"/>
                <circle id="rim2" cx="0" cy="0" r="3.5"/>
                <g id="zoomPlus">
                        <use xlink:href="#rim" fill="#404040">
                                <set attributeName="fill" to="#808080" begin="zoomplus.mouseover" end="zoomplus.mouseout"/>
                        </use>
                        <path d="M-4,0h8M0,-4v8" fill="none" stroke="white" stroke-width="1.5" pointer-events="none"/>
                </g>
                <g id="zoomMin">
                        <use xlink:href="#rim" fill="#404040">
                                <set attributeName="fill" to="#808080" begin="zoomminus.mouseover" end="zoomminus.mouseout"/>
                        </use>
                        <path d="M-4,0h8" fill="none" stroke="white" stroke-width="1.5" pointer-events="none"/>
                </g>
                <g id="dirArrow">
                        <path fill="none" stroke="white" stroke-width="1.5" d="M0,-3.0v7 M-2.5,-0.5L0,-3.0L2.5,-0.5"/>
                </g>
               <g id="resetDef">
                       <use xlink:href="#rim2" fill="#404040">
                               <set attributeName="fill" to="#808080" begin="reset.mouseover" end="reset.mouseout"/>
                       </use>
               </g>
        </defs>

<script type="text/javascript">
var viewWidth = 549;
var viewHeight = 557;
var sectionId = 'dynsection-1';
</script>
<script xlink:href="svgpan.js"/>
<svg id="graph" class="graph">
<g id="viewport">
<title>ShapesRepository</title>
<!-- Node1 -->
<g id="node1" class="node">
<title>Node1</title>
<g id="a_node1"><a xlink:title=" ">
<polygon fill="#bfbfbf" stroke="#000000" points="200,-.5 200,-68.5 296,-68.5 296,-.5 200,-.5"/>
<text text-anchor="middle" x="248" y="-56.5" font-family="Helvetica,sans-Serif" font-size="10.00" fill="#000000">ShapesRepository</text>
<polyline fill="none" stroke="#000000" points="200,-49.5 296,-49.5 "/>
<text text-anchor="middle" x="248" y="-37.5" font-family="Helvetica,sans-Serif" font-size="10.00" fill="#000000"> </text>
<polyline fill="none" stroke="#000000" points="200,-30.5 296,-30.5 "/>
<text text-anchor="start" x="208" y="-18.5" font-family="Helvetica,sans-Serif" font-size="10.00" fill="#000000">+ GetBaseSprite()</text>
<text text-anchor="start" x="208" y="-7.5" font-family="Helvetica,sans-Serif" font-size="10.00" fill="#000000">+ CreateRandom()</text>
</a>
</g>
</g>
<!-- Node1&#45;&gt;Node1 -->
<g id="edge2" class="edge">
<title>Node1&#45;&gt;Node1</title>
<path fill="none" stroke="#404040" d="M296.0542,-46.8734C306.4563,-45.6635 314,-41.5391 314,-34.5 314,-30.5405 311.6131,-27.5033 307.6733,-25.3882"/>
<polygon fill="none" stroke="#404040" points="307.6077,-25.3698 300.7499,-27.5994 296.0542,-22.1266 302.912,-19.8971 307.6077,-25.3698"/>
<text text-anchor="middle" x="337.5" y="-32" font-family="Helvetica,sans-Serif" font-size="10.00" fill="#000000"> +Instance</text>
</g>
<!-- Node2 -->
<g id="node2" class="node">
<title>Node2</title>
<g id="a_node2"><a xlink:href="class_mono_behaviour.html" target="_top" xlink:title=" ">
<polygon fill="none" stroke="#000000" points="0,-480.5 0,-537.5 84,-537.5 84,-480.5 0,-480.5"/>
<text text-anchor="middle" x="42" y="-525.5" font-family="Helvetica,sans-Serif" font-size="10.00" fill="#000000">MonoBehaviour</text>
<polyline fill="none" stroke="#000000" points="0,-518.5 84,-518.5 "/>
<text text-anchor="middle" x="42" y="-506.5" font-family="Helvetica,sans-Serif" font-size="10.00" fill="#000000"> </text>
<polyline fill="none" stroke="#000000" points="0,-499.5 84,-499.5 "/>
<text text-anchor="middle" x="42" y="-487.5" font-family="Helvetica,sans-Serif" font-size="10.00" fill="#000000"> </text>
</a>
</g>
</g>
<!-- Node2&#45;&gt;Node1 -->
<g id="edge1" class="edge">
<title>Node2&#45;&gt;Node1</title>
<path fill="none" stroke="#191970" d="M49.5773,-470.3507C63.7378,-401.7328 97.2571,-254.8582 146,-138 156.0379,-113.9347 157.5692,-106.3925 175,-87 182.3049,-78.8729 191.073,-71.265 199.958,-64.5"/>
<polygon fill="none" stroke="#191970" points="46.1203,-469.7869 47.5501,-480.2848 52.9789,-471.1866 46.1203,-469.7869"/>
</g>
<!-- Node5 -->
<g id="node5" class="node">
<title>Node5</title>
<g id="a_node5"><a xlink:href="class_shape.html" target="_top" xlink:title=" ">
<polygon fill="none" stroke="#000000" points="160.5,-309.5 160.5,-410.5 273.5,-410.5 273.5,-309.5 160.5,-309.5"/>
<text text-anchor="middle" x="217" y="-398.5" font-family="Helvetica,sans-Serif" font-size="10.00" fill="#000000">Shape</text>
<polyline fill="none" stroke="#000000" points="160.5,-391.5 273.5,-391.5 "/>
<text text-anchor="start" x="168.5" y="-379.5" font-family="Helvetica,sans-Serif" font-size="10.00" fill="#000000">+ Position</text>
<text text-anchor="start" x="168.5" y="-368.5" font-family="Helvetica,sans-Serif" font-size="10.00" fill="#000000">+ IsDragging</text>
<text text-anchor="start" x="168.5" y="-357.5" font-family="Helvetica,sans-Serif" font-size="10.00" fill="#000000">+ CanBeDragged</text>
<polyline fill="none" stroke="#000000" points="160.5,-350.5 273.5,-350.5 "/>
<text text-anchor="start" x="168.5" y="-338.5" font-family="Helvetica,sans-Serif" font-size="10.00" fill="#000000">+ Trigger()</text>
<text text-anchor="start" x="168.5" y="-327.5" font-family="Helvetica,sans-Serif" font-size="10.00" fill="#000000">+ MakeTriggerAction()</text>
<text text-anchor="start" x="168.5" y="-316.5" font-family="Helvetica,sans-Serif" font-size="10.00" fill="#000000">+ Destroy()</text>
</a>
</g>
</g>
<!-- Node2&#45;&gt;Node5 -->
<g id="edge6" class="edge">
<title>Node2&#45;&gt;Node5</title>
<path fill="none" stroke="#191970" d="M83.592,-473.5874C106.5228,-454.0635 135.322,-429.543 160.2883,-408.286"/>
<polygon fill="none" stroke="#191970" points="81.0868,-471.1236 75.7418,-480.2713 85.6248,-476.4534 81.0868,-471.1236"/>
</g>
<!-- Node3 -->
<g id="node3" class="node">
<title>Node3</title>
<g id="a_node3"><a xlink:title=" ">
<polygon fill="none" stroke="#bfbfbf" points="431,-171.5 431,-228.5 473,-228.5 473,-171.5 431,-171.5"/>
<text text-anchor="middle" x="452" y="-216.5" font-family="Helvetica,sans-Serif" font-size="10.00" fill="#000000">Sprite</text>
<polyline fill="none" stroke="#bfbfbf" points="431,-209.5 473,-209.5 "/>
<text text-anchor="middle" x="452" y="-197.5" font-family="Helvetica,sans-Serif" font-size="10.00" fill="#000000"> </text>
<polyline fill="none" stroke="#bfbfbf" points="431,-190.5 473,-190.5 "/>
<text text-anchor="middle" x="452" y="-178.5" font-family="Helvetica,sans-Serif" font-size="10.00" fill="#000000"> </text>
</a>
</g>
</g>
<!-- Node3&#45;&gt;Node1 -->
<g id="edge3" class="edge">
<title>Node3&#45;&gt;Node1</title>
<path fill="none" stroke="#404040" d="M451.8562,-171.1798C450.1719,-145.7984 443.7293,-109.4705 422,-87 406.0106,-70.4652 351.799,-55.7361 308.0866,-46.1188"/>
<polygon fill="none" stroke="#404040" points="307.8098,-46.0595 301.1047,-48.7132 296.0763,-43.5445 302.7814,-40.8909 307.8098,-46.0595"/>
<text text-anchor="middle" x="485.5" y="-112" font-family="Helvetica,sans-Serif" font-size="10.00" fill="#000000"> +SquareBaseSprite</text>
<text text-anchor="middle" x="485.5" y="-101" font-family="Helvetica,sans-Serif" font-size="10.00" fill="#000000">+TriangleBaseSprite</text>
<text text-anchor="middle" x="485.5" y="-90" font-family="Helvetica,sans-Serif" font-size="10.00" fill="#000000">+CircleBaseSprite</text>
</g>
<!-- Node4 -->
<g id="node4" class="node">
<title>Node4</title>
<g id="a_node4"><a xlink:href="class_base_shape.html" target="_top" xlink:title=" ">
<polygon fill="none" stroke="#000000" points="155.5,-171.5 155.5,-228.5 222.5,-228.5 222.5,-171.5 155.5,-171.5"/>
<text text-anchor="middle" x="189" y="-216.5" font-family="Helvetica,sans-Serif" font-size="10.00" fill="#000000">BaseShape</text>
<polyline fill="none" stroke="#000000" points="155.5,-209.5 222.5,-209.5 "/>
<text text-anchor="start" x="163.5" y="-197.5" font-family="Helvetica,sans-Serif" font-size="10.00" fill="#000000">+ Type</text>
<polyline fill="none" stroke="#000000" points="155.5,-190.5 222.5,-190.5 "/>
<text text-anchor="start" x="163.5" y="-178.5" font-family="Helvetica,sans-Serif" font-size="10.00" fill="#000000">+ Destroy()</text>
</a>
</g>
</g>
<!-- Node4&#45;&gt;Node1 -->
<g id="edge4" class="edge">
<title>Node4&#45;&gt;Node1</title>
<path fill="none" stroke="#404040" d="M182.2913,-171.2307C178.2413,-147.5323 175.9208,-113.6197 188,-87 189.3736,-83.973 191.0175,-81.0519 192.8688,-78.2434"/>
<polygon fill="none" stroke="#404040" points="193.0116,-78.0595 193.53,-70.867 200.3686,-68.5792 199.8502,-75.7717 193.0116,-78.0595"/>
<text text-anchor="middle" x="237.5" y="-101" font-family="Helvetica,sans-Serif" font-size="10.00" fill="#000000"> +CommonBaseShape</text>
</g>
<!-- Node5&#45;&gt;Node4 -->
<g id="edge5" class="edge">
<title>Node5&#45;&gt;Node4</title>
<path fill="none" stroke="#191970" d="M206.362,-299.2114C202.1386,-275.0774 197.4812,-248.4642 194.0544,-228.8821"/>
<polygon fill="none" stroke="#191970" points="202.9691,-300.1281 208.1406,-309.375 209.8643,-298.9213 202.9691,-300.1281"/>
</g>
<!-- Node10 -->
<g id="node10" class="node">
<title>Node10</title>
<g id="a_node10"><a xlink:href="class_transistor_shape.html" target="_top" xlink:title=" ">
<polygon fill="none" stroke="#000000" points="242.5,-138.5 242.5,-261.5 375.5,-261.5 375.5,-138.5 242.5,-138.5"/>
<text text-anchor="middle" x="309" y="-249.5" font-family="Helvetica,sans-Serif" font-size="10.00" fill="#000000">TransistorShape</text>
<polyline fill="none" stroke="#000000" points="242.5,-242.5 375.5,-242.5 "/>
<text text-anchor="start" x="250.5" y="-230.5" font-family="Helvetica,sans-Serif" font-size="10.00" fill="#000000">+ InputType</text>
<text text-anchor="start" x="250.5" y="-219.5" font-family="Helvetica,sans-Serif" font-size="10.00" fill="#000000">+ OutputType</text>
<polyline fill="none" stroke="#000000" points="242.5,-212.5 375.5,-212.5 "/>
<text text-anchor="start" x="250.5" y="-200.5" font-family="Helvetica,sans-Serif" font-size="10.00" fill="#000000">+ SetupIOTypes()</text>
<text text-anchor="start" x="250.5" y="-189.5" font-family="Helvetica,sans-Serif" font-size="10.00" fill="#000000">+ SetAbsorbed()</text>
<text text-anchor="start" x="250.5" y="-178.5" font-family="Helvetica,sans-Serif" font-size="10.00" fill="#000000">+ CanAbsorp()</text>
<text text-anchor="start" x="250.5" y="-167.5" font-family="Helvetica,sans-Serif" font-size="10.00" fill="#000000">+ CanAbsorpToExplosion()</text>
<text text-anchor="start" x="250.5" y="-156.5" font-family="Helvetica,sans-Serif" font-size="10.00" fill="#000000">+ Trigger()</text>
<text text-anchor="start" x="250.5" y="-145.5" font-family="Helvetica,sans-Serif" font-size="10.00" fill="#000000">+ MakeTriggerAction()</text>
</a>
</g>
</g>
<!-- Node5&#45;&gt;Node10 -->
<g id="edge12" class="edge">
<title>Node5&#45;&gt;Node10</title>
<path fill="none" stroke="#191970" d="M251.1144,-300.6706C258.4586,-287.898 266.2368,-274.3708 273.6278,-261.5169"/>
<polygon fill="none" stroke="#191970" points="248.06,-298.9613 246.1094,-309.375 254.1283,-302.4506 248.06,-298.9613"/>
</g>
<!-- Node6 -->
<g id="node6" class="node">
<title>Node6</title>
<g id="a_node6"><a xlink:href="interface_i_shape.html" target="_top" xlink:title=" ">
<polygon fill="none" stroke="#000000" points="102,-469.5 102,-548.5 204,-548.5 204,-469.5 102,-469.5"/>
<text text-anchor="middle" x="153" y="-536.5" font-family="Helvetica,sans-Serif" font-size="10.00" fill="#000000">IShape</text>
<polyline fill="none" stroke="#000000" points="102,-529.5 204,-529.5 "/>
<text text-anchor="start" x="110" y="-517.5" font-family="Helvetica,sans-Serif" font-size="10.00" fill="#000000">+ Position</text>
<text text-anchor="start" x="110" y="-506.5" font-family="Helvetica,sans-Serif" font-size="10.00" fill="#000000">+ ClosestNeighbors</text>
<text text-anchor="start" x="110" y="-495.5" font-family="Helvetica,sans-Serif" font-size="10.00" fill="#000000">+ Neighbors</text>
<polyline fill="none" stroke="#000000" points="102,-488.5 204,-488.5 "/>
<text text-anchor="middle" x="153" y="-476.5" font-family="Helvetica,sans-Serif" font-size="10.00" fill="#000000"> </text>
</a>
</g>
</g>
<!-- Node6&#45;&gt;Node5 -->
<g id="edge7" class="edge">
<title>Node6&#45;&gt;Node5</title>
<path fill="none" stroke="#191970" d="M174.0951,-459.8881C180.8741,-444.1055 188.3948,-426.5964 195.2219,-410.7021"/>
<polygon fill="none" stroke="#191970" points="170.7136,-458.8923 169.9828,-469.4619 177.1454,-461.655 170.7136,-458.8923"/>
</g>
<!-- Node7 -->
<g id="node7" class="node">
<title>Node7</title>
<g id="a_node7"><a xlink:href="interface_i_draggable.html" target="_top" xlink:title=" ">
<polygon fill="none" stroke="#000000" points="222.5,-475 222.5,-543 313.5,-543 313.5,-475 222.5,-475"/>
<text text-anchor="middle" x="268" y="-531" font-family="Helvetica,sans-Serif" font-size="10.00" fill="#000000">IDraggable</text>
<polyline fill="none" stroke="#000000" points="222.5,-524 313.5,-524 "/>
<text text-anchor="start" x="230.5" y="-512" font-family="Helvetica,sans-Serif" font-size="10.00" fill="#000000">+ CanBeDragged</text>
<text text-anchor="start" x="230.5" y="-501" font-family="Helvetica,sans-Serif" font-size="10.00" fill="#000000">+ IsDragging</text>
<polyline fill="none" stroke="#000000" points="222.5,-494 313.5,-494 "/>
<text text-anchor="middle" x="268" y="-482" font-family="Helvetica,sans-Serif" font-size="10.00" fill="#000000"> </text>
</a>
</g>
</g>
<!-- Node7&#45;&gt;Node5 -->
<g id="edge8" class="edge">
<title>Node7&#45;&gt;Node5</title>
<path fill="none" stroke="#191970" d="M252.9744,-465.1018C247.1326,-448.0344 240.403,-428.3735 234.3561,-410.707"/>
<polygon fill="none" stroke="#191970" points="249.7497,-466.4887 256.2996,-474.8164 256.3725,-464.2218 249.7497,-466.4887"/>
</g>
<!-- Node8 -->
<g id="node8" class="node">
<title>Node8</title>
<g id="a_node8"><a xlink:href="interface_i_triggerable.html" target="_top" xlink:title=" ">
<polygon fill="none" stroke="#000000" points="331.5,-475 331.5,-543 444.5,-543 444.5,-475 331.5,-475"/>
<text text-anchor="middle" x="388" y="-531" font-family="Helvetica,sans-Serif" font-size="10.00" fill="#000000">ITriggerable</text>
<polyline fill="none" stroke="#000000" points="331.5,-524 444.5,-524 "/>
<text text-anchor="middle" x="388" y="-512" font-family="Helvetica,sans-Serif" font-size="10.00" fill="#000000"> </text>
<polyline fill="none" stroke="#000000" points="331.5,-505 444.5,-505 "/>
<text text-anchor="start" x="339.5" y="-493" font-family="Helvetica,sans-Serif" font-size="10.00" fill="#000000">+ Trigger()</text>
<text text-anchor="start" x="339.5" y="-482" font-family="Helvetica,sans-Serif" font-size="10.00" fill="#000000">+ MakeTriggerAction()</text>
</a>
</g>
</g>
<!-- Node8&#45;&gt;Node5 -->
<g id="edge9" class="edge">
<title>Node8&#45;&gt;Node5</title>
<path fill="none" stroke="#191970" d="M340.9789,-468.0284C320.123,-449.8557 295.4074,-428.3199 273.5528,-409.277"/>
<polygon fill="none" stroke="#191970" points="338.9304,-470.8857 348.7691,-474.8164 343.529,-465.6081 338.9304,-470.8857"/>
</g>
<!-- Node9 -->
<g id="node9" class="node">
<title>Node9</title>
<g id="a_node9"><a xlink:title=" ">
<polygon fill="none" stroke="#bfbfbf" points="463,-480.5 463,-537.5 541,-537.5 541,-480.5 463,-480.5"/>
<text text-anchor="middle" x="502" y="-525.5" font-family="Helvetica,sans-Serif" font-size="10.00" fill="#000000">List&lt; Shape &gt;</text>
<polyline fill="none" stroke="#bfbfbf" points="463,-518.5 541,-518.5 "/>
<text text-anchor="middle" x="502" y="-506.5" font-family="Helvetica,sans-Serif" font-size="10.00" fill="#000000"> </text>
<polyline fill="none" stroke="#bfbfbf" points="463,-499.5 541,-499.5 "/>
<text text-anchor="middle" x="502" y="-487.5" font-family="Helvetica,sans-Serif" font-size="10.00" fill="#000000"> </text>
</a>
</g>
</g>
<!-- Node9&#45;&gt;Node5 -->
<g id="edge10" class="edge">
<title>Node9&#45;&gt;Node5</title>
<path fill="none" stroke="#404040" d="M470.9245,-480.3626C465.5188,-476.1999 459.7721,-472.2353 454,-469 387.2756,-431.6008 356.6427,-447.2723 284.7404,-411.3741"/>
<polygon fill="none" stroke="#404040" points="284.4673,-411.232 277.2982,-412.0095 273.8232,-405.691 280.9922,-404.9134 284.4673,-411.232"/>
<text text-anchor="middle" x="455" y="-443" font-family="Helvetica,sans-Serif" font-size="10.00" fill="#000000"> +ClosestNeighbors</text>
<text text-anchor="middle" x="455" y="-432" font-family="Helvetica,sans-Serif" font-size="10.00" fill="#000000">+Neighbors</text>
</g>
<!-- Node10&#45;&gt;Node1 -->
<g id="edge11" class="edge">
<title>Node10&#45;&gt;Node1</title>
<path fill="none" stroke="#404040" d="M302.1302,-138.3738C298.8648,-121.263 294.0606,-102.9994 287,-87 285.8396,-84.3706 284.5274,-81.7479 283.1048,-79.1563"/>
<polygon fill="none" stroke="#404040" points="282.9969,-78.9796 276.4553,-75.9452 276.7403,-68.7397 283.2819,-71.7742 282.9969,-78.9796"/>
<text text-anchor="middle" x="358" y="-101" font-family="Helvetica,sans-Serif" font-size="10.00" fill="#000000"> +CommonTransistorShape</text>
</g>
<!-- Node11 -->
<g id="node11" class="node">
<title>Node11</title>
<g id="a_node11"><a xlink:title=" ">
<polygon fill="none" stroke="#bfbfbf" points="291.5,-331.5 291.5,-388.5 326.5,-388.5 326.5,-331.5 291.5,-331.5"/>
<text text-anchor="middle" x="309" y="-376.5" font-family="Helvetica,sans-Serif" font-size="10.00" fill="#000000">bool</text>
<polyline fill="none" stroke="#bfbfbf" points="291.5,-369.5 326.5,-369.5 "/>
<text text-anchor="middle" x="309" y="-357.5" font-family="Helvetica,sans-Serif" font-size="10.00" fill="#000000"> </text>
<polyline fill="none" stroke="#bfbfbf" points="291.5,-350.5 326.5,-350.5 "/>
<text text-anchor="middle" x="309" y="-338.5" font-family="Helvetica,sans-Serif" font-size="10.00" fill="#000000"> </text>
</a>
</g>
</g>
<!-- Node11&#45;&gt;Node10 -->
<g id="edge13" class="edge">
<title>Node11&#45;&gt;Node10</title>
<path fill="none" stroke="#404040" d="M309,-331.3952C309,-315.241 309,-294.2382 309,-273.7811"/>
<polygon fill="none" stroke="#404040" points="309.0001,-273.5026 305,-267.5027 309,-261.5026 313,-267.5026 309.0001,-273.5026"/>
<text text-anchor="middle" x="334.5" y="-283" font-family="Helvetica,sans-Serif" font-size="10.00" fill="#000000"> +Absorbed</text>
</g>
<!-- Node12 -->
<g id="node12" class="node">
<title>Node12</title>
<g id="a_node12"><a xlink:title=" ">
<polygon fill="none" stroke="#bfbfbf" points="344.5,-331.5 344.5,-388.5 425.5,-388.5 425.5,-331.5 344.5,-331.5"/>
<text text-anchor="middle" x="385" y="-376.5" font-family="Helvetica,sans-Serif" font-size="10.00" fill="#000000">SpriteRenderer</text>
<polyline fill="none" stroke="#bfbfbf" points="344.5,-369.5 425.5,-369.5 "/>
<text text-anchor="middle" x="385" y="-357.5" font-family="Helvetica,sans-Serif" font-size="10.00" fill="#000000"> </text>
<polyline fill="none" stroke="#bfbfbf" points="344.5,-350.5 425.5,-350.5 "/>
<text text-anchor="middle" x="385" y="-338.5" font-family="Helvetica,sans-Serif" font-size="10.00" fill="#000000"> </text>
</a>
</g>
</g>
<!-- Node12&#45;&gt;Node10 -->
<g id="edge14" class="edge">
<title>Node12&#45;&gt;Node10</title>
<path fill="none" stroke="#404040" d="M379.5234,-331.4448C375.9449,-315.8154 370.5233,-296.3585 363,-280 361.8185,-277.431 360.5581,-274.853 359.2344,-272.2784"/>
<polygon fill="none" stroke="#404040" points="359.2321,-272.2743 352.8441,-268.9286 353.4755,-261.7452 359.8635,-265.0908 359.2321,-272.2743"/>
<text text-anchor="middle" x="396.5" y="-283" font-family="Helvetica,sans-Serif" font-size="10.00" fill="#000000"> +InputHolder</text>
</g>
</g>
</svg>
        <g id="navigator" transform="translate(0 0)" fill="#404254">
                <rect fill="#f2f5e9" fill-opacity="0.5" stroke="#606060" stroke-width=".5" x="0" y="0" width="60" height="60"/>
                <use id="zoomplus" xlink:href="#zoomPlus" x="17" y="9" onmousedown="handleZoom(evt,'in')"/>
                <use id="zoomminus" xlink:href="#zoomMin" x="42" y="9" onmousedown="handleZoom(evt,'out')"/>
                <use id="reset" xlink:href="#resetDef" x="30" y="36" onmousedown="handleReset()"/>
                <g id="arrowUp" xlink:href="#dirArrow" transform="translate(30 24)" onmousedown="handlePan(0,-1)">
                  <use xlink:href="#rim" fill="#404040">
                        <set attributeName="fill" to="#808080" begin="arrowUp.mouseover" end="arrowUp.mouseout"/>
                  </use>
                  <path fill="none" stroke="white" stroke-width="1.5" d="M0,-3.0v7 M-2.5,-0.5L0,-3.0L2.5,-0.5"/>
                </g>
                <g id="arrowRight" xlink:href="#dirArrow" transform="rotate(90) translate(36 -43)" onmousedown="handlePan(1,0)">
                  <use xlink:href="#rim" fill="#404040">
                        <set attributeName="fill" to="#808080" begin="arrowRight.mouseover" end="arrowRight.mouseout"/>
                  </use>
                  <path fill="none" stroke="white" stroke-width="1.5" d="M0,-3.0v7 M-2.5,-0.5L0,-3.0L2.5,-0.5"/>
                </g>
                <g id="arrowDown" xlink:href="#dirArrow" transform="rotate(180) translate(-30 -48)" onmousedown="handlePan(0,1)">
                  <use xlink:href="#rim" fill="#404040">
                        <set attributeName="fill" to="#808080" begin="arrowDown.mouseover" end="arrowDown.mouseout"/>
                  </use>
                  <path fill="none" stroke="white" stroke-width="1.5" d="M0,-3.0v7 M-2.5,-0.5L0,-3.0L2.5,-0.5"/>
                </g>
                <g id="arrowLeft" xlink:href="#dirArrow" transform="rotate(270) translate(-36 17)" onmousedown="handlePan(-1,0)">
                  <use xlink:href="#rim" fill="#404040">
                        <set attributeName="fill" to="#808080" begin="arrowLeft.mouseover" end="arrowLeft.mouseout"/>
                  </use>
                  <path fill="none" stroke="white" stroke-width="1.5" d="M0,-3.0v7 M-2.5,-0.5L0,-3.0L2.5,-0.5"/>
                </g>
        </g>
        <svg viewBox="0 0 15 15" width="100%" height="30px" preserveAspectRatio="xMaxYMin meet">
         <g id="arrow_out" transform="scale(0.3 0.3)">
          <a xlink:href="class_shapes_repository__coll__graph_org.svg" target="_base">
           <rect id="button" ry="5" rx="5" y="6" x="6" height="38" width="38"
                fill="#f2f5e9" fill-opacity="0.5" stroke="#606060" stroke-width="1.0"/>
           <path id="arrow"
             d="M 11.500037,31.436501 C 11.940474,20.09759 22.043105,11.32322 32.158766,21.979434 L 37.068811,17.246167 C 37.068811,17.246167 37.088388,32 37.088388,32 L 22.160133,31.978069 C 22.160133,31.978069 26.997745,27.140456 26.997745,27.140456 C 18.528582,18.264221 13.291696,25.230495 11.500037,31.436501 z"
             style="fill:#404040;"/>
          </a>
         </g>
        </svg>
</svg>
