<?xml version="1.0" encoding="UTF-8" standalone="no"?>
<!DOCTYPE svg PUBLIC "-//W3C//DTD SVG 1.1//EN"
 "http://www.w3.org/Graphics/SVG/1.1/DTD/svg11.dtd">
<!-- Generated by graphviz version 2.40.1 (20161225.0304)
 -->
<!-- Title: PathBezier2d Pages: 1 -->
<svg width="202pt" height="606pt"
 viewBox="0.00 0.00 201.50 606.00" xmlns="http://www.w3.org/2000/svg" xmlns:xlink="http://www.w3.org/1999/xlink">
<g id="graph0" class="graph" transform="scale(1 1) rotate(0) translate(4 602)">
<title>PathBezier2d</title>
<polygon fill="#ffffff" stroke="transparent" points="-4,4 -4,-602 197.5,-602 197.5,4 -4,4"/>
<!-- Node1 -->
<g id="node1" class="node">
<title>Node1</title>
<g id="a_node1"><a xlink:title=" ">
<polygon fill="#bfbfbf" stroke="#000000" points="9.5,-.5 9.5,-90.5 106.5,-90.5 106.5,-.5 9.5,-.5"/>
<text text-anchor="middle" x="58" y="-78.5" font-family="Helvetica,sans-Serif" font-size="10.00" fill="#000000">PathBezier2d</text>
<polyline fill="none" stroke="#000000" points="9.5,-71.5 106.5,-71.5 "/>
<text text-anchor="start" x="17.5" y="-59.5" font-family="Helvetica,sans-Serif" font-size="10.00" fill="#000000">+ cubes</text>
<text text-anchor="start" x="17.5" y="-48.5" font-family="Helvetica,sans-Serif" font-size="10.00" fill="#000000">+ dude1</text>
<text text-anchor="start" x="17.5" y="-37.5" font-family="Helvetica,sans-Serif" font-size="10.00" fill="#000000">+ dude2</text>
<polyline fill="none" stroke="#000000" points="9.5,-30.5 106.5,-30.5 "/>
<text text-anchor="start" x="17.5" y="-18.5" font-family="Helvetica,sans-Serif" font-size="10.00" fill="#000000">&#45; Start()</text>
<text text-anchor="start" x="17.5" y="-7.5" font-family="Helvetica,sans-Serif" font-size="10.00" fill="#000000">&#45; OnDrawGizmos()</text>
</a>
</g>
</g>
<!-- Node2 -->
<g id="node2" class="node">
<title>Node2</title>
<g id="a_node2"><a xlink:title=" ">
<polygon fill="#ffffff" stroke="#bfbfbf" points="0,-237.5 0,-294.5 84,-294.5 84,-237.5 0,-237.5"/>
<text text-anchor="middle" x="42" y="-282.5" font-family="Helvetica,sans-Serif" font-size="10.00" fill="#000000">MonoBehaviour</text>
<polyline fill="none" stroke="#bfbfbf" points="0,-275.5 84,-275.5 "/>
<text text-anchor="middle" x="42" y="-263.5" font-family="Helvetica,sans-Serif" font-size="10.00" fill="#000000"> </text>
<polyline fill="none" stroke="#bfbfbf" points="0,-256.5 84,-256.5 "/>
<text text-anchor="middle" x="42" y="-244.5" font-family="Helvetica,sans-Serif" font-size="10.00" fill="#000000"> </text>
</a>
</g>
</g>
<!-- Node2&#45;&gt;Node1 -->
<g id="edge1" class="edge">
<title>Node2&#45;&gt;Node1</title>
<path fill="none" stroke="#191970" d="M44.8311,-226.9837C47.5961,-188.8789 51.8016,-130.9214 54.713,-90.7994"/>
<polygon fill="none" stroke="#191970" points="41.3247,-226.9464 44.0917,-237.1735 48.3064,-227.453 41.3247,-226.9464"/>
</g>
<!-- Node3 -->
<g id="node3" class="node">
<title>Node3</title>
<g id="a_node3"><a xlink:href="class_l_t_bezier_path.html" target="_top" xlink:title=" ">
<polygon fill="#ffffff" stroke="#000000" points="102.5,-138.5 102.5,-393.5 193.5,-393.5 193.5,-138.5 102.5,-138.5"/>
<text text-anchor="middle" x="148" y="-381.5" font-family="Helvetica,sans-Serif" font-size="10.00" fill="#000000">LTBezierPath</text>
<polyline fill="none" stroke="#000000" points="102.5,-374.5 193.5,-374.5 "/>
<text text-anchor="start" x="110.5" y="-362.5" font-family="Helvetica,sans-Serif" font-size="10.00" fill="#000000">+ pts</text>
<text text-anchor="start" x="110.5" y="-351.5" font-family="Helvetica,sans-Serif" font-size="10.00" fill="#000000">+ length</text>
<text text-anchor="start" x="110.5" y="-340.5" font-family="Helvetica,sans-Serif" font-size="10.00" fill="#000000">+ orientToPath</text>
<text text-anchor="start" x="110.5" y="-329.5" font-family="Helvetica,sans-Serif" font-size="10.00" fill="#000000">+ orientToPath2d</text>
<text text-anchor="start" x="110.5" y="-318.5" font-family="Helvetica,sans-Serif" font-size="10.00" fill="#000000">+ distance</text>
<text text-anchor="start" x="110.5" y="-307.5" font-family="Helvetica,sans-Serif" font-size="10.00" fill="#000000">&#45; lengthRatio</text>
<text text-anchor="start" x="110.5" y="-296.5" font-family="Helvetica,sans-Serif" font-size="10.00" fill="#000000">&#45; currentBezier</text>
<text text-anchor="start" x="110.5" y="-285.5" font-family="Helvetica,sans-Serif" font-size="10.00" fill="#000000">&#45; previousBezier</text>
<polyline fill="none" stroke="#000000" points="102.5,-278.5 193.5,-278.5 "/>
<text text-anchor="start" x="110.5" y="-266.5" font-family="Helvetica,sans-Serif" font-size="10.00" fill="#000000">+ LTBezierPath()</text>
<text text-anchor="start" x="110.5" y="-255.5" font-family="Helvetica,sans-Serif" font-size="10.00" fill="#000000">+ LTBezierPath()</text>
<text text-anchor="start" x="110.5" y="-244.5" font-family="Helvetica,sans-Serif" font-size="10.00" fill="#000000">+ setPoints()</text>
<text text-anchor="start" x="110.5" y="-233.5" font-family="Helvetica,sans-Serif" font-size="10.00" fill="#000000">+ point()</text>
<text text-anchor="start" x="110.5" y="-222.5" font-family="Helvetica,sans-Serif" font-size="10.00" fill="#000000">+ place2d()</text>
<text text-anchor="start" x="110.5" y="-211.5" font-family="Helvetica,sans-Serif" font-size="10.00" fill="#000000">+ placeLocal2d()</text>
<text text-anchor="start" x="110.5" y="-200.5" font-family="Helvetica,sans-Serif" font-size="10.00" fill="#000000">+ place()</text>
<text text-anchor="start" x="110.5" y="-189.5" font-family="Helvetica,sans-Serif" font-size="10.00" fill="#000000">+ place()</text>
<text text-anchor="start" x="110.5" y="-178.5" font-family="Helvetica,sans-Serif" font-size="10.00" fill="#000000">+ placeLocal()</text>
<text text-anchor="start" x="110.5" y="-167.5" font-family="Helvetica,sans-Serif" font-size="10.00" fill="#000000">+ placeLocal()</text>
<text text-anchor="start" x="110.5" y="-156.5" font-family="Helvetica,sans-Serif" font-size="10.00" fill="#000000">+ gizmoDraw()</text>
<text text-anchor="start" x="110.5" y="-145.5" font-family="Helvetica,sans-Serif" font-size="10.00" fill="#000000">+ ratioAtPoint()</text>
</a>
</g>
</g>
<!-- Node3&#45;&gt;Node1 -->
<g id="edge2" class="edge">
<title>Node3&#45;&gt;Node1</title>
<path fill="none" stroke="#404040" d="M102.4727,-154.458C95.0349,-136.2355 87.6163,-118.06 81.0299,-101.9232"/>
<polygon fill="none" stroke="#404040" points="80.9275,-101.6721 74.9567,-97.6286 76.3926,-90.5619 82.3634,-94.6054 80.9275,-101.6721"/>
<text text-anchor="middle" x="119.5" y="-112" font-family="Helvetica,sans-Serif" font-size="10.00" fill="#000000"> &#45;visualizePath</text>
</g>
<!-- Node4 -->
<g id="node4" class="node">
<title>Node4</title>
<g id="a_node4"><a xlink:href="class_l_t_bezier.html" target="_top" xlink:title=" ">
<polygon fill="#ffffff" stroke="#000000" points="109.5,-441.5 109.5,-597.5 186.5,-597.5 186.5,-441.5 109.5,-441.5"/>
<text text-anchor="middle" x="148" y="-585.5" font-family="Helvetica,sans-Serif" font-size="10.00" fill="#000000">LTBezier</text>
<polyline fill="none" stroke="#000000" points="109.5,-578.5 186.5,-578.5 "/>
<text text-anchor="start" x="117.5" y="-566.5" font-family="Helvetica,sans-Serif" font-size="10.00" fill="#000000">+ length</text>
<text text-anchor="start" x="117.5" y="-555.5" font-family="Helvetica,sans-Serif" font-size="10.00" fill="#000000">&#45; a</text>
<text text-anchor="start" x="117.5" y="-544.5" font-family="Helvetica,sans-Serif" font-size="10.00" fill="#000000">&#45; aa</text>
<text text-anchor="start" x="117.5" y="-533.5" font-family="Helvetica,sans-Serif" font-size="10.00" fill="#000000">&#45; bb</text>
<text text-anchor="start" x="117.5" y="-522.5" font-family="Helvetica,sans-Serif" font-size="10.00" fill="#000000">&#45; cc</text>
<text text-anchor="start" x="117.5" y="-511.5" font-family="Helvetica,sans-Serif" font-size="10.00" fill="#000000">&#45; len</text>
<text text-anchor="start" x="117.5" y="-500.5" font-family="Helvetica,sans-Serif" font-size="10.00" fill="#000000">&#45; arcLengths</text>
<polyline fill="none" stroke="#000000" points="109.5,-493.5 186.5,-493.5 "/>
<text text-anchor="start" x="117.5" y="-481.5" font-family="Helvetica,sans-Serif" font-size="10.00" fill="#000000">+ LTBezier()</text>
<text text-anchor="start" x="117.5" y="-470.5" font-family="Helvetica,sans-Serif" font-size="10.00" fill="#000000">+ point()</text>
<text text-anchor="start" x="117.5" y="-459.5" font-family="Helvetica,sans-Serif" font-size="10.00" fill="#000000">&#45; map()</text>
<text text-anchor="start" x="117.5" y="-448.5" font-family="Helvetica,sans-Serif" font-size="10.00" fill="#000000">&#45; bezierPoint()</text>
</a>
</g>
</g>
<!-- Node4&#45;&gt;Node3 -->
<g id="edge3" class="edge">
<title>Node4&#45;&gt;Node3</title>
<path fill="none" stroke="#404040" d="M148,-441.3732C148,-430.0259 148,-418.0659 148,-405.9431"/>
<polygon fill="none" stroke="#404040" points="148.0001,-405.7828 144,-399.7828 148,-393.7828 152,-399.7827 148.0001,-405.7828"/>
<text text-anchor="middle" x="167" y="-415" font-family="Helvetica,sans-Serif" font-size="10.00" fill="#000000"> &#45;beziers</text>
</g>
</g>
</svg>
