<?xml version="1.0" encoding="UTF-8" standalone="no"?>
<!DOCTYPE svg PUBLIC "-//W3C//DTD SVG 1.1//EN"
 "http://www.w3.org/Graphics/SVG/1.1/DTD/svg11.dtd">
<!-- Generated by graphviz version 2.40.1 (20161225.0304)
 -->
<!-- Title: TileMapCell Pages: 1 -->
<svg width="238pt" height="193pt"
 viewBox="0.00 0.00 238.00 193.00" xmlns="http://www.w3.org/2000/svg" xmlns:xlink="http://www.w3.org/1999/xlink">
<g id="graph0" class="graph" transform="scale(1 1) rotate(0) translate(4 189)">
<title>TileMapCell</title>
<!-- Node1 -->
<g id="node1" class="node">
<title>Node1</title>
<g id="a_node1"><a xlink:title=" ">
<polygon fill="#bfbfbf" stroke="#000000" points="85.5,-.5 85.5,-79.5 180.5,-79.5 180.5,-.5 85.5,-.5"/>
<text text-anchor="middle" x="133" y="-67.5" font-family="Helvetica,sans-Serif" font-size="10.00" fill="#000000">TileMapCell</text>
<polyline fill="none" stroke="#000000" points="85.5,-60.5 180.5,-60.5 "/>
<text text-anchor="start" x="93.5" y="-48.5" font-family="Helvetica,sans-Serif" font-size="10.00" fill="#000000">+ shape</text>
<text text-anchor="start" x="93.5" y="-37.5" font-family="Helvetica,sans-Serif" font-size="10.00" fill="#000000">+ IsMouseOver</text>
<polyline fill="none" stroke="#000000" points="85.5,-30.5 180.5,-30.5 "/>
<text text-anchor="start" x="93.5" y="-18.5" font-family="Helvetica,sans-Serif" font-size="10.00" fill="#000000">+ DropHere()</text>
<text text-anchor="start" x="93.5" y="-7.5" font-family="Helvetica,sans-Serif" font-size="10.00" fill="#000000">+ RemoveShape()</text>
</a>
</g>
</g>
<!-- Node2 -->
<g id="node2" class="node">
<title>Node2</title>
<g id="a_node2"><a xlink:href="class_mono_behaviour.html" target="_top" xlink:title=" ">
<polygon fill="none" stroke="#000000" points="0,-127.5 0,-184.5 84,-184.5 84,-127.5 0,-127.5"/>
<text text-anchor="middle" x="42" y="-172.5" font-family="Helvetica,sans-Serif" font-size="10.00" fill="#000000">MonoBehaviour</text>
<polyline fill="none" stroke="#000000" points="0,-165.5 84,-165.5 "/>
<text text-anchor="middle" x="42" y="-153.5" font-family="Helvetica,sans-Serif" font-size="10.00" fill="#000000"> </text>
<polyline fill="none" stroke="#000000" points="0,-146.5 84,-146.5 "/>
<text text-anchor="middle" x="42" y="-134.5" font-family="Helvetica,sans-Serif" font-size="10.00" fill="#000000"> </text>
</a>
</g>
</g>
<!-- Node2&#45;&gt;Node1 -->
<g id="edge1" class="edge">
<title>Node2&#45;&gt;Node1</title>
<path fill="none" stroke="#191970" d="M70.7894,-119.3014C80.6727,-106.703 91.7775,-92.5473 101.8401,-79.7203"/>
<polygon fill="none" stroke="#191970" points="67.9129,-117.2976 64.4944,-127.3258 73.4204,-121.6182 67.9129,-117.2976"/>
</g>
<!-- Node3 -->
<g id="node3" class="node">
<title>Node3</title>
<g id="a_node3"><a xlink:title=" ">
<polygon fill="none" stroke="#bfbfbf" points="102.5,-127.5 102.5,-184.5 163.5,-184.5 163.5,-127.5 102.5,-127.5"/>
<text text-anchor="middle" x="133" y="-172.5" font-family="Helvetica,sans-Serif" font-size="10.00" fill="#000000">Vector2Int</text>
<polyline fill="none" stroke="#bfbfbf" points="102.5,-165.5 163.5,-165.5 "/>
<text text-anchor="middle" x="133" y="-153.5" font-family="Helvetica,sans-Serif" font-size="10.00" fill="#000000"> </text>
<polyline fill="none" stroke="#bfbfbf" points="102.5,-146.5 163.5,-146.5 "/>
<text text-anchor="middle" x="133" y="-134.5" font-family="Helvetica,sans-Serif" font-size="10.00" fill="#000000"> </text>
</a>
</g>
</g>
<!-- Node3&#45;&gt;Node1 -->
<g id="edge2" class="edge">
<title>Node3&#45;&gt;Node1</title>
<path fill="none" stroke="#404040" d="M133,-127.3258C133,-116.5576 133,-103.9593 133,-91.7364"/>
<polygon fill="none" stroke="#404040" points="133.0001,-91.7203 129,-85.7203 133,-79.7203 137,-85.7203 133.0001,-91.7203"/>
<text text-anchor="middle" x="155.5" y="-101" font-family="Helvetica,sans-Serif" font-size="10.00" fill="#000000"> +Position</text>
</g>
<!-- Node4 -->
<g id="node4" class="node">
<title>Node4</title>
<g id="a_node4"><a xlink:title=" ">
<polygon fill="none" stroke="#bfbfbf" points="183.5,-127.5 183.5,-184.5 218.5,-184.5 218.5,-127.5 183.5,-127.5"/>
<text text-anchor="middle" x="201" y="-172.5" font-family="Helvetica,sans-Serif" font-size="10.00" fill="#000000">bool</text>
<polyline fill="none" stroke="#bfbfbf" points="183.5,-165.5 218.5,-165.5 "/>
<text text-anchor="middle" x="201" y="-153.5" font-family="Helvetica,sans-Serif" font-size="10.00" fill="#000000"> </text>
<polyline fill="none" stroke="#bfbfbf" points="183.5,-146.5 218.5,-146.5 "/>
<text text-anchor="middle" x="201" y="-134.5" font-family="Helvetica,sans-Serif" font-size="10.00" fill="#000000"> </text>
</a>
</g>
</g>
<!-- Node4&#45;&gt;Node1 -->
<g id="edge3" class="edge">
<title>Node4&#45;&gt;Node1</title>
<path fill="none" stroke="#404040" d="M192.1601,-127.4787C188.658,-117.8277 184.2123,-107.1772 179,-98 177.4182,-95.2149 175.7084,-92.4224 173.9105,-89.6504"/>
<polygon fill="none" stroke="#404040" points="173.8975,-89.6315 167.1987,-86.962 167.0864,-79.7517 173.7852,-82.4212 173.8975,-89.6315"/>
<text text-anchor="middle" x="207" y="-101" font-family="Helvetica,sans-Serif" font-size="10.00" fill="#000000"> +IsEmpty</text>
</g>
</g>
</svg>
