<?xml version="1.0" encoding="UTF-8" standalone="no"?>
<!DOCTYPE svg PUBLIC "-//W3C//DTD SVG 1.1//EN"
 "http://www.w3.org/Graphics/SVG/1.1/DTD/svg11.dtd">
<!-- Generated by graphviz version 2.40.1 (20161225.0304)
 -->
<!-- Title: OldGUIExamplesCS Pages: 1 -->
<svg width="280pt" height="849pt"
 viewBox="0.00 0.00 280.00 849.00" xmlns="http://www.w3.org/2000/svg" xmlns:xlink="http://www.w3.org/1999/xlink">
<g id="graph0" class="graph" transform="scale(1 1) rotate(0) translate(4 845)">
<title>OldGUIExamplesCS</title>
<polygon fill="#ffffff" stroke="transparent" points="-4,4 -4,-845 276,-845 276,4 -4,4"/>
<!-- Node1 -->
<g id="node1" class="node">
<title>Node1</title>
<g id="a_node1"><a xlink:title=" ">
<polygon fill="#bfbfbf" stroke="#000000" points="2,-77.5 2,-189.5 108,-189.5 108,-77.5 2,-77.5"/>
<text text-anchor="middle" x="55" y="-177.5" font-family="Helvetica,sans-Serif" font-size="10.00" fill="#000000">OldGUIExamplesCS</text>
<polyline fill="none" stroke="#000000" points="2,-170.5 108,-170.5 "/>
<text text-anchor="start" x="10" y="-158.5" font-family="Helvetica,sans-Serif" font-size="10.00" fill="#000000">+ grumpy</text>
<text text-anchor="start" x="10" y="-147.5" font-family="Helvetica,sans-Serif" font-size="10.00" fill="#000000">+ beauty</text>
<text text-anchor="start" x="10" y="-136.5" font-family="Helvetica,sans-Serif" font-size="10.00" fill="#000000">&#45; w</text>
<text text-anchor="start" x="10" y="-125.5" font-family="Helvetica,sans-Serif" font-size="10.00" fill="#000000">&#45; h</text>
<polyline fill="none" stroke="#000000" points="2,-118.5 108,-118.5 "/>
<text text-anchor="start" x="10" y="-106.5" font-family="Helvetica,sans-Serif" font-size="10.00" fill="#000000">+ catMoved()</text>
<text text-anchor="start" x="10" y="-95.5" font-family="Helvetica,sans-Serif" font-size="10.00" fill="#000000">&#45; Start()</text>
<text text-anchor="start" x="10" y="-84.5" font-family="Helvetica,sans-Serif" font-size="10.00" fill="#000000">&#45; OnGUI()</text>
</a>
</g>
</g>
<!-- Node2 -->
<g id="node2" class="node">
<title>Node2</title>
<g id="a_node2"><a xlink:title=" ">
<polygon fill="#ffffff" stroke="#bfbfbf" points="0,-529 0,-586 84,-586 84,-529 0,-529"/>
<text text-anchor="middle" x="42" y="-574" font-family="Helvetica,sans-Serif" font-size="10.00" fill="#000000">MonoBehaviour</text>
<polyline fill="none" stroke="#bfbfbf" points="0,-567 84,-567 "/>
<text text-anchor="middle" x="42" y="-555" font-family="Helvetica,sans-Serif" font-size="10.00" fill="#000000"> </text>
<polyline fill="none" stroke="#bfbfbf" points="0,-548 84,-548 "/>
<text text-anchor="middle" x="42" y="-536" font-family="Helvetica,sans-Serif" font-size="10.00" fill="#000000"> </text>
</a>
</g>
</g>
<!-- Node2&#45;&gt;Node1 -->
<g id="edge1" class="edge">
<title>Node2&#45;&gt;Node1</title>
<path fill="none" stroke="#191970" d="M43.1902,-518.6819C45.4998,-443.3523 50.5975,-277.0894 53.2771,-189.6936"/>
<polygon fill="none" stroke="#191970" points="39.6915,-518.5875 42.8833,-528.6901 46.6882,-518.8021 39.6915,-518.5875"/>
</g>
<!-- Node3 -->
<g id="node3" class="node">
<title>Node3</title>
<g id="a_node3"><a xlink:href="class_l_t_rect.html" target="_top" xlink:title=" ">
<polygon fill="#ffffff" stroke="#000000" points="114.5,-369.5 114.5,-745.5 225.5,-745.5 225.5,-369.5 114.5,-369.5"/>
<text text-anchor="middle" x="170" y="-733.5" font-family="Helvetica,sans-Serif" font-size="10.00" fill="#000000">LTRect</text>
<polyline fill="none" stroke="#000000" points="114.5,-726.5 225.5,-726.5 "/>
<text text-anchor="start" x="122.5" y="-714.5" font-family="Helvetica,sans-Serif" font-size="10.00" fill="#000000">+ _rect</text>
<text text-anchor="start" x="122.5" y="-703.5" font-family="Helvetica,sans-Serif" font-size="10.00" fill="#000000">+ alpha</text>
<text text-anchor="start" x="122.5" y="-692.5" font-family="Helvetica,sans-Serif" font-size="10.00" fill="#000000">+ rotation</text>
<text text-anchor="start" x="122.5" y="-681.5" font-family="Helvetica,sans-Serif" font-size="10.00" fill="#000000">+ pivot</text>
<text text-anchor="start" x="122.5" y="-670.5" font-family="Helvetica,sans-Serif" font-size="10.00" fill="#000000">+ margin</text>
<text text-anchor="start" x="122.5" y="-659.5" font-family="Helvetica,sans-Serif" font-size="10.00" fill="#000000">+ relativeRect</text>
<text text-anchor="start" x="122.5" y="-648.5" font-family="Helvetica,sans-Serif" font-size="10.00" fill="#000000">+ rotateEnabled</text>
<text text-anchor="start" x="122.5" y="-637.5" font-family="Helvetica,sans-Serif" font-size="10.00" fill="#000000">+ rotateFinished</text>
<text text-anchor="start" x="122.5" y="-626.5" font-family="Helvetica,sans-Serif" font-size="10.00" fill="#000000">+ alphaEnabled</text>
<text text-anchor="start" x="122.5" y="-615.5" font-family="Helvetica,sans-Serif" font-size="10.00" fill="#000000">+ labelStr</text>
<text text-anchor="start" x="122.5" y="-604.5" font-family="Helvetica,sans-Serif" font-size="10.00" fill="#000000">и 8 больше...</text>
<text text-anchor="start" x="122.5" y="-593.5" font-family="Helvetica,sans-Serif" font-size="10.00" fill="#000000">+ colorTouched</text>
<text text-anchor="start" x="122.5" y="-582.5" font-family="Helvetica,sans-Serif" font-size="10.00" fill="#000000">+ hasInitiliazed</text>
<text text-anchor="start" x="122.5" y="-571.5" font-family="Helvetica,sans-Serif" font-size="10.00" fill="#000000">+ id</text>
<text text-anchor="start" x="122.5" y="-560.5" font-family="Helvetica,sans-Serif" font-size="10.00" fill="#000000">+ x</text>
<text text-anchor="start" x="122.5" y="-549.5" font-family="Helvetica,sans-Serif" font-size="10.00" fill="#000000">+ y</text>
<text text-anchor="start" x="122.5" y="-538.5" font-family="Helvetica,sans-Serif" font-size="10.00" fill="#000000">+ width</text>
<text text-anchor="start" x="122.5" y="-527.5" font-family="Helvetica,sans-Serif" font-size="10.00" fill="#000000">+ height</text>
<text text-anchor="start" x="122.5" y="-516.5" font-family="Helvetica,sans-Serif" font-size="10.00" fill="#000000">+ rect</text>
<text text-anchor="start" x="122.5" y="-505.5" font-family="Helvetica,sans-Serif" font-size="10.00" fill="#000000">&#45; _id</text>
<polyline fill="none" stroke="#000000" points="114.5,-498.5 225.5,-498.5 "/>
<text text-anchor="start" x="122.5" y="-486.5" font-family="Helvetica,sans-Serif" font-size="10.00" fill="#000000">+ LTRect()</text>
<text text-anchor="start" x="122.5" y="-475.5" font-family="Helvetica,sans-Serif" font-size="10.00" fill="#000000">+ LTRect()</text>
<text text-anchor="start" x="122.5" y="-464.5" font-family="Helvetica,sans-Serif" font-size="10.00" fill="#000000">+ LTRect()</text>
<text text-anchor="start" x="122.5" y="-453.5" font-family="Helvetica,sans-Serif" font-size="10.00" fill="#000000">+ LTRect()</text>
<text text-anchor="start" x="122.5" y="-442.5" font-family="Helvetica,sans-Serif" font-size="10.00" fill="#000000">+ LTRect()</text>
<text text-anchor="start" x="122.5" y="-431.5" font-family="Helvetica,sans-Serif" font-size="10.00" fill="#000000">+ setId()</text>
<text text-anchor="start" x="122.5" y="-420.5" font-family="Helvetica,sans-Serif" font-size="10.00" fill="#000000">+ reset()</text>
<text text-anchor="start" x="122.5" y="-409.5" font-family="Helvetica,sans-Serif" font-size="10.00" fill="#000000">+ resetForRotation()</text>
<text text-anchor="start" x="122.5" y="-398.5" font-family="Helvetica,sans-Serif" font-size="10.00" fill="#000000">+ setStyle()</text>
<text text-anchor="start" x="122.5" y="-387.5" font-family="Helvetica,sans-Serif" font-size="10.00" fill="#000000">+ setFontScaleToFit()</text>
<text text-anchor="start" x="122.5" y="-376.5" font-family="Helvetica,sans-Serif" font-size="10.00" fill="#000000">и 7 больше...</text>
</a>
</g>
</g>
<!-- Node3&#45;&gt;Node1 -->
<g id="edge2" class="edge">
<title>Node3&#45;&gt;Node1</title>
<path fill="none" stroke="#404040" d="M114.4473,-420.1125C107.3086,-402.8711 100.0361,-385.5032 93,-369 89.5665,-360.9468 87.3995,-359.4193 85,-351 71.0869,-302.1831 63.5308,-245.2997 59.4828,-201.9515"/>
<polygon fill="none" stroke="#404040" points="59.4668,-201.77 54.9529,-196.1465 58.4078,-189.8169 62.9217,-195.4405 59.4668,-201.77"/>
<text text-anchor="middle" x="121" y="-343" font-family="Helvetica,sans-Serif" font-size="10.00" fill="#000000"> &#45;beautyTileRect</text>
<text text-anchor="middle" x="121" y="-332" font-family="Helvetica,sans-Serif" font-size="10.00" fill="#000000">&#45;grumpyRect</text>
<text text-anchor="middle" x="121" y="-321" font-family="Helvetica,sans-Serif" font-size="10.00" fill="#000000">&#45;buttonRect1</text>
<text text-anchor="middle" x="121" y="-310" font-family="Helvetica,sans-Serif" font-size="10.00" fill="#000000">&#45;buttonRect2</text>
<text text-anchor="middle" x="121" y="-299" font-family="Helvetica,sans-Serif" font-size="10.00" fill="#000000">&#45;buttonRect3</text>
<text text-anchor="middle" x="121" y="-288" font-family="Helvetica,sans-Serif" font-size="10.00" fill="#000000">&#45;buttonRect4</text>
</g>
<!-- Node5 -->
<g id="node5" class="node">
<title>Node5</title>
<g id="a_node5"><a xlink:href="class_l_t_g_u_i.html" target="_top" xlink:title=" ">
<polygon fill="#ffffff" stroke="#000000" points="152,-.5 152,-266.5 272,-266.5 272,-.5 152,-.5"/>
<text text-anchor="middle" x="212" y="-254.5" font-family="Helvetica,sans-Serif" font-size="10.00" fill="#000000">LTGUI</text>
<polyline fill="none" stroke="#000000" points="152,-247.5 272,-247.5 "/>
<text text-anchor="start" x="160" y="-235.5" font-family="Helvetica,sans-Serif" font-size="10.00" fill="#000000">+ RECT_LEVELS</text>
<text text-anchor="start" x="160" y="-224.5" font-family="Helvetica,sans-Serif" font-size="10.00" fill="#000000">+ RECTS_PER_LEVEL</text>
<text text-anchor="start" x="160" y="-213.5" font-family="Helvetica,sans-Serif" font-size="10.00" fill="#000000">+ BUTTONS_MAX</text>
<text text-anchor="start" x="160" y="-202.5" font-family="Helvetica,sans-Serif" font-size="10.00" fill="#000000">&#45; levelDepths</text>
<text text-anchor="start" x="160" y="-191.5" font-family="Helvetica,sans-Serif" font-size="10.00" fill="#000000">&#45; buttons</text>
<text text-anchor="start" x="160" y="-180.5" font-family="Helvetica,sans-Serif" font-size="10.00" fill="#000000">&#45; buttonLevels</text>
<text text-anchor="start" x="160" y="-169.5" font-family="Helvetica,sans-Serif" font-size="10.00" fill="#000000">&#45; buttonLastFrame</text>
<text text-anchor="start" x="160" y="-158.5" font-family="Helvetica,sans-Serif" font-size="10.00" fill="#000000">&#45; color</text>
<text text-anchor="start" x="160" y="-147.5" font-family="Helvetica,sans-Serif" font-size="10.00" fill="#000000">&#45; isGUIEnabled</text>
<text text-anchor="start" x="160" y="-136.5" font-family="Helvetica,sans-Serif" font-size="10.00" fill="#000000">&#45; global_counter</text>
<polyline fill="none" stroke="#000000" points="152,-129.5 272,-129.5 "/>
<text text-anchor="start" x="160" y="-117.5" font-family="Helvetica,sans-Serif" font-size="10.00" fill="#000000">+ init()</text>
<text text-anchor="start" x="160" y="-106.5" font-family="Helvetica,sans-Serif" font-size="10.00" fill="#000000">+ initRectCheck()</text>
<text text-anchor="start" x="160" y="-95.5" font-family="Helvetica,sans-Serif" font-size="10.00" fill="#000000">+ reset()</text>
<text text-anchor="start" x="160" y="-84.5" font-family="Helvetica,sans-Serif" font-size="10.00" fill="#000000">+ update()</text>
<text text-anchor="start" x="160" y="-73.5" font-family="Helvetica,sans-Serif" font-size="10.00" fill="#000000">+ checkOnScreen()</text>
<text text-anchor="start" x="160" y="-62.5" font-family="Helvetica,sans-Serif" font-size="10.00" fill="#000000">+ destroy()</text>
<text text-anchor="start" x="160" y="-51.5" font-family="Helvetica,sans-Serif" font-size="10.00" fill="#000000">+ destroyAll()</text>
<text text-anchor="start" x="160" y="-40.5" font-family="Helvetica,sans-Serif" font-size="10.00" fill="#000000">+ label()</text>
<text text-anchor="start" x="160" y="-29.5" font-family="Helvetica,sans-Serif" font-size="10.00" fill="#000000">+ label()</text>
<text text-anchor="start" x="160" y="-18.5" font-family="Helvetica,sans-Serif" font-size="10.00" fill="#000000">+ texture()</text>
<text text-anchor="start" x="160" y="-7.5" font-family="Helvetica,sans-Serif" font-size="10.00" fill="#000000">и 6 больше...</text>
</a>
</g>
</g>
<!-- Node3&#45;&gt;Node5 -->
<g id="edge5" class="edge">
<title>Node3&#45;&gt;Node5</title>
<path fill="none" stroke="#404040" d="M160.3075,-369.3582C161.0473,-340.9937 163.0522,-312.1554 167,-285 167.2985,-282.9466 167.6187,-280.8823 167.9589,-278.8096"/>
<polygon fill="none" stroke="#404040" points="167.9837,-278.6718 165.1138,-272.0564 170.1166,-266.8629 172.9865,-273.4783 167.9837,-278.6718"/>
<text text-anchor="middle" x="183" y="-321" font-family="Helvetica,sans-Serif" font-size="10.00" fill="#000000"> &#45;levels</text>
<text text-anchor="middle" x="183" y="-310" font-family="Helvetica,sans-Serif" font-size="10.00" fill="#000000">&#45;r</text>
</g>
<!-- Node4 -->
<g id="node4" class="node">
<title>Node4</title>
<g id="a_node4"><a xlink:title=" ">
<polygon fill="#ffffff" stroke="#bfbfbf" points="127.5,-783.5 127.5,-840.5 212.5,-840.5 212.5,-783.5 127.5,-783.5"/>
<text text-anchor="middle" x="170" y="-828.5" font-family="Helvetica,sans-Serif" font-size="10.00" fill="#000000">System::Object</text>
<polyline fill="none" stroke="#bfbfbf" points="127.5,-821.5 212.5,-821.5 "/>
<text text-anchor="middle" x="170" y="-809.5" font-family="Helvetica,sans-Serif" font-size="10.00" fill="#000000"> </text>
<polyline fill="none" stroke="#bfbfbf" points="127.5,-802.5 212.5,-802.5 "/>
<text text-anchor="middle" x="170" y="-790.5" font-family="Helvetica,sans-Serif" font-size="10.00" fill="#000000"> </text>
</a>
</g>
</g>
<!-- Node4&#45;&gt;Node3 -->
<g id="edge3" class="edge">
<title>Node4&#45;&gt;Node3</title>
<path fill="none" stroke="#191970" d="M170,-773.0577C170,-764.8177 170,-755.6033 170,-745.7495"/>
<polygon fill="none" stroke="#191970" points="166.5001,-773.3003 170,-783.3003 173.5001,-773.3004 166.5001,-773.3003"/>
</g>
<!-- Node5&#45;&gt;Node3 -->
<g id="edge4" class="edge">
<title>Node5&#45;&gt;Node3</title>
<path fill="none" stroke="#404040" d="M208.9693,-266.5243C207.6398,-294.4714 205.733,-323.7369 203,-351 202.7915,-353.08 202.5757,-355.1709 202.353,-357.2711"/>
<polygon fill="none" stroke="#404040" points="202.3315,-357.4648 205.6439,-363.8701 201.0053,-369.3913 197.6929,-362.986 202.3315,-357.4648"/>
<text text-anchor="middle" x="221" y="-315.5" font-family="Helvetica,sans-Serif" font-size="10.00" fill="#000000"> +type</text>
</g>
</g>
</svg>
