<?xml version="1.0" encoding="UTF-8" standalone="no"?>
<!DOCTYPE svg PUBLIC "-//W3C//DTD SVG 1.1//EN"
 "http://www.w3.org/Graphics/SVG/1.1/DTD/svg11.dtd">
<!-- Generated by graphviz version 2.40.1 (20161225.0304)
 -->
<!-- Title: BaseShape Pages: 1 -->
<svg width="453pt" height="342pt"
 viewBox="0.00 0.00 452.50 342.00" xmlns="http://www.w3.org/2000/svg" xmlns:xlink="http://www.w3.org/1999/xlink">
<g id="graph0" class="graph" transform="scale(1 1) rotate(0) translate(4 338)">
<title>BaseShape</title>
<!-- Node1 -->
<g id="node1" class="node">
<title>Node1</title>
<g id="a_node1"><a xlink:title=" ">
<polygon fill="#bfbfbf" stroke="#000000" points="176.5,-.5 176.5,-57.5 243.5,-57.5 243.5,-.5 176.5,-.5"/>
<text text-anchor="middle" x="210" y="-45.5" font-family="Helvetica,sans-Serif" font-size="10.00" fill="#000000">BaseShape</text>
<polyline fill="none" stroke="#000000" points="176.5,-38.5 243.5,-38.5 "/>
<text text-anchor="start" x="184.5" y="-26.5" font-family="Helvetica,sans-Serif" font-size="10.00" fill="#000000">+ Type</text>
<polyline fill="none" stroke="#000000" points="176.5,-19.5 243.5,-19.5 "/>
<text text-anchor="start" x="184.5" y="-7.5" font-family="Helvetica,sans-Serif" font-size="10.00" fill="#000000">+ Destroy()</text>
</a>
</g>
</g>
<!-- Node2 -->
<g id="node2" class="node">
<title>Node2</title>
<g id="a_node2"><a xlink:href="class_shape.html" target="_top" xlink:title=" ">
<polygon fill="none" stroke="#000000" points="153.5,-94.5 153.5,-217.5 266.5,-217.5 266.5,-94.5 153.5,-94.5"/>
<text text-anchor="middle" x="210" y="-205.5" font-family="Helvetica,sans-Serif" font-size="10.00" fill="#000000">Shape</text>
<polyline fill="none" stroke="#000000" points="153.5,-198.5 266.5,-198.5 "/>
<text text-anchor="start" x="161.5" y="-186.5" font-family="Helvetica,sans-Serif" font-size="10.00" fill="#000000">+ ClosestNeighbors</text>
<text text-anchor="start" x="161.5" y="-175.5" font-family="Helvetica,sans-Serif" font-size="10.00" fill="#000000">+ Neighbors</text>
<text text-anchor="start" x="161.5" y="-164.5" font-family="Helvetica,sans-Serif" font-size="10.00" fill="#000000">+ Position</text>
<text text-anchor="start" x="161.5" y="-153.5" font-family="Helvetica,sans-Serif" font-size="10.00" fill="#000000">+ IsDragging</text>
<text text-anchor="start" x="161.5" y="-142.5" font-family="Helvetica,sans-Serif" font-size="10.00" fill="#000000">+ CanBeDragged</text>
<polyline fill="none" stroke="#000000" points="153.5,-135.5 266.5,-135.5 "/>
<text text-anchor="start" x="161.5" y="-123.5" font-family="Helvetica,sans-Serif" font-size="10.00" fill="#000000">+ Trigger()</text>
<text text-anchor="start" x="161.5" y="-112.5" font-family="Helvetica,sans-Serif" font-size="10.00" fill="#000000">+ MakeTriggerAction()</text>
<text text-anchor="start" x="161.5" y="-101.5" font-family="Helvetica,sans-Serif" font-size="10.00" fill="#000000">+ Destroy()</text>
</a>
</g>
</g>
<!-- Node2&#45;&gt;Node1 -->
<g id="edge1" class="edge">
<title>Node2&#45;&gt;Node1</title>
<path fill="none" stroke="#191970" d="M210,-84.1046C210,-74.707 210,-65.5591 210,-57.5038"/>
<polygon fill="none" stroke="#191970" points="206.5001,-84.3601 210,-94.3601 213.5001,-84.3601 206.5001,-84.3601"/>
</g>
<!-- Node3 -->
<g id="node3" class="node">
<title>Node3</title>
<g id="a_node3"><a xlink:href="class_mono_behaviour.html" target="_top" xlink:title=" ">
<polygon fill="none" stroke="#000000" points="0,-265.5 0,-322.5 84,-322.5 84,-265.5 0,-265.5"/>
<text text-anchor="middle" x="42" y="-310.5" font-family="Helvetica,sans-Serif" font-size="10.00" fill="#000000">MonoBehaviour</text>
<polyline fill="none" stroke="#000000" points="0,-303.5 84,-303.5 "/>
<text text-anchor="middle" x="42" y="-291.5" font-family="Helvetica,sans-Serif" font-size="10.00" fill="#000000"> </text>
<polyline fill="none" stroke="#000000" points="0,-284.5 84,-284.5 "/>
<text text-anchor="middle" x="42" y="-272.5" font-family="Helvetica,sans-Serif" font-size="10.00" fill="#000000"> </text>
</a>
</g>
</g>
<!-- Node3&#45;&gt;Node2 -->
<g id="edge2" class="edge">
<title>Node3&#45;&gt;Node2</title>
<path fill="none" stroke="#191970" d="M84.5765,-259.0264C105.4649,-241.8681 130.912,-220.9652 153.4119,-202.4831"/>
<polygon fill="none" stroke="#191970" points="82.3154,-256.3543 76.8097,-265.4063 86.7586,-261.7634 82.3154,-256.3543"/>
</g>
<!-- Node4 -->
<g id="node4" class="node">
<title>Node4</title>
<g id="a_node4"><a xlink:href="interface_i_shape.html" target="_top" xlink:title=" ">
<polygon fill="none" stroke="#000000" points="102,-254.5 102,-333.5 204,-333.5 204,-254.5 102,-254.5"/>
<text text-anchor="middle" x="153" y="-321.5" font-family="Helvetica,sans-Serif" font-size="10.00" fill="#000000">IShape</text>
<polyline fill="none" stroke="#000000" points="102,-314.5 204,-314.5 "/>
<text text-anchor="start" x="110" y="-302.5" font-family="Helvetica,sans-Serif" font-size="10.00" fill="#000000">+ Position</text>
<text text-anchor="start" x="110" y="-291.5" font-family="Helvetica,sans-Serif" font-size="10.00" fill="#000000">+ ClosestNeighbors</text>
<text text-anchor="start" x="110" y="-280.5" font-family="Helvetica,sans-Serif" font-size="10.00" fill="#000000">+ Neighbors</text>
<polyline fill="none" stroke="#000000" points="102,-273.5 204,-273.5 "/>
<text text-anchor="middle" x="153" y="-261.5" font-family="Helvetica,sans-Serif" font-size="10.00" fill="#000000"> </text>
</a>
</g>
</g>
<!-- Node4&#45;&gt;Node2 -->
<g id="edge3" class="edge">
<title>Node4&#45;&gt;Node2</title>
<path fill="none" stroke="#191970" d="M173.2129,-245.0635C176.8716,-236.2055 180.73,-226.8643 184.5165,-217.6969"/>
<polygon fill="none" stroke="#191970" points="169.9167,-243.8759 169.3339,-254.4547 176.3865,-246.5483 169.9167,-243.8759"/>
</g>
<!-- Node5 -->
<g id="node5" class="node">
<title>Node5</title>
<g id="a_node5"><a xlink:href="interface_i_draggable.html" target="_top" xlink:title=" ">
<polygon fill="none" stroke="#000000" points="222.5,-260 222.5,-328 313.5,-328 313.5,-260 222.5,-260"/>
<text text-anchor="middle" x="268" y="-316" font-family="Helvetica,sans-Serif" font-size="10.00" fill="#000000">IDraggable</text>
<polyline fill="none" stroke="#000000" points="222.5,-309 313.5,-309 "/>
<text text-anchor="start" x="230.5" y="-297" font-family="Helvetica,sans-Serif" font-size="10.00" fill="#000000">+ CanBeDragged</text>
<text text-anchor="start" x="230.5" y="-286" font-family="Helvetica,sans-Serif" font-size="10.00" fill="#000000">+ IsDragging</text>
<polyline fill="none" stroke="#000000" points="222.5,-279 313.5,-279 "/>
<text text-anchor="middle" x="268" y="-267" font-family="Helvetica,sans-Serif" font-size="10.00" fill="#000000"> </text>
</a>
</g>
</g>
<!-- Node5&#45;&gt;Node2 -->
<g id="edge4" class="edge">
<title>Node5&#45;&gt;Node2</title>
<path fill="none" stroke="#191970" d="M249.7532,-250.5852C245.3634,-240.1406 240.5907,-228.7848 235.9253,-217.6844"/>
<polygon fill="none" stroke="#191970" points="246.5617,-252.0249 253.6629,-259.8876 253.0149,-249.3126 246.5617,-252.0249"/>
</g>
<!-- Node6 -->
<g id="node6" class="node">
<title>Node6</title>
<g id="a_node6"><a xlink:href="interface_i_triggerable.html" target="_top" xlink:title=" ">
<polygon fill="none" stroke="#000000" points="331.5,-260 331.5,-328 444.5,-328 444.5,-260 331.5,-260"/>
<text text-anchor="middle" x="388" y="-316" font-family="Helvetica,sans-Serif" font-size="10.00" fill="#000000">ITriggerable</text>
<polyline fill="none" stroke="#000000" points="331.5,-309 444.5,-309 "/>
<text text-anchor="middle" x="388" y="-297" font-family="Helvetica,sans-Serif" font-size="10.00" fill="#000000"> </text>
<polyline fill="none" stroke="#000000" points="331.5,-290 444.5,-290 "/>
<text text-anchor="start" x="339.5" y="-278" font-family="Helvetica,sans-Serif" font-size="10.00" fill="#000000">+ Trigger()</text>
<text text-anchor="start" x="339.5" y="-267" font-family="Helvetica,sans-Serif" font-size="10.00" fill="#000000">+ MakeTriggerAction()</text>
</a>
</g>
</g>
<!-- Node6&#45;&gt;Node2 -->
<g id="edge5" class="edge">
<title>Node6&#45;&gt;Node2</title>
<path fill="none" stroke="#191970" d="M335.8555,-253.5734C314.1134,-236.7172 288.8073,-217.0978 266.6127,-199.8907"/>
<polygon fill="none" stroke="#191970" points="333.9524,-256.5266 344,-259.8876 338.2414,-250.9944 333.9524,-256.5266"/>
</g>
</g>
</svg>
