<?xml version="1.0" encoding="UTF-8" standalone="no"?>
<!DOCTYPE svg PUBLIC "-//W3C//DTD SVG 1.1//EN"
 "http://www.w3.org/Graphics/SVG/1.1/DTD/svg11.dtd">
<!-- Generated by graphviz version 2.40.1 (20161225.0304)
 -->
<!-- Title: TransistorShape Pages: 1 -->
<svg width="549pt" height="419pt"
 viewBox="0.00 0.00 549.00 419.00" xmlns="http://www.w3.org/2000/svg" xmlns:xlink="http://www.w3.org/1999/xlink">
<g id="graph0" class="graph" transform="scale(1 1) rotate(0) translate(4 415)">
<title>TransistorShape</title>
<!-- Node1 -->
<g id="node1" class="node">
<title>Node1</title>
<g id="a_node1"><a xlink:title=" ">
<polygon fill="#bfbfbf" stroke="#000000" points="293.5,-.5 293.5,-123.5 426.5,-123.5 426.5,-.5 293.5,-.5"/>
<text text-anchor="middle" x="360" y="-111.5" font-family="Helvetica,sans-Serif" font-size="10.00" fill="#000000">TransistorShape</text>
<polyline fill="none" stroke="#000000" points="293.5,-104.5 426.5,-104.5 "/>
<text text-anchor="start" x="301.5" y="-92.5" font-family="Helvetica,sans-Serif" font-size="10.00" fill="#000000">+ InputType</text>
<text text-anchor="start" x="301.5" y="-81.5" font-family="Helvetica,sans-Serif" font-size="10.00" fill="#000000">+ OutputType</text>
<polyline fill="none" stroke="#000000" points="293.5,-74.5 426.5,-74.5 "/>
<text text-anchor="start" x="301.5" y="-62.5" font-family="Helvetica,sans-Serif" font-size="10.00" fill="#000000">+ SetupIOTypes()</text>
<text text-anchor="start" x="301.5" y="-51.5" font-family="Helvetica,sans-Serif" font-size="10.00" fill="#000000">+ SetAbsorbed()</text>
<text text-anchor="start" x="301.5" y="-40.5" font-family="Helvetica,sans-Serif" font-size="10.00" fill="#000000">+ CanAbsorp()</text>
<text text-anchor="start" x="301.5" y="-29.5" font-family="Helvetica,sans-Serif" font-size="10.00" fill="#000000">+ CanAbsorpToExplosion()</text>
<text text-anchor="start" x="301.5" y="-18.5" font-family="Helvetica,sans-Serif" font-size="10.00" fill="#000000">+ Trigger()</text>
<text text-anchor="start" x="301.5" y="-7.5" font-family="Helvetica,sans-Serif" font-size="10.00" fill="#000000">+ MakeTriggerAction()</text>
</a>
</g>
</g>
<!-- Node2 -->
<g id="node2" class="node">
<title>Node2</title>
<g id="a_node2"><a xlink:href="class_shape.html" target="_top" xlink:title=" ">
<polygon fill="none" stroke="#000000" points="211.5,-171.5 211.5,-272.5 324.5,-272.5 324.5,-171.5 211.5,-171.5"/>
<text text-anchor="middle" x="268" y="-260.5" font-family="Helvetica,sans-Serif" font-size="10.00" fill="#000000">Shape</text>
<polyline fill="none" stroke="#000000" points="211.5,-253.5 324.5,-253.5 "/>
<text text-anchor="start" x="219.5" y="-241.5" font-family="Helvetica,sans-Serif" font-size="10.00" fill="#000000">+ Position</text>
<text text-anchor="start" x="219.5" y="-230.5" font-family="Helvetica,sans-Serif" font-size="10.00" fill="#000000">+ IsDragging</text>
<text text-anchor="start" x="219.5" y="-219.5" font-family="Helvetica,sans-Serif" font-size="10.00" fill="#000000">+ CanBeDragged</text>
<polyline fill="none" stroke="#000000" points="211.5,-212.5 324.5,-212.5 "/>
<text text-anchor="start" x="219.5" y="-200.5" font-family="Helvetica,sans-Serif" font-size="10.00" fill="#000000">+ Trigger()</text>
<text text-anchor="start" x="219.5" y="-189.5" font-family="Helvetica,sans-Serif" font-size="10.00" fill="#000000">+ MakeTriggerAction()</text>
<text text-anchor="start" x="219.5" y="-178.5" font-family="Helvetica,sans-Serif" font-size="10.00" fill="#000000">+ Destroy()</text>
</a>
</g>
</g>
<!-- Node2&#45;&gt;Node1 -->
<g id="edge1" class="edge">
<title>Node2&#45;&gt;Node1</title>
<path fill="none" stroke="#191970" d="M302.1144,-162.6706C309.4586,-149.898 317.2368,-136.3708 324.6278,-123.5169"/>
<polygon fill="none" stroke="#191970" points="299.06,-160.9613 297.1094,-171.375 305.1283,-164.4506 299.06,-160.9613"/>
</g>
<!-- Node3 -->
<g id="node3" class="node">
<title>Node3</title>
<g id="a_node3"><a xlink:href="class_mono_behaviour.html" target="_top" xlink:title=" ">
<polygon fill="none" stroke="#000000" points="0,-342.5 0,-399.5 84,-399.5 84,-342.5 0,-342.5"/>
<text text-anchor="middle" x="42" y="-387.5" font-family="Helvetica,sans-Serif" font-size="10.00" fill="#000000">MonoBehaviour</text>
<polyline fill="none" stroke="#000000" points="0,-380.5 84,-380.5 "/>
<text text-anchor="middle" x="42" y="-368.5" font-family="Helvetica,sans-Serif" font-size="10.00" fill="#000000"> </text>
<polyline fill="none" stroke="#000000" points="0,-361.5 84,-361.5 "/>
<text text-anchor="middle" x="42" y="-349.5" font-family="Helvetica,sans-Serif" font-size="10.00" fill="#000000"> </text>
</a>
</g>
</g>
<!-- Node3&#45;&gt;Node2 -->
<g id="edge2" class="edge">
<title>Node3&#45;&gt;Node2</title>
<path fill="none" stroke="#191970" d="M85.7877,-336.1737C88.2092,-334.3994 90.6239,-332.6645 93,-331 131.5503,-303.9945 176.6715,-275.9723 211.4411,-255.1036"/>
<polygon fill="none" stroke="#191970" points="83.489,-333.5222 77.5748,-342.3127 87.68,-339.1289 83.489,-333.5222"/>
</g>
<!-- Node4 -->
<g id="node4" class="node">
<title>Node4</title>
<g id="a_node4"><a xlink:href="interface_i_shape.html" target="_top" xlink:title=" ">
<polygon fill="none" stroke="#000000" points="102,-331.5 102,-410.5 204,-410.5 204,-331.5 102,-331.5"/>
<text text-anchor="middle" x="153" y="-398.5" font-family="Helvetica,sans-Serif" font-size="10.00" fill="#000000">IShape</text>
<polyline fill="none" stroke="#000000" points="102,-391.5 204,-391.5 "/>
<text text-anchor="start" x="110" y="-379.5" font-family="Helvetica,sans-Serif" font-size="10.00" fill="#000000">+ Position</text>
<text text-anchor="start" x="110" y="-368.5" font-family="Helvetica,sans-Serif" font-size="10.00" fill="#000000">+ ClosestNeighbors</text>
<text text-anchor="start" x="110" y="-357.5" font-family="Helvetica,sans-Serif" font-size="10.00" fill="#000000">+ Neighbors</text>
<polyline fill="none" stroke="#000000" points="102,-350.5 204,-350.5 "/>
<text text-anchor="middle" x="153" y="-338.5" font-family="Helvetica,sans-Serif" font-size="10.00" fill="#000000"> </text>
</a>
</g>
</g>
<!-- Node4&#45;&gt;Node2 -->
<g id="edge3" class="edge">
<title>Node4&#45;&gt;Node2</title>
<path fill="none" stroke="#191970" d="M189.8742,-323.2239C202.3204,-307.0979 216.2529,-289.0463 228.8675,-272.7021"/>
<polygon fill="none" stroke="#191970" points="186.8552,-321.4071 183.516,-331.4619 192.3967,-325.684 186.8552,-321.4071"/>
</g>
<!-- Node5 -->
<g id="node5" class="node">
<title>Node5</title>
<g id="a_node5"><a xlink:href="interface_i_draggable.html" target="_top" xlink:title=" ">
<polygon fill="none" stroke="#000000" points="222.5,-337 222.5,-405 313.5,-405 313.5,-337 222.5,-337"/>
<text text-anchor="middle" x="268" y="-393" font-family="Helvetica,sans-Serif" font-size="10.00" fill="#000000">IDraggable</text>
<polyline fill="none" stroke="#000000" points="222.5,-386 313.5,-386 "/>
<text text-anchor="start" x="230.5" y="-374" font-family="Helvetica,sans-Serif" font-size="10.00" fill="#000000">+ CanBeDragged</text>
<text text-anchor="start" x="230.5" y="-363" font-family="Helvetica,sans-Serif" font-size="10.00" fill="#000000">+ IsDragging</text>
<polyline fill="none" stroke="#000000" points="222.5,-356 313.5,-356 "/>
<text text-anchor="middle" x="268" y="-344" font-family="Helvetica,sans-Serif" font-size="10.00" fill="#000000"> </text>
</a>
</g>
</g>
<!-- Node5&#45;&gt;Node2 -->
<g id="edge4" class="edge">
<title>Node5&#45;&gt;Node2</title>
<path fill="none" stroke="#191970" d="M268,-326.6226C268,-309.6671 268,-290.2084 268,-272.707"/>
<polygon fill="none" stroke="#191970" points="264.5001,-326.8164 268,-336.8164 271.5001,-326.8164 264.5001,-326.8164"/>
</g>
<!-- Node6 -->
<g id="node6" class="node">
<title>Node6</title>
<g id="a_node6"><a xlink:href="interface_i_triggerable.html" target="_top" xlink:title=" ">
<polygon fill="none" stroke="#000000" points="331.5,-337 331.5,-405 444.5,-405 444.5,-337 331.5,-337"/>
<text text-anchor="middle" x="388" y="-393" font-family="Helvetica,sans-Serif" font-size="10.00" fill="#000000">ITriggerable</text>
<polyline fill="none" stroke="#000000" points="331.5,-386 444.5,-386 "/>
<text text-anchor="middle" x="388" y="-374" font-family="Helvetica,sans-Serif" font-size="10.00" fill="#000000"> </text>
<polyline fill="none" stroke="#000000" points="331.5,-367 444.5,-367 "/>
<text text-anchor="start" x="339.5" y="-355" font-family="Helvetica,sans-Serif" font-size="10.00" fill="#000000">+ Trigger()</text>
<text text-anchor="start" x="339.5" y="-344" font-family="Helvetica,sans-Serif" font-size="10.00" fill="#000000">+ MakeTriggerAction()</text>
</a>
</g>
</g>
<!-- Node6&#45;&gt;Node2 -->
<g id="edge5" class="edge">
<title>Node6&#45;&gt;Node2</title>
<path fill="none" stroke="#191970" d="M354.1783,-329.0047C340.0863,-311.5071 323.5978,-291.0339 308.8378,-272.707"/>
<polygon fill="none" stroke="#191970" points="351.4712,-331.2235 360.4696,-336.8164 356.923,-326.8328 351.4712,-331.2235"/>
</g>
<!-- Node7 -->
<g id="node7" class="node">
<title>Node7</title>
<g id="a_node7"><a xlink:title=" ">
<polygon fill="none" stroke="#bfbfbf" points="463,-342.5 463,-399.5 541,-399.5 541,-342.5 463,-342.5"/>
<text text-anchor="middle" x="502" y="-387.5" font-family="Helvetica,sans-Serif" font-size="10.00" fill="#000000">List&lt; Shape &gt;</text>
<polyline fill="none" stroke="#bfbfbf" points="463,-380.5 541,-380.5 "/>
<text text-anchor="middle" x="502" y="-368.5" font-family="Helvetica,sans-Serif" font-size="10.00" fill="#000000"> </text>
<polyline fill="none" stroke="#bfbfbf" points="463,-361.5 541,-361.5 "/>
<text text-anchor="middle" x="502" y="-349.5" font-family="Helvetica,sans-Serif" font-size="10.00" fill="#000000"> </text>
</a>
</g>
</g>
<!-- Node7&#45;&gt;Node2 -->
<g id="edge6" class="edge">
<title>Node7&#45;&gt;Node2</title>
<path fill="none" stroke="#404040" d="M469.7659,-342.3459C464.6444,-338.3254 459.2885,-334.4083 454,-331 407.2231,-300.8534 386.886,-303.6671 335.1288,-273.2883"/>
<polygon fill="none" stroke="#404040" points="334.98,-273.1982 327.7757,-273.5125 324.7147,-266.9833 331.919,-266.669 334.98,-273.1982"/>
<text text-anchor="middle" x="463" y="-305" font-family="Helvetica,sans-Serif" font-size="10.00" fill="#000000"> +ClosestNeighbors</text>
<text text-anchor="middle" x="463" y="-294" font-family="Helvetica,sans-Serif" font-size="10.00" fill="#000000">+Neighbors</text>
</g>
<!-- Node8 -->
<g id="node8" class="node">
<title>Node8</title>
<g id="a_node8"><a xlink:title=" ">
<polygon fill="none" stroke="#bfbfbf" points="342.5,-193.5 342.5,-250.5 377.5,-250.5 377.5,-193.5 342.5,-193.5"/>
<text text-anchor="middle" x="360" y="-238.5" font-family="Helvetica,sans-Serif" font-size="10.00" fill="#000000">bool</text>
<polyline fill="none" stroke="#bfbfbf" points="342.5,-231.5 377.5,-231.5 "/>
<text text-anchor="middle" x="360" y="-219.5" font-family="Helvetica,sans-Serif" font-size="10.00" fill="#000000"> </text>
<polyline fill="none" stroke="#bfbfbf" points="342.5,-212.5 377.5,-212.5 "/>
<text text-anchor="middle" x="360" y="-200.5" font-family="Helvetica,sans-Serif" font-size="10.00" fill="#000000"> </text>
</a>
</g>
</g>
<!-- Node8&#45;&gt;Node1 -->
<g id="edge7" class="edge">
<title>Node8&#45;&gt;Node1</title>
<path fill="none" stroke="#404040" d="M360,-193.3952C360,-177.241 360,-156.2382 360,-135.7811"/>
<polygon fill="none" stroke="#404040" points="360.0001,-135.5026 356,-129.5027 360,-123.5026 364,-129.5026 360.0001,-135.5026"/>
<text text-anchor="middle" x="385.5" y="-145" font-family="Helvetica,sans-Serif" font-size="10.00" fill="#000000"> +Absorbed</text>
</g>
<!-- Node9 -->
<g id="node9" class="node">
<title>Node9</title>
<g id="a_node9"><a xlink:title=" ">
<polygon fill="none" stroke="#bfbfbf" points="395.5,-193.5 395.5,-250.5 476.5,-250.5 476.5,-193.5 395.5,-193.5"/>
<text text-anchor="middle" x="436" y="-238.5" font-family="Helvetica,sans-Serif" font-size="10.00" fill="#000000">SpriteRenderer</text>
<polyline fill="none" stroke="#bfbfbf" points="395.5,-231.5 476.5,-231.5 "/>
<text text-anchor="middle" x="436" y="-219.5" font-family="Helvetica,sans-Serif" font-size="10.00" fill="#000000"> </text>
<polyline fill="none" stroke="#bfbfbf" points="395.5,-212.5 476.5,-212.5 "/>
<text text-anchor="middle" x="436" y="-200.5" font-family="Helvetica,sans-Serif" font-size="10.00" fill="#000000"> </text>
</a>
</g>
</g>
<!-- Node9&#45;&gt;Node1 -->
<g id="edge8" class="edge">
<title>Node9&#45;&gt;Node1</title>
<path fill="none" stroke="#404040" d="M430.5234,-193.4448C426.9449,-177.8154 421.5233,-158.3585 414,-142 412.8185,-139.431 411.5581,-136.853 410.2344,-134.2784"/>
<polygon fill="none" stroke="#404040" points="410.2321,-134.2743 403.8441,-130.9286 404.4755,-123.7452 410.8635,-127.0908 410.2321,-134.2743"/>
<text text-anchor="middle" x="447.5" y="-145" font-family="Helvetica,sans-Serif" font-size="10.00" fill="#000000"> +InputHolder</text>
</g>
</g>
</svg>
