<?xml version="1.0" encoding="UTF-8" standalone="no"?>
<!DOCTYPE svg PUBLIC "-//W3C//DTD SVG 1.1//EN"
 "http://www.w3.org/Graphics/SVG/1.1/DTD/svg11.dtd">
<!-- Generated by graphviz version 2.40.1 (20161225.0304)
 -->
<!-- Title: ShapeSlot Pages: 1 -->
<svg width="156pt" height="182pt"
 viewBox="0.00 0.00 156.00 182.00" xmlns="http://www.w3.org/2000/svg" xmlns:xlink="http://www.w3.org/1999/xlink">
<g id="graph0" class="graph" transform="scale(1 1) rotate(0) translate(4 178)">
<title>ShapeSlot</title>
<!-- Node1 -->
<g id="node1" class="node">
<title>Node1</title>
<g id="a_node1"><a xlink:title=" ">
<polygon fill="#bfbfbf" stroke="#000000" points="18.5,-.5 18.5,-68.5 143.5,-68.5 143.5,-.5 18.5,-.5"/>
<text text-anchor="middle" x="81" y="-56.5" font-family="Helvetica,sans-Serif" font-size="10.00" fill="#000000">ShapeSlot</text>
<polyline fill="none" stroke="#000000" points="18.5,-49.5 143.5,-49.5 "/>
<text text-anchor="start" x="26.5" y="-37.5" font-family="Helvetica,sans-Serif" font-size="10.00" fill="#000000">+ Shape</text>
<polyline fill="none" stroke="#000000" points="18.5,-30.5 143.5,-30.5 "/>
<text text-anchor="start" x="26.5" y="-18.5" font-family="Helvetica,sans-Serif" font-size="10.00" fill="#000000">+ SpawnRandomShape()</text>
<text text-anchor="start" x="26.5" y="-7.5" font-family="Helvetica,sans-Serif" font-size="10.00" fill="#000000">+ RemoveShape()</text>
</a>
</g>
</g>
<!-- Node2 -->
<g id="node2" class="node">
<title>Node2</title>
<g id="a_node2"><a xlink:href="class_mono_behaviour.html" target="_top" xlink:title=" ">
<polygon fill="none" stroke="#000000" points="0,-116.5 0,-173.5 84,-173.5 84,-116.5 0,-116.5"/>
<text text-anchor="middle" x="42" y="-161.5" font-family="Helvetica,sans-Serif" font-size="10.00" fill="#000000">MonoBehaviour</text>
<polyline fill="none" stroke="#000000" points="0,-154.5 84,-154.5 "/>
<text text-anchor="middle" x="42" y="-142.5" font-family="Helvetica,sans-Serif" font-size="10.00" fill="#000000"> </text>
<polyline fill="none" stroke="#000000" points="0,-135.5 84,-135.5 "/>
<text text-anchor="middle" x="42" y="-123.5" font-family="Helvetica,sans-Serif" font-size="10.00" fill="#000000"> </text>
</a>
</g>
</g>
<!-- Node2&#45;&gt;Node1 -->
<g id="edge1" class="edge">
<title>Node2&#45;&gt;Node1</title>
<path fill="none" stroke="#191970" d="M55.5343,-106.6529C59.9024,-94.2766 64.7124,-80.6482 68.9647,-68.6001"/>
<polygon fill="none" stroke="#191970" points="52.1728,-105.6611 52.145,-116.2559 58.7737,-107.9909 52.1728,-105.6611"/>
</g>
<!-- Node3 -->
<g id="node3" class="node">
<title>Node3</title>
<g id="a_node3"><a xlink:title=" ">
<polygon fill="none" stroke="#bfbfbf" points="102.5,-116.5 102.5,-173.5 137.5,-173.5 137.5,-116.5 102.5,-116.5"/>
<text text-anchor="middle" x="120" y="-161.5" font-family="Helvetica,sans-Serif" font-size="10.00" fill="#000000">bool</text>
<polyline fill="none" stroke="#bfbfbf" points="102.5,-154.5 137.5,-154.5 "/>
<text text-anchor="middle" x="120" y="-142.5" font-family="Helvetica,sans-Serif" font-size="10.00" fill="#000000"> </text>
<polyline fill="none" stroke="#bfbfbf" points="102.5,-135.5 137.5,-135.5 "/>
<text text-anchor="middle" x="120" y="-123.5" font-family="Helvetica,sans-Serif" font-size="10.00" fill="#000000"> </text>
</a>
</g>
</g>
<!-- Node3&#45;&gt;Node1 -->
<g id="edge2" class="edge">
<title>Node3&#45;&gt;Node1</title>
<path fill="none" stroke="#404040" d="M109.855,-116.2559C105.9555,-105.2071 101.4018,-92.305 97.0795,-80.0586"/>
<polygon fill="none" stroke="#404040" points="97.0292,-79.9159 91.2603,-75.5893 93.0353,-68.6001 98.8042,-72.9267 97.0292,-79.9159"/>
<text text-anchor="middle" x="125" y="-90" font-family="Helvetica,sans-Serif" font-size="10.00" fill="#000000"> +IsEmpty</text>
</g>
</g>
</svg>
