<?xml version="1.0" encoding="UTF-8" standalone="no"?>
<!DOCTYPE svg PUBLIC "-//W3C//DTD SVG 1.1//EN"
 "http://www.w3.org/Graphics/SVG/1.1/DTD/svg11.dtd">
<!-- Generated by graphviz version 2.40.1 (20161225.0304)
 -->
<!-- Title: TriggerableContext Pages: 1 -->
<svg width="183pt" height="182pt"
 viewBox="0.00 0.00 183.00 182.00" xmlns="http://www.w3.org/2000/svg" xmlns:xlink="http://www.w3.org/1999/xlink">
<g id="graph0" class="graph" transform="scale(1 1) rotate(0) translate(4 178)">
<title>TriggerableContext</title>
<!-- Node1 -->
<g id="node1" class="node">
<title>Node1</title>
<g id="a_node1"><a xlink:title=" ">
<polygon fill="#bfbfbf" stroke="#000000" points="41,-.5 41,-57.5 139,-57.5 139,-.5 41,-.5"/>
<text text-anchor="middle" x="90" y="-45.5" font-family="Helvetica,sans-Serif" font-size="10.00" fill="#000000">TriggerableContext</text>
<polyline fill="none" stroke="#000000" points="41,-38.5 139,-38.5 "/>
<text text-anchor="middle" x="90" y="-26.5" font-family="Helvetica,sans-Serif" font-size="10.00" fill="#000000"> </text>
<polyline fill="none" stroke="#000000" points="41,-19.5 139,-19.5 "/>
<text text-anchor="middle" x="90" y="-7.5" font-family="Helvetica,sans-Serif" font-size="10.00" fill="#000000"> </text>
</a>
</g>
</g>
<!-- Node2 -->
<g id="node2" class="node">
<title>Node2</title>
<g id="a_node2"><a xlink:title=" ">
<polygon fill="none" stroke="#bfbfbf" points="0,-116.5 0,-173.5 96,-173.5 96,-116.5 0,-116.5"/>
<text text-anchor="middle" x="48" y="-161.5" font-family="Helvetica,sans-Serif" font-size="10.00" fill="#000000">List&lt; Absorption &gt;</text>
<polyline fill="none" stroke="#bfbfbf" points="0,-154.5 96,-154.5 "/>
<text text-anchor="middle" x="48" y="-142.5" font-family="Helvetica,sans-Serif" font-size="10.00" fill="#000000"> </text>
<polyline fill="none" stroke="#bfbfbf" points="0,-135.5 96,-135.5 "/>
<text text-anchor="middle" x="48" y="-123.5" font-family="Helvetica,sans-Serif" font-size="10.00" fill="#000000"> </text>
</a>
</g>
</g>
<!-- Node2&#45;&gt;Node1 -->
<g id="edge1" class="edge">
<title>Node2&#45;&gt;Node1</title>
<path fill="none" stroke="#404040" d="M44.0533,-116.2969C43.3937,-103.567 44.1562,-88.6417 49,-76 50.046,-73.27 51.3275,-70.593 52.7831,-67.9882"/>
<polygon fill="none" stroke="#404040" points="52.9525,-67.733 52.9392,-60.5219 59.5904,-57.7361 59.6038,-64.9472 52.9525,-67.733"/>
<text text-anchor="middle" x="79.5" y="-84.5" font-family="Helvetica,sans-Serif" font-size="10.00" fill="#000000"> +Absorptions</text>
</g>
<!-- Node3 -->
<g id="node3" class="node">
<title>Node3</title>
<g id="a_node3"><a xlink:title=" ">
<polygon fill="none" stroke="#bfbfbf" points="114.5,-116.5 114.5,-173.5 149.5,-173.5 149.5,-116.5 114.5,-116.5"/>
<text text-anchor="middle" x="132" y="-161.5" font-family="Helvetica,sans-Serif" font-size="10.00" fill="#000000">bool</text>
<polyline fill="none" stroke="#bfbfbf" points="114.5,-154.5 149.5,-154.5 "/>
<text text-anchor="middle" x="132" y="-142.5" font-family="Helvetica,sans-Serif" font-size="10.00" fill="#000000"> </text>
<polyline fill="none" stroke="#bfbfbf" points="114.5,-135.5 149.5,-135.5 "/>
<text text-anchor="middle" x="132" y="-123.5" font-family="Helvetica,sans-Serif" font-size="10.00" fill="#000000"> </text>
</a>
</g>
</g>
<!-- Node3&#45;&gt;Node1 -->
<g id="edge2" class="edge">
<title>Node3&#45;&gt;Node1</title>
<path fill="none" stroke="#404040" d="M123.4965,-116.2598C119.6387,-103.7937 114.8575,-89.0838 110,-76 109.132,-73.6619 108.2132,-71.2702 107.2655,-68.865"/>
<polygon fill="none" stroke="#404040" points="107.2285,-68.7741 101.2599,-64.7273 102.6998,-57.6614 108.6684,-61.7082 107.2285,-68.7741"/>
<text text-anchor="middle" x="146" y="-90" font-family="Helvetica,sans-Serif" font-size="10.00" fill="#000000"> +Completed</text>
<text text-anchor="middle" x="146" y="-79" font-family="Helvetica,sans-Serif" font-size="10.00" fill="#000000">+WillExplode</text>
</g>
</g>
</svg>
