<?xml version="1.0" encoding="UTF-8" standalone="no"?>
<!DOCTYPE svg PUBLIC "-//W3C//DTD SVG 1.1//EN"
 "http://www.w3.org/Graphics/SVG/1.1/DTD/svg11.dtd">
<!-- Generated by graphviz version 2.40.1 (20161225.0304)
 -->
<!-- Title: BaseShape Pages: 1 -->
<svg width="549pt" height="343pt"
 viewBox="0.00 0.00 549.00 343.00" xmlns="http://www.w3.org/2000/svg" xmlns:xlink="http://www.w3.org/1999/xlink">
<g id="graph0" class="graph" transform="scale(1 1) rotate(0) translate(4 339)">
<title>BaseShape</title>
<!-- Node1 -->
<g id="node1" class="node">
<title>Node1</title>
<g id="a_node1"><a xlink:title=" ">
<polygon fill="#bfbfbf" stroke="#000000" points="234.5,-.5 234.5,-57.5 301.5,-57.5 301.5,-.5 234.5,-.5"/>
<text text-anchor="middle" x="268" y="-45.5" font-family="Helvetica,sans-Serif" font-size="10.00" fill="#000000">BaseShape</text>
<polyline fill="none" stroke="#000000" points="234.5,-38.5 301.5,-38.5 "/>
<text text-anchor="start" x="242.5" y="-26.5" font-family="Helvetica,sans-Serif" font-size="10.00" fill="#000000">+ Type</text>
<polyline fill="none" stroke="#000000" points="234.5,-19.5 301.5,-19.5 "/>
<text text-anchor="start" x="242.5" y="-7.5" font-family="Helvetica,sans-Serif" font-size="10.00" fill="#000000">+ Destroy()</text>
</a>
</g>
</g>
<!-- Node2 -->
<g id="node2" class="node">
<title>Node2</title>
<g id="a_node2"><a xlink:href="class_shape.html" target="_top" xlink:title=" ">
<polygon fill="none" stroke="#000000" points="211.5,-95.5 211.5,-196.5 324.5,-196.5 324.5,-95.5 211.5,-95.5"/>
<text text-anchor="middle" x="268" y="-184.5" font-family="Helvetica,sans-Serif" font-size="10.00" fill="#000000">Shape</text>
<polyline fill="none" stroke="#000000" points="211.5,-177.5 324.5,-177.5 "/>
<text text-anchor="start" x="219.5" y="-165.5" font-family="Helvetica,sans-Serif" font-size="10.00" fill="#000000">+ Position</text>
<text text-anchor="start" x="219.5" y="-154.5" font-family="Helvetica,sans-Serif" font-size="10.00" fill="#000000">+ IsDragging</text>
<text text-anchor="start" x="219.5" y="-143.5" font-family="Helvetica,sans-Serif" font-size="10.00" fill="#000000">+ CanBeDragged</text>
<polyline fill="none" stroke="#000000" points="211.5,-136.5 324.5,-136.5 "/>
<text text-anchor="start" x="219.5" y="-124.5" font-family="Helvetica,sans-Serif" font-size="10.00" fill="#000000">+ Trigger()</text>
<text text-anchor="start" x="219.5" y="-113.5" font-family="Helvetica,sans-Serif" font-size="10.00" fill="#000000">+ MakeTriggerAction()</text>
<text text-anchor="start" x="219.5" y="-102.5" font-family="Helvetica,sans-Serif" font-size="10.00" fill="#000000">+ Destroy()</text>
</a>
</g>
</g>
<!-- Node2&#45;&gt;Node1 -->
<g id="edge1" class="edge">
<title>Node2&#45;&gt;Node1</title>
<path fill="none" stroke="#191970" d="M268,-85.0646C268,-75.5614 268,-66.1441 268,-57.8181"/>
<polygon fill="none" stroke="#191970" points="264.5001,-85.3625 268,-95.3626 271.5001,-85.3626 264.5001,-85.3625"/>
</g>
<!-- Node3 -->
<g id="node3" class="node">
<title>Node3</title>
<g id="a_node3"><a xlink:href="class_mono_behaviour.html" target="_top" xlink:title=" ">
<polygon fill="none" stroke="#000000" points="0,-266.5 0,-323.5 84,-323.5 84,-266.5 0,-266.5"/>
<text text-anchor="middle" x="42" y="-311.5" font-family="Helvetica,sans-Serif" font-size="10.00" fill="#000000">MonoBehaviour</text>
<polyline fill="none" stroke="#000000" points="0,-304.5 84,-304.5 "/>
<text text-anchor="middle" x="42" y="-292.5" font-family="Helvetica,sans-Serif" font-size="10.00" fill="#000000"> </text>
<polyline fill="none" stroke="#000000" points="0,-285.5 84,-285.5 "/>
<text text-anchor="middle" x="42" y="-273.5" font-family="Helvetica,sans-Serif" font-size="10.00" fill="#000000"> </text>
</a>
</g>
</g>
<!-- Node3&#45;&gt;Node2 -->
<g id="edge2" class="edge">
<title>Node3&#45;&gt;Node2</title>
<path fill="none" stroke="#191970" d="M85.7877,-260.1737C88.2092,-258.3994 90.6239,-256.6645 93,-255 131.5503,-227.9945 176.6715,-199.9723 211.4411,-179.1036"/>
<polygon fill="none" stroke="#191970" points="83.489,-257.5222 77.5748,-266.3127 87.68,-263.1289 83.489,-257.5222"/>
</g>
<!-- Node4 -->
<g id="node4" class="node">
<title>Node4</title>
<g id="a_node4"><a xlink:href="interface_i_shape.html" target="_top" xlink:title=" ">
<polygon fill="none" stroke="#000000" points="102,-255.5 102,-334.5 204,-334.5 204,-255.5 102,-255.5"/>
<text text-anchor="middle" x="153" y="-322.5" font-family="Helvetica,sans-Serif" font-size="10.00" fill="#000000">IShape</text>
<polyline fill="none" stroke="#000000" points="102,-315.5 204,-315.5 "/>
<text text-anchor="start" x="110" y="-303.5" font-family="Helvetica,sans-Serif" font-size="10.00" fill="#000000">+ Position</text>
<text text-anchor="start" x="110" y="-292.5" font-family="Helvetica,sans-Serif" font-size="10.00" fill="#000000">+ ClosestNeighbors</text>
<text text-anchor="start" x="110" y="-281.5" font-family="Helvetica,sans-Serif" font-size="10.00" fill="#000000">+ Neighbors</text>
<polyline fill="none" stroke="#000000" points="102,-274.5 204,-274.5 "/>
<text text-anchor="middle" x="153" y="-262.5" font-family="Helvetica,sans-Serif" font-size="10.00" fill="#000000"> </text>
</a>
</g>
</g>
<!-- Node4&#45;&gt;Node2 -->
<g id="edge3" class="edge">
<title>Node4&#45;&gt;Node2</title>
<path fill="none" stroke="#191970" d="M189.8742,-247.2239C202.3204,-231.0979 216.2529,-213.0463 228.8675,-196.7021"/>
<polygon fill="none" stroke="#191970" points="186.8552,-245.4071 183.516,-255.4619 192.3967,-249.684 186.8552,-245.4071"/>
</g>
<!-- Node5 -->
<g id="node5" class="node">
<title>Node5</title>
<g id="a_node5"><a xlink:href="interface_i_draggable.html" target="_top" xlink:title=" ">
<polygon fill="none" stroke="#000000" points="222.5,-261 222.5,-329 313.5,-329 313.5,-261 222.5,-261"/>
<text text-anchor="middle" x="268" y="-317" font-family="Helvetica,sans-Serif" font-size="10.00" fill="#000000">IDraggable</text>
<polyline fill="none" stroke="#000000" points="222.5,-310 313.5,-310 "/>
<text text-anchor="start" x="230.5" y="-298" font-family="Helvetica,sans-Serif" font-size="10.00" fill="#000000">+ CanBeDragged</text>
<text text-anchor="start" x="230.5" y="-287" font-family="Helvetica,sans-Serif" font-size="10.00" fill="#000000">+ IsDragging</text>
<polyline fill="none" stroke="#000000" points="222.5,-280 313.5,-280 "/>
<text text-anchor="middle" x="268" y="-268" font-family="Helvetica,sans-Serif" font-size="10.00" fill="#000000"> </text>
</a>
</g>
</g>
<!-- Node5&#45;&gt;Node2 -->
<g id="edge4" class="edge">
<title>Node5&#45;&gt;Node2</title>
<path fill="none" stroke="#191970" d="M268,-250.6226C268,-233.6671 268,-214.2084 268,-196.707"/>
<polygon fill="none" stroke="#191970" points="264.5001,-250.8164 268,-260.8164 271.5001,-250.8164 264.5001,-250.8164"/>
</g>
<!-- Node6 -->
<g id="node6" class="node">
<title>Node6</title>
<g id="a_node6"><a xlink:href="interface_i_triggerable.html" target="_top" xlink:title=" ">
<polygon fill="none" stroke="#000000" points="331.5,-261 331.5,-329 444.5,-329 444.5,-261 331.5,-261"/>
<text text-anchor="middle" x="388" y="-317" font-family="Helvetica,sans-Serif" font-size="10.00" fill="#000000">ITriggerable</text>
<polyline fill="none" stroke="#000000" points="331.5,-310 444.5,-310 "/>
<text text-anchor="middle" x="388" y="-298" font-family="Helvetica,sans-Serif" font-size="10.00" fill="#000000"> </text>
<polyline fill="none" stroke="#000000" points="331.5,-291 444.5,-291 "/>
<text text-anchor="start" x="339.5" y="-279" font-family="Helvetica,sans-Serif" font-size="10.00" fill="#000000">+ Trigger()</text>
<text text-anchor="start" x="339.5" y="-268" font-family="Helvetica,sans-Serif" font-size="10.00" fill="#000000">+ MakeTriggerAction()</text>
</a>
</g>
</g>
<!-- Node6&#45;&gt;Node2 -->
<g id="edge5" class="edge">
<title>Node6&#45;&gt;Node2</title>
<path fill="none" stroke="#191970" d="M354.1783,-253.0047C340.0863,-235.5071 323.5978,-215.0339 308.8378,-196.707"/>
<polygon fill="none" stroke="#191970" points="351.4712,-255.2235 360.4696,-260.8164 356.923,-250.8328 351.4712,-255.2235"/>
</g>
<!-- Node7 -->
<g id="node7" class="node">
<title>Node7</title>
<g id="a_node7"><a xlink:title=" ">
<polygon fill="none" stroke="#bfbfbf" points="463,-266.5 463,-323.5 541,-323.5 541,-266.5 463,-266.5"/>
<text text-anchor="middle" x="502" y="-311.5" font-family="Helvetica,sans-Serif" font-size="10.00" fill="#000000">List&lt; Shape &gt;</text>
<polyline fill="none" stroke="#bfbfbf" points="463,-304.5 541,-304.5 "/>
<text text-anchor="middle" x="502" y="-292.5" font-family="Helvetica,sans-Serif" font-size="10.00" fill="#000000"> </text>
<polyline fill="none" stroke="#bfbfbf" points="463,-285.5 541,-285.5 "/>
<text text-anchor="middle" x="502" y="-273.5" font-family="Helvetica,sans-Serif" font-size="10.00" fill="#000000"> </text>
</a>
</g>
</g>
<!-- Node7&#45;&gt;Node2 -->
<g id="edge6" class="edge">
<title>Node7&#45;&gt;Node2</title>
<path fill="none" stroke="#404040" d="M468.9873,-266.2987C464.0635,-262.3702 458.9707,-258.4919 454,-255 416.2534,-228.4827 371.7398,-202.2335 335.7243,-182.1408"/>
<polygon fill="none" stroke="#404040" points="335.3337,-181.9245 328.1469,-182.5159 324.8368,-176.1093 332.0236,-175.518 335.3337,-181.9245"/>
<text text-anchor="middle" x="467" y="-229" font-family="Helvetica,sans-Serif" font-size="10.00" fill="#000000"> +ClosestNeighbors</text>
<text text-anchor="middle" x="467" y="-218" font-family="Helvetica,sans-Serif" font-size="10.00" fill="#000000">+Neighbors</text>
</g>
</g>
</svg>
