<?xml version="1.0" encoding="UTF-8" standalone="no"?>
<!DOCTYPE svg PUBLIC "-//W3C//DTD SVG 1.1//EN"
 "http://www.w3.org/Graphics/SVG/1.1/DTD/svg11.dtd">
<!-- Generated by graphviz version 2.40.1 (20161225.0304)
 -->
<!-- Title: Shape Pages: 1 -->
<svg width="453pt" height="430pt"
 viewBox="0.00 0.00 452.50 430.00" xmlns="http://www.w3.org/2000/svg" xmlns:xlink="http://www.w3.org/1999/xlink">
<g id="graph0" class="graph" transform="scale(1 1) rotate(0) translate(4 426)">
<title>Shape</title>
<!-- Node1 -->
<g id="node1" class="node">
<title>Node1</title>
<g id="a_node1"><a xlink:title=" ">
<polygon fill="#bfbfbf" stroke="#000000" points="153.5,-182.5 153.5,-305.5 266.5,-305.5 266.5,-182.5 153.5,-182.5"/>
<text text-anchor="middle" x="210" y="-293.5" font-family="Helvetica,sans-Serif" font-size="10.00" fill="#000000">Shape</text>
<polyline fill="none" stroke="#000000" points="153.5,-286.5 266.5,-286.5 "/>
<text text-anchor="start" x="161.5" y="-274.5" font-family="Helvetica,sans-Serif" font-size="10.00" fill="#000000">+ ClosestNeighbors</text>
<text text-anchor="start" x="161.5" y="-263.5" font-family="Helvetica,sans-Serif" font-size="10.00" fill="#000000">+ Neighbors</text>
<text text-anchor="start" x="161.5" y="-252.5" font-family="Helvetica,sans-Serif" font-size="10.00" fill="#000000">+ Position</text>
<text text-anchor="start" x="161.5" y="-241.5" font-family="Helvetica,sans-Serif" font-size="10.00" fill="#000000">+ IsDragging</text>
<text text-anchor="start" x="161.5" y="-230.5" font-family="Helvetica,sans-Serif" font-size="10.00" fill="#000000">+ CanBeDragged</text>
<polyline fill="none" stroke="#000000" points="153.5,-223.5 266.5,-223.5 "/>
<text text-anchor="start" x="161.5" y="-211.5" font-family="Helvetica,sans-Serif" font-size="10.00" fill="#000000">+ Trigger()</text>
<text text-anchor="start" x="161.5" y="-200.5" font-family="Helvetica,sans-Serif" font-size="10.00" fill="#000000">+ MakeTriggerAction()</text>
<text text-anchor="start" x="161.5" y="-189.5" font-family="Helvetica,sans-Serif" font-size="10.00" fill="#000000">+ Destroy()</text>
</a>
</g>
</g>
<!-- Node6 -->
<g id="node6" class="node">
<title>Node6</title>
<g id="a_node6"><a xlink:href="class_base_shape.html" target="_top" xlink:title=" ">
<polygon fill="none" stroke="#000000" points="117.5,-44.5 117.5,-101.5 184.5,-101.5 184.5,-44.5 117.5,-44.5"/>
<text text-anchor="middle" x="151" y="-89.5" font-family="Helvetica,sans-Serif" font-size="10.00" fill="#000000">BaseShape</text>
<polyline fill="none" stroke="#000000" points="117.5,-82.5 184.5,-82.5 "/>
<text text-anchor="start" x="125.5" y="-70.5" font-family="Helvetica,sans-Serif" font-size="10.00" fill="#000000">+ Type</text>
<polyline fill="none" stroke="#000000" points="117.5,-63.5 184.5,-63.5 "/>
<text text-anchor="start" x="125.5" y="-51.5" font-family="Helvetica,sans-Serif" font-size="10.00" fill="#000000">+ Destroy()</text>
</a>
</g>
</g>
<!-- Node1&#45;&gt;Node6 -->
<g id="edge5" class="edge">
<title>Node1&#45;&gt;Node6</title>
<path fill="none" stroke="#191970" d="M185.4279,-172.7826C176.8008,-147.7784 167.5949,-121.0971 160.8753,-101.6216"/>
<polygon fill="none" stroke="#191970" points="182.1294,-173.9535 188.6996,-182.2651 188.7466,-171.6703 182.1294,-173.9535"/>
</g>
<!-- Node7 -->
<g id="node7" class="node">
<title>Node7</title>
<g id="a_node7"><a xlink:href="class_transistor_shape.html" target="_top" xlink:title=" ">
<polygon fill="none" stroke="#000000" points="202.5,-.5 202.5,-145.5 335.5,-145.5 335.5,-.5 202.5,-.5"/>
<text text-anchor="middle" x="269" y="-133.5" font-family="Helvetica,sans-Serif" font-size="10.00" fill="#000000">TransistorShape</text>
<polyline fill="none" stroke="#000000" points="202.5,-126.5 335.5,-126.5 "/>
<text text-anchor="start" x="210.5" y="-114.5" font-family="Helvetica,sans-Serif" font-size="10.00" fill="#000000">+ InputHolder</text>
<text text-anchor="start" x="210.5" y="-103.5" font-family="Helvetica,sans-Serif" font-size="10.00" fill="#000000">+ Absorbed</text>
<text text-anchor="start" x="210.5" y="-92.5" font-family="Helvetica,sans-Serif" font-size="10.00" fill="#000000">+ InputType</text>
<text text-anchor="start" x="210.5" y="-81.5" font-family="Helvetica,sans-Serif" font-size="10.00" fill="#000000">+ OutputType</text>
<polyline fill="none" stroke="#000000" points="202.5,-74.5 335.5,-74.5 "/>
<text text-anchor="start" x="210.5" y="-62.5" font-family="Helvetica,sans-Serif" font-size="10.00" fill="#000000">+ SetupIOTypes()</text>
<text text-anchor="start" x="210.5" y="-51.5" font-family="Helvetica,sans-Serif" font-size="10.00" fill="#000000">+ SetAbsorbed()</text>
<text text-anchor="start" x="210.5" y="-40.5" font-family="Helvetica,sans-Serif" font-size="10.00" fill="#000000">+ CanAbsorp()</text>
<text text-anchor="start" x="210.5" y="-29.5" font-family="Helvetica,sans-Serif" font-size="10.00" fill="#000000">+ CanAbsorpToExplosion()</text>
<text text-anchor="start" x="210.5" y="-18.5" font-family="Helvetica,sans-Serif" font-size="10.00" fill="#000000">+ Trigger()</text>
<text text-anchor="start" x="210.5" y="-7.5" font-family="Helvetica,sans-Serif" font-size="10.00" fill="#000000">+ MakeTriggerAction()</text>
</a>
</g>
</g>
<!-- Node1&#45;&gt;Node7 -->
<g id="edge6" class="edge">
<title>Node1&#45;&gt;Node7</title>
<path fill="none" stroke="#191970" d="M234.6038,-172.6908C237.6806,-163.7733 240.8305,-154.6439 243.9145,-145.7054"/>
<polygon fill="none" stroke="#191970" points="231.2534,-171.6703 231.3004,-182.2651 237.8706,-173.9535 231.2534,-171.6703"/>
</g>
<!-- Node2 -->
<g id="node2" class="node">
<title>Node2</title>
<g id="a_node2"><a xlink:href="class_mono_behaviour.html" target="_top" xlink:title=" ">
<polygon fill="none" stroke="#000000" points="0,-353.5 0,-410.5 84,-410.5 84,-353.5 0,-353.5"/>
<text text-anchor="middle" x="42" y="-398.5" font-family="Helvetica,sans-Serif" font-size="10.00" fill="#000000">MonoBehaviour</text>
<polyline fill="none" stroke="#000000" points="0,-391.5 84,-391.5 "/>
<text text-anchor="middle" x="42" y="-379.5" font-family="Helvetica,sans-Serif" font-size="10.00" fill="#000000"> </text>
<polyline fill="none" stroke="#000000" points="0,-372.5 84,-372.5 "/>
<text text-anchor="middle" x="42" y="-360.5" font-family="Helvetica,sans-Serif" font-size="10.00" fill="#000000"> </text>
</a>
</g>
</g>
<!-- Node2&#45;&gt;Node1 -->
<g id="edge1" class="edge">
<title>Node2&#45;&gt;Node1</title>
<path fill="none" stroke="#191970" d="M84.5765,-347.0264C105.4649,-329.8681 130.912,-308.9652 153.4119,-290.4831"/>
<polygon fill="none" stroke="#191970" points="82.3154,-344.3543 76.8097,-353.4063 86.7586,-349.7634 82.3154,-344.3543"/>
</g>
<!-- Node3 -->
<g id="node3" class="node">
<title>Node3</title>
<g id="a_node3"><a xlink:href="interface_i_shape.html" target="_top" xlink:title=" ">
<polygon fill="none" stroke="#000000" points="102,-342.5 102,-421.5 204,-421.5 204,-342.5 102,-342.5"/>
<text text-anchor="middle" x="153" y="-409.5" font-family="Helvetica,sans-Serif" font-size="10.00" fill="#000000">IShape</text>
<polyline fill="none" stroke="#000000" points="102,-402.5 204,-402.5 "/>
<text text-anchor="start" x="110" y="-390.5" font-family="Helvetica,sans-Serif" font-size="10.00" fill="#000000">+ Position</text>
<text text-anchor="start" x="110" y="-379.5" font-family="Helvetica,sans-Serif" font-size="10.00" fill="#000000">+ ClosestNeighbors</text>
<text text-anchor="start" x="110" y="-368.5" font-family="Helvetica,sans-Serif" font-size="10.00" fill="#000000">+ Neighbors</text>
<polyline fill="none" stroke="#000000" points="102,-361.5 204,-361.5 "/>
<text text-anchor="middle" x="153" y="-349.5" font-family="Helvetica,sans-Serif" font-size="10.00" fill="#000000"> </text>
</a>
</g>
</g>
<!-- Node3&#45;&gt;Node1 -->
<g id="edge2" class="edge">
<title>Node3&#45;&gt;Node1</title>
<path fill="none" stroke="#191970" d="M173.2129,-333.0635C176.8716,-324.2055 180.73,-314.8643 184.5165,-305.6969"/>
<polygon fill="none" stroke="#191970" points="169.9167,-331.8759 169.3339,-342.4547 176.3865,-334.5483 169.9167,-331.8759"/>
</g>
<!-- Node4 -->
<g id="node4" class="node">
<title>Node4</title>
<g id="a_node4"><a xlink:href="interface_i_draggable.html" target="_top" xlink:title=" ">
<polygon fill="none" stroke="#000000" points="222.5,-348 222.5,-416 313.5,-416 313.5,-348 222.5,-348"/>
<text text-anchor="middle" x="268" y="-404" font-family="Helvetica,sans-Serif" font-size="10.00" fill="#000000">IDraggable</text>
<polyline fill="none" stroke="#000000" points="222.5,-397 313.5,-397 "/>
<text text-anchor="start" x="230.5" y="-385" font-family="Helvetica,sans-Serif" font-size="10.00" fill="#000000">+ CanBeDragged</text>
<text text-anchor="start" x="230.5" y="-374" font-family="Helvetica,sans-Serif" font-size="10.00" fill="#000000">+ IsDragging</text>
<polyline fill="none" stroke="#000000" points="222.5,-367 313.5,-367 "/>
<text text-anchor="middle" x="268" y="-355" font-family="Helvetica,sans-Serif" font-size="10.00" fill="#000000"> </text>
</a>
</g>
</g>
<!-- Node4&#45;&gt;Node1 -->
<g id="edge3" class="edge">
<title>Node4&#45;&gt;Node1</title>
<path fill="none" stroke="#191970" d="M249.7532,-338.5852C245.3634,-328.1406 240.5907,-316.7848 235.9253,-305.6844"/>
<polygon fill="none" stroke="#191970" points="246.5617,-340.0249 253.6629,-347.8876 253.0149,-337.3126 246.5617,-340.0249"/>
</g>
<!-- Node5 -->
<g id="node5" class="node">
<title>Node5</title>
<g id="a_node5"><a xlink:href="interface_i_triggerable.html" target="_top" xlink:title=" ">
<polygon fill="none" stroke="#000000" points="331.5,-348 331.5,-416 444.5,-416 444.5,-348 331.5,-348"/>
<text text-anchor="middle" x="388" y="-404" font-family="Helvetica,sans-Serif" font-size="10.00" fill="#000000">ITriggerable</text>
<polyline fill="none" stroke="#000000" points="331.5,-397 444.5,-397 "/>
<text text-anchor="middle" x="388" y="-385" font-family="Helvetica,sans-Serif" font-size="10.00" fill="#000000"> </text>
<polyline fill="none" stroke="#000000" points="331.5,-378 444.5,-378 "/>
<text text-anchor="start" x="339.5" y="-366" font-family="Helvetica,sans-Serif" font-size="10.00" fill="#000000">+ Trigger()</text>
<text text-anchor="start" x="339.5" y="-355" font-family="Helvetica,sans-Serif" font-size="10.00" fill="#000000">+ MakeTriggerAction()</text>
</a>
</g>
</g>
<!-- Node5&#45;&gt;Node1 -->
<g id="edge4" class="edge">
<title>Node5&#45;&gt;Node1</title>
<path fill="none" stroke="#191970" d="M335.8555,-341.5734C314.1134,-324.7172 288.8073,-305.0978 266.6127,-287.8907"/>
<polygon fill="none" stroke="#191970" points="333.9524,-344.5266 344,-347.8876 338.2414,-338.9944 333.9524,-344.5266"/>
</g>
</g>
</svg>
