<?xml version="1.0" encoding="UTF-8" standalone="no"?>
<!DOCTYPE svg PUBLIC "-//W3C//DTD SVG 1.1//EN"
 "http://www.w3.org/Graphics/SVG/1.1/DTD/svg11.dtd">
<!-- Generated by graphviz version 2.40.1 (20161225.0304)
 -->
<!-- Title: LeanAudioOptions Pages: 1 -->
<svg width="188pt" height="380pt"
 viewBox="0.00 0.00 188.00 380.00" xmlns="http://www.w3.org/2000/svg" xmlns:xlink="http://www.w3.org/1999/xlink">
<g id="graph0" class="graph" transform="scale(1 1) rotate(0) translate(4 376)">
<title>LeanAudioOptions</title>
<polygon fill="#ffffff" stroke="transparent" points="-4,4 -4,-376 184,-376 184,4 -4,4"/>
<!-- Node1 -->
<g id="node1" class="node">
<title>Node1</title>
<g id="a_node1"><a xlink:title=" ">
<polygon fill="#bfbfbf" stroke="#000000" points="3.5,-.5 3.5,-222.5 137.5,-222.5 137.5,-.5 3.5,-.5"/>
<text text-anchor="middle" x="70.5" y="-210.5" font-family="Helvetica,sans-Serif" font-size="10.00" fill="#000000">LeanAudioOptions</text>
<polyline fill="none" stroke="#000000" points="3.5,-203.5 137.5,-203.5 "/>
<text text-anchor="start" x="11.5" y="-191.5" font-family="Helvetica,sans-Serif" font-size="10.00" fill="#000000">+ waveStyle</text>
<text text-anchor="start" x="11.5" y="-180.5" font-family="Helvetica,sans-Serif" font-size="10.00" fill="#000000">+ vibrato</text>
<text text-anchor="start" x="11.5" y="-169.5" font-family="Helvetica,sans-Serif" font-size="10.00" fill="#000000">+ modulation</text>
<text text-anchor="start" x="11.5" y="-158.5" font-family="Helvetica,sans-Serif" font-size="10.00" fill="#000000">+ frequencyRate</text>
<text text-anchor="start" x="11.5" y="-147.5" font-family="Helvetica,sans-Serif" font-size="10.00" fill="#000000">+ waveNoiseScale</text>
<text text-anchor="start" x="11.5" y="-136.5" font-family="Helvetica,sans-Serif" font-size="10.00" fill="#000000">+ waveNoiseInfluence</text>
<text text-anchor="start" x="11.5" y="-125.5" font-family="Helvetica,sans-Serif" font-size="10.00" fill="#000000">+ useSetData</text>
<polyline fill="none" stroke="#000000" points="3.5,-118.5 137.5,-118.5 "/>
<text text-anchor="start" x="11.5" y="-106.5" font-family="Helvetica,sans-Serif" font-size="10.00" fill="#000000">+ LeanAudioOptions()</text>
<text text-anchor="start" x="11.5" y="-95.5" font-family="Helvetica,sans-Serif" font-size="10.00" fill="#000000">+ setFrequency()</text>
<text text-anchor="start" x="11.5" y="-84.5" font-family="Helvetica,sans-Serif" font-size="10.00" fill="#000000">+ setVibrato()</text>
<text text-anchor="start" x="11.5" y="-73.5" font-family="Helvetica,sans-Serif" font-size="10.00" fill="#000000">+ setWaveSine()</text>
<text text-anchor="start" x="11.5" y="-62.5" font-family="Helvetica,sans-Serif" font-size="10.00" fill="#000000">+ setWaveSquare()</text>
<text text-anchor="start" x="11.5" y="-51.5" font-family="Helvetica,sans-Serif" font-size="10.00" fill="#000000">+ setWaveSawtooth()</text>
<text text-anchor="start" x="11.5" y="-40.5" font-family="Helvetica,sans-Serif" font-size="10.00" fill="#000000">+ setWaveNoise()</text>
<text text-anchor="start" x="11.5" y="-29.5" font-family="Helvetica,sans-Serif" font-size="10.00" fill="#000000">+ setWaveStyle()</text>
<text text-anchor="start" x="11.5" y="-18.5" font-family="Helvetica,sans-Serif" font-size="10.00" fill="#000000">+ setWaveNoiseScale()</text>
<text text-anchor="start" x="11.5" y="-7.5" font-family="Helvetica,sans-Serif" font-size="10.00" fill="#000000">+ setWaveNoiseInfluence()</text>
</a>
</g>
</g>
<!-- Node2 -->
<g id="node2" class="node">
<title>Node2</title>
<g id="a_node2"><a xlink:title=" ">
<polygon fill="#ffffff" stroke="#bfbfbf" points="0,-292.5 0,-349.5 43,-349.5 43,-292.5 0,-292.5"/>
<text text-anchor="middle" x="21.5" y="-337.5" font-family="Helvetica,sans-Serif" font-size="10.00" fill="#000000">object</text>
<polyline fill="none" stroke="#bfbfbf" points="0,-330.5 43,-330.5 "/>
<text text-anchor="middle" x="21.5" y="-318.5" font-family="Helvetica,sans-Serif" font-size="10.00" fill="#000000"> </text>
<polyline fill="none" stroke="#bfbfbf" points="0,-311.5 43,-311.5 "/>
<text text-anchor="middle" x="21.5" y="-299.5" font-family="Helvetica,sans-Serif" font-size="10.00" fill="#000000"> </text>
</a>
</g>
</g>
<!-- Node2&#45;&gt;Node1 -->
<g id="edge1" class="edge">
<title>Node2&#45;&gt;Node1</title>
<path fill="none" stroke="#191970" d="M30.5751,-282.1992C34.577,-265.089 39.5045,-244.0216 44.5151,-222.5988"/>
<polygon fill="none" stroke="#191970" points="27.08,-281.7749 28.2105,-292.3092 33.896,-283.3691 27.08,-281.7749"/>
</g>
<!-- Node3 -->
<g id="node3" class="node">
<title>Node3</title>
<g id="a_node3"><a xlink:href="class_lean_audio_stream.html" target="_top" xlink:title=" ">
<polygon fill="#ffffff" stroke="#000000" points="61,-270.5 61,-371.5 180,-371.5 180,-270.5 61,-270.5"/>
<text text-anchor="middle" x="120.5" y="-359.5" font-family="Helvetica,sans-Serif" font-size="10.00" fill="#000000">LeanAudioStream</text>
<polyline fill="none" stroke="#000000" points="61,-352.5 180,-352.5 "/>
<text text-anchor="start" x="69" y="-340.5" font-family="Helvetica,sans-Serif" font-size="10.00" fill="#000000">+ position</text>
<text text-anchor="start" x="69" y="-329.5" font-family="Helvetica,sans-Serif" font-size="10.00" fill="#000000">+ audioClip</text>
<text text-anchor="start" x="69" y="-318.5" font-family="Helvetica,sans-Serif" font-size="10.00" fill="#000000">+ audioArr</text>
<polyline fill="none" stroke="#000000" points="61,-311.5 180,-311.5 "/>
<text text-anchor="start" x="69" y="-299.5" font-family="Helvetica,sans-Serif" font-size="10.00" fill="#000000">+ LeanAudioStream()</text>
<text text-anchor="start" x="69" y="-288.5" font-family="Helvetica,sans-Serif" font-size="10.00" fill="#000000">+ OnAudioRead()</text>
<text text-anchor="start" x="69" y="-277.5" font-family="Helvetica,sans-Serif" font-size="10.00" fill="#000000">+ OnAudioSetPosition()</text>
</a>
</g>
</g>
<!-- Node3&#45;&gt;Node1 -->
<g id="edge2" class="edge">
<title>Node3&#45;&gt;Node1</title>
<path fill="none" stroke="#404040" d="M108.3964,-270.2859C105.7682,-259.2736 102.878,-247.164 99.902,-234.6944"/>
<polygon fill="none" stroke="#404040" points="99.8139,-234.3249 94.5303,-229.4174 97.0281,-222.6527 102.3117,-227.5602 99.8139,-234.3249"/>
<text text-anchor="middle" x="122.5" y="-244" font-family="Helvetica,sans-Serif" font-size="10.00" fill="#000000"> +stream</text>
</g>
</g>
</svg>
