<?xml version="1.0" encoding="UTF-8" standalone="no"?>
<!DOCTYPE svg PUBLIC "-//W3C//DTD SVG 1.1//EN"
 "http://www.w3.org/Graphics/SVG/1.1/DTD/svg11.dtd">
<!-- Generated by graphviz version 2.40.1 (20161225.0304)
 -->
<!-- Title: ScoreTracker Pages: 1 -->
<svg width="103pt" height="204pt"
 viewBox="0.00 0.00 103.00 204.00" xmlns="http://www.w3.org/2000/svg" xmlns:xlink="http://www.w3.org/1999/xlink">
<g id="graph0" class="graph" transform="scale(1 1) rotate(0) translate(4 200)">
<title>ScoreTracker</title>
<!-- Node1 -->
<g id="node1" class="node">
<title>Node1</title>
<g id="a_node1"><a xlink:title=" ">
<polygon fill="#bfbfbf" stroke="#000000" points="0,-.5 0,-101.5 95,-101.5 95,-.5 0,-.5"/>
<text text-anchor="middle" x="47.5" y="-89.5" font-family="Helvetica,sans-Serif" font-size="10.00" fill="#000000">ScoreTracker</text>
<polyline fill="none" stroke="#000000" points="0,-82.5 95,-82.5 "/>
<text text-anchor="start" x="8" y="-70.5" font-family="Helvetica,sans-Serif" font-size="10.00" fill="#000000">+ ScoreText</text>
<text text-anchor="start" x="8" y="-59.5" font-family="Helvetica,sans-Serif" font-size="10.00" fill="#000000">+ HighScoreText</text>
<text text-anchor="start" x="8" y="-48.5" font-family="Helvetica,sans-Serif" font-size="10.00" fill="#000000">+ Instance</text>
<text text-anchor="start" x="8" y="-37.5" font-family="Helvetica,sans-Serif" font-size="10.00" fill="#000000">+ Score</text>
<polyline fill="none" stroke="#000000" points="0,-30.5 95,-30.5 "/>
<text text-anchor="start" x="8" y="-18.5" font-family="Helvetica,sans-Serif" font-size="10.00" fill="#000000">+ IncreaseScore()</text>
<text text-anchor="start" x="8" y="-7.5" font-family="Helvetica,sans-Serif" font-size="10.00" fill="#000000">+ ResetScore()</text>
</a>
</g>
</g>
<!-- Node2 -->
<g id="node2" class="node">
<title>Node2</title>
<g id="a_node2"><a xlink:href="class_mono_behaviour.html" target="_top" xlink:title=" ">
<polygon fill="none" stroke="#000000" points="5.5,-138.5 5.5,-195.5 89.5,-195.5 89.5,-138.5 5.5,-138.5"/>
<text text-anchor="middle" x="47.5" y="-183.5" font-family="Helvetica,sans-Serif" font-size="10.00" fill="#000000">MonoBehaviour</text>
<polyline fill="none" stroke="#000000" points="5.5,-176.5 89.5,-176.5 "/>
<text text-anchor="middle" x="47.5" y="-164.5" font-family="Helvetica,sans-Serif" font-size="10.00" fill="#000000"> </text>
<polyline fill="none" stroke="#000000" points="5.5,-157.5 89.5,-157.5 "/>
<text text-anchor="middle" x="47.5" y="-145.5" font-family="Helvetica,sans-Serif" font-size="10.00" fill="#000000"> </text>
</a>
</g>
</g>
<!-- Node2&#45;&gt;Node1 -->
<g id="edge1" class="edge">
<title>Node2&#45;&gt;Node1</title>
<path fill="none" stroke="#191970" d="M47.5,-128.0826C47.5,-119.6942 47.5,-110.7064 47.5,-101.9373"/>
<polygon fill="none" stroke="#191970" points="44.0001,-128.3258 47.5,-138.3258 51.0001,-128.3259 44.0001,-128.3258"/>
</g>
</g>
</svg>
