<?xml version="1.0" encoding="UTF-8" standalone="no"?>
<!DOCTYPE svg PUBLIC "-//W3C//DTD SVG 1.1//EN"
 "http://www.w3.org/Graphics/SVG/1.1/DTD/svg11.dtd">
<!-- Generated by graphviz version 2.40.1 (20161225.0304)
 -->
<!-- Title: AbsorptionGraph.GraphNode Pages: 1 -->
<svg width="549pt" height="375pt"
 viewBox="0.00 0.00 549.00 375.00" xmlns="http://www.w3.org/2000/svg" xmlns:xlink="http://www.w3.org/1999/xlink">
<g id="graph0" class="graph" transform="scale(1 1) rotate(0) translate(4 371)">
<title>AbsorptionGraph.GraphNode</title>
<!-- Node1 -->
<g id="node1" class="node">
<title>Node1</title>
<g id="a_node1"><a xlink:title=" ">
<polygon fill="#bfbfbf" stroke="#000000" points="197.5,-.5 197.5,-57.5 338.5,-57.5 338.5,-.5 197.5,-.5"/>
<text text-anchor="middle" x="268" y="-45.5" font-family="Helvetica,sans-Serif" font-size="10.00" fill="#000000">AbsorptionGraph.GraphNode</text>
<polyline fill="none" stroke="#000000" points="197.5,-38.5 338.5,-38.5 "/>
<text text-anchor="middle" x="268" y="-26.5" font-family="Helvetica,sans-Serif" font-size="10.00" fill="#000000"> </text>
<polyline fill="none" stroke="#000000" points="197.5,-19.5 338.5,-19.5 "/>
<text text-anchor="start" x="205.5" y="-7.5" font-family="Helvetica,sans-Serif" font-size="10.00" fill="#000000">+ GraphNode()</text>
</a>
</g>
</g>
<!-- Node2 -->
<g id="node2" class="node">
<title>Node2</title>
<g id="a_node2"><a xlink:title=" ">
<polygon fill="none" stroke="#bfbfbf" points="158.5,-149.5 158.5,-206.5 193.5,-206.5 193.5,-149.5 158.5,-149.5"/>
<text text-anchor="middle" x="176" y="-194.5" font-family="Helvetica,sans-Serif" font-size="10.00" fill="#000000">bool</text>
<polyline fill="none" stroke="#bfbfbf" points="158.5,-187.5 193.5,-187.5 "/>
<text text-anchor="middle" x="176" y="-175.5" font-family="Helvetica,sans-Serif" font-size="10.00" fill="#000000"> </text>
<polyline fill="none" stroke="#bfbfbf" points="158.5,-168.5 193.5,-168.5 "/>
<text text-anchor="middle" x="176" y="-156.5" font-family="Helvetica,sans-Serif" font-size="10.00" fill="#000000"> </text>
</a>
</g>
</g>
<!-- Node2&#45;&gt;Node1 -->
<g id="edge1" class="edge">
<title>Node2&#45;&gt;Node1</title>
<path fill="none" stroke="#404040" d="M180.2854,-149.1337C184.5717,-127.5055 192.7963,-97.9794 208,-76 210.3676,-72.5772 213.0592,-69.286 215.9594,-66.1457"/>
<polygon fill="none" stroke="#404040" points="216.0073,-66.0989 217.5024,-59.0444 224.5892,-57.7113 223.0941,-64.7657 216.0073,-66.0989"/>
<text text-anchor="middle" x="236" y="-101" font-family="Helvetica,sans-Serif" font-size="10.00" fill="#000000"> +IsLeaf</text>
<text text-anchor="middle" x="236" y="-90" font-family="Helvetica,sans-Serif" font-size="10.00" fill="#000000">+IsRoot</text>
<text text-anchor="middle" x="236" y="-79" font-family="Helvetica,sans-Serif" font-size="10.00" fill="#000000">+IsExecuted</text>
</g>
<!-- Node3 -->
<g id="node3" class="node">
<title>Node3</title>
<g id="a_node3"><a xlink:href="class_shape.html" target="_top" xlink:title=" ">
<polygon fill="none" stroke="#000000" points="211.5,-127.5 211.5,-228.5 324.5,-228.5 324.5,-127.5 211.5,-127.5"/>
<text text-anchor="middle" x="268" y="-216.5" font-family="Helvetica,sans-Serif" font-size="10.00" fill="#000000">Shape</text>
<polyline fill="none" stroke="#000000" points="211.5,-209.5 324.5,-209.5 "/>
<text text-anchor="start" x="219.5" y="-197.5" font-family="Helvetica,sans-Serif" font-size="10.00" fill="#000000">+ Position</text>
<text text-anchor="start" x="219.5" y="-186.5" font-family="Helvetica,sans-Serif" font-size="10.00" fill="#000000">+ IsDragging</text>
<text text-anchor="start" x="219.5" y="-175.5" font-family="Helvetica,sans-Serif" font-size="10.00" fill="#000000">+ CanBeDragged</text>
<polyline fill="none" stroke="#000000" points="211.5,-168.5 324.5,-168.5 "/>
<text text-anchor="start" x="219.5" y="-156.5" font-family="Helvetica,sans-Serif" font-size="10.00" fill="#000000">+ Trigger()</text>
<text text-anchor="start" x="219.5" y="-145.5" font-family="Helvetica,sans-Serif" font-size="10.00" fill="#000000">+ MakeTriggerAction()</text>
<text text-anchor="start" x="219.5" y="-134.5" font-family="Helvetica,sans-Serif" font-size="10.00" fill="#000000">+ Destroy()</text>
</a>
</g>
</g>
<!-- Node3&#45;&gt;Node1 -->
<g id="edge2" class="edge">
<title>Node3&#45;&gt;Node1</title>
<path fill="none" stroke="#404040" d="M268,-127.1394C268,-108.4158 268,-87.4698 268,-69.7525"/>
<polygon fill="none" stroke="#404040" points="268.0001,-69.5001 264,-63.5002 268,-57.5001 272,-63.5001 268.0001,-69.5001"/>
<text text-anchor="middle" x="286" y="-90" font-family="Helvetica,sans-Serif" font-size="10.00" fill="#000000"> +shape</text>
</g>
<!-- Node4 -->
<g id="node4" class="node">
<title>Node4</title>
<g id="a_node4"><a xlink:href="class_mono_behaviour.html" target="_top" xlink:title=" ">
<polygon fill="none" stroke="#000000" points="0,-298.5 0,-355.5 84,-355.5 84,-298.5 0,-298.5"/>
<text text-anchor="middle" x="42" y="-343.5" font-family="Helvetica,sans-Serif" font-size="10.00" fill="#000000">MonoBehaviour</text>
<polyline fill="none" stroke="#000000" points="0,-336.5 84,-336.5 "/>
<text text-anchor="middle" x="42" y="-324.5" font-family="Helvetica,sans-Serif" font-size="10.00" fill="#000000"> </text>
<polyline fill="none" stroke="#000000" points="0,-317.5 84,-317.5 "/>
<text text-anchor="middle" x="42" y="-305.5" font-family="Helvetica,sans-Serif" font-size="10.00" fill="#000000"> </text>
</a>
</g>
</g>
<!-- Node4&#45;&gt;Node3 -->
<g id="edge3" class="edge">
<title>Node4&#45;&gt;Node3</title>
<path fill="none" stroke="#191970" d="M85.1312,-292.3426C87.761,-290.4895 90.3963,-288.6949 93,-287 138.99,-257.0621 155.9023,-258.7718 202,-229 205.0411,-227.0359 208.1176,-224.9691 211.1937,-222.8383"/>
<polygon fill="none" stroke="#191970" points="82.8216,-289.6946 76.7963,-298.4093 86.9411,-295.3541 82.8216,-289.6946"/>
</g>
<!-- Node5 -->
<g id="node5" class="node">
<title>Node5</title>
<g id="a_node5"><a xlink:href="interface_i_shape.html" target="_top" xlink:title=" ">
<polygon fill="none" stroke="#000000" points="102,-287.5 102,-366.5 204,-366.5 204,-287.5 102,-287.5"/>
<text text-anchor="middle" x="153" y="-354.5" font-family="Helvetica,sans-Serif" font-size="10.00" fill="#000000">IShape</text>
<polyline fill="none" stroke="#000000" points="102,-347.5 204,-347.5 "/>
<text text-anchor="start" x="110" y="-335.5" font-family="Helvetica,sans-Serif" font-size="10.00" fill="#000000">+ Position</text>
<text text-anchor="start" x="110" y="-324.5" font-family="Helvetica,sans-Serif" font-size="10.00" fill="#000000">+ ClosestNeighbors</text>
<text text-anchor="start" x="110" y="-313.5" font-family="Helvetica,sans-Serif" font-size="10.00" fill="#000000">+ Neighbors</text>
<polyline fill="none" stroke="#000000" points="102,-306.5 204,-306.5 "/>
<text text-anchor="middle" x="153" y="-294.5" font-family="Helvetica,sans-Serif" font-size="10.00" fill="#000000"> </text>
</a>
</g>
</g>
<!-- Node5&#45;&gt;Node3 -->
<g id="edge4" class="edge">
<title>Node5&#45;&gt;Node3</title>
<path fill="none" stroke="#191970" d="M189.8742,-279.2239C202.3204,-263.0979 216.2529,-245.0463 228.8675,-228.7021"/>
<polygon fill="none" stroke="#191970" points="186.8552,-277.4071 183.516,-287.4619 192.3967,-281.684 186.8552,-277.4071"/>
</g>
<!-- Node6 -->
<g id="node6" class="node">
<title>Node6</title>
<g id="a_node6"><a xlink:href="interface_i_draggable.html" target="_top" xlink:title=" ">
<polygon fill="none" stroke="#000000" points="222.5,-293 222.5,-361 313.5,-361 313.5,-293 222.5,-293"/>
<text text-anchor="middle" x="268" y="-349" font-family="Helvetica,sans-Serif" font-size="10.00" fill="#000000">IDraggable</text>
<polyline fill="none" stroke="#000000" points="222.5,-342 313.5,-342 "/>
<text text-anchor="start" x="230.5" y="-330" font-family="Helvetica,sans-Serif" font-size="10.00" fill="#000000">+ CanBeDragged</text>
<text text-anchor="start" x="230.5" y="-319" font-family="Helvetica,sans-Serif" font-size="10.00" fill="#000000">+ IsDragging</text>
<polyline fill="none" stroke="#000000" points="222.5,-312 313.5,-312 "/>
<text text-anchor="middle" x="268" y="-300" font-family="Helvetica,sans-Serif" font-size="10.00" fill="#000000"> </text>
</a>
</g>
</g>
<!-- Node6&#45;&gt;Node3 -->
<g id="edge5" class="edge">
<title>Node6&#45;&gt;Node3</title>
<path fill="none" stroke="#191970" d="M268,-282.6226C268,-265.6671 268,-246.2084 268,-228.707"/>
<polygon fill="none" stroke="#191970" points="264.5001,-282.8164 268,-292.8164 271.5001,-282.8164 264.5001,-282.8164"/>
</g>
<!-- Node7 -->
<g id="node7" class="node">
<title>Node7</title>
<g id="a_node7"><a xlink:href="interface_i_triggerable.html" target="_top" xlink:title=" ">
<polygon fill="none" stroke="#000000" points="331.5,-293 331.5,-361 444.5,-361 444.5,-293 331.5,-293"/>
<text text-anchor="middle" x="388" y="-349" font-family="Helvetica,sans-Serif" font-size="10.00" fill="#000000">ITriggerable</text>
<polyline fill="none" stroke="#000000" points="331.5,-342 444.5,-342 "/>
<text text-anchor="middle" x="388" y="-330" font-family="Helvetica,sans-Serif" font-size="10.00" fill="#000000"> </text>
<polyline fill="none" stroke="#000000" points="331.5,-323 444.5,-323 "/>
<text text-anchor="start" x="339.5" y="-311" font-family="Helvetica,sans-Serif" font-size="10.00" fill="#000000">+ Trigger()</text>
<text text-anchor="start" x="339.5" y="-300" font-family="Helvetica,sans-Serif" font-size="10.00" fill="#000000">+ MakeTriggerAction()</text>
</a>
</g>
</g>
<!-- Node7&#45;&gt;Node3 -->
<g id="edge6" class="edge">
<title>Node7&#45;&gt;Node3</title>
<path fill="none" stroke="#191970" d="M354.1783,-285.0047C340.0863,-267.5071 323.5978,-247.0339 308.8378,-228.707"/>
<polygon fill="none" stroke="#191970" points="351.4712,-287.2235 360.4696,-292.8164 356.923,-282.8328 351.4712,-287.2235"/>
</g>
<!-- Node8 -->
<g id="node8" class="node">
<title>Node8</title>
<g id="a_node8"><a xlink:title=" ">
<polygon fill="none" stroke="#bfbfbf" points="463,-298.5 463,-355.5 541,-355.5 541,-298.5 463,-298.5"/>
<text text-anchor="middle" x="502" y="-343.5" font-family="Helvetica,sans-Serif" font-size="10.00" fill="#000000">List&lt; Shape &gt;</text>
<polyline fill="none" stroke="#bfbfbf" points="463,-336.5 541,-336.5 "/>
<text text-anchor="middle" x="502" y="-324.5" font-family="Helvetica,sans-Serif" font-size="10.00" fill="#000000"> </text>
<polyline fill="none" stroke="#bfbfbf" points="463,-317.5 541,-317.5 "/>
<text text-anchor="middle" x="502" y="-305.5" font-family="Helvetica,sans-Serif" font-size="10.00" fill="#000000"> </text>
</a>
</g>
</g>
<!-- Node8&#45;&gt;Node3 -->
<g id="edge7" class="edge">
<title>Node8&#45;&gt;Node3</title>
<path fill="none" stroke="#404040" d="M469.7659,-298.3459C464.6444,-294.3254 459.2885,-290.4083 454,-287 407.2231,-256.8534 386.886,-259.6671 335.1288,-229.2883"/>
<polygon fill="none" stroke="#404040" points="334.98,-229.1982 327.7757,-229.5125 324.7147,-222.9833 331.919,-222.669 334.98,-229.1982"/>
<text text-anchor="middle" x="463" y="-261" font-family="Helvetica,sans-Serif" font-size="10.00" fill="#000000"> +ClosestNeighbors</text>
<text text-anchor="middle" x="463" y="-250" font-family="Helvetica,sans-Serif" font-size="10.00" fill="#000000">+Neighbors</text>
</g>
<!-- Node9 -->
<g id="node9" class="node">
<title>Node9</title>
<g id="a_node9"><a xlink:title=" ">
<polygon fill="none" stroke="#bfbfbf" points="342.5,-144 342.5,-212 485.5,-212 485.5,-144 342.5,-144"/>
<text text-anchor="start" x="350.5" y="-200" font-family="Helvetica,sans-Serif" font-size="10.00" fill="#000000">List&lt; AbsorptionGraph.Graph</text>
<text text-anchor="middle" x="414" y="-189" font-family="Helvetica,sans-Serif" font-size="10.00" fill="#000000">Node &gt;</text>
<polyline fill="none" stroke="#bfbfbf" points="342.5,-182 485.5,-182 "/>
<text text-anchor="middle" x="414" y="-170" font-family="Helvetica,sans-Serif" font-size="10.00" fill="#000000"> </text>
<polyline fill="none" stroke="#bfbfbf" points="342.5,-163 485.5,-163 "/>
<text text-anchor="middle" x="414" y="-151" font-family="Helvetica,sans-Serif" font-size="10.00" fill="#000000"> </text>
</a>
</g>
</g>
<!-- Node9&#45;&gt;Node1 -->
<g id="edge8" class="edge">
<title>Node9&#45;&gt;Node1</title>
<path fill="none" stroke="#404040" d="M380.5047,-143.8164C357.8108,-120.6562 327.8278,-90.0571 304.5215,-66.2719"/>
<polygon fill="none" stroke="#404040" points="304.3438,-66.0905 297.2874,-64.6045 295.9452,-57.5194 303.0015,-59.0054 304.3438,-66.0905"/>
<text text-anchor="middle" x="386" y="-95.5" font-family="Helvetica,sans-Serif" font-size="10.00" fill="#000000"> +connectionsTo</text>
<text text-anchor="middle" x="386" y="-84.5" font-family="Helvetica,sans-Serif" font-size="10.00" fill="#000000">+connectionsFrom</text>
</g>
</g>
</svg>
