<?xml version="1.0" encoding="UTF-8" standalone="no"?>
<!DOCTYPE svg PUBLIC "-//W3C//DTD SVG 1.1//EN"
 "http://www.w3.org/Graphics/SVG/1.1/DTD/svg11.dtd">
<!-- Generated by graphviz version 2.40.1 (20161225.0304)
 -->
<!-- Title: GeneralBasic Pages: 1 -->
<svg width="122pt" height="171pt"
 viewBox="0.00 0.00 122.00 171.00" xmlns="http://www.w3.org/2000/svg" xmlns:xlink="http://www.w3.org/1999/xlink">
<g id="graph0" class="graph" transform="scale(1 1) rotate(0) translate(4 167)">
<title>GeneralBasic</title>
<polygon fill="#ffffff" stroke="transparent" points="-4,4 -4,-167 118,-167 118,4 -4,4"/>
<!-- Node1 -->
<g id="node1" class="node">
<title>Node1</title>
<g id="a_node1"><a xlink:title=" ">
<polygon fill="#bfbfbf" stroke="#000000" points="0,-.5 0,-68.5 114,-68.5 114,-.5 0,-.5"/>
<text text-anchor="middle" x="57" y="-56.5" font-family="Helvetica,sans-Serif" font-size="10.00" fill="#000000">GeneralBasic</text>
<polyline fill="none" stroke="#000000" points="0,-49.5 114,-49.5 "/>
<text text-anchor="start" x="8" y="-37.5" font-family="Helvetica,sans-Serif" font-size="10.00" fill="#000000">+ prefabAvatar</text>
<polyline fill="none" stroke="#000000" points="0,-30.5 114,-30.5 "/>
<text text-anchor="start" x="8" y="-18.5" font-family="Helvetica,sans-Serif" font-size="10.00" fill="#000000">&#45; Start()</text>
<text text-anchor="start" x="8" y="-7.5" font-family="Helvetica,sans-Serif" font-size="10.00" fill="#000000">&#45; advancedExamples()</text>
</a>
</g>
</g>
<!-- Node2 -->
<g id="node2" class="node">
<title>Node2</title>
<g id="a_node2"><a xlink:title=" ">
<polygon fill="#ffffff" stroke="#bfbfbf" points="15,-105.5 15,-162.5 99,-162.5 99,-105.5 15,-105.5"/>
<text text-anchor="middle" x="57" y="-150.5" font-family="Helvetica,sans-Serif" font-size="10.00" fill="#000000">MonoBehaviour</text>
<polyline fill="none" stroke="#bfbfbf" points="15,-143.5 99,-143.5 "/>
<text text-anchor="middle" x="57" y="-131.5" font-family="Helvetica,sans-Serif" font-size="10.00" fill="#000000"> </text>
<polyline fill="none" stroke="#bfbfbf" points="15,-124.5 99,-124.5 "/>
<text text-anchor="middle" x="57" y="-112.5" font-family="Helvetica,sans-Serif" font-size="10.00" fill="#000000"> </text>
</a>
</g>
</g>
<!-- Node2&#45;&gt;Node1 -->
<g id="edge1" class="edge">
<title>Node2&#45;&gt;Node1</title>
<path fill="none" stroke="#191970" d="M57,-95.4268C57,-86.6025 57,-77.2834 57,-68.6596"/>
<polygon fill="none" stroke="#191970" points="53.5001,-95.4873 57,-105.4873 60.5001,-95.4873 53.5001,-95.4873"/>
</g>
</g>
</svg>
