<?xml version="1.0" encoding="UTF-8" standalone="no"?>
<!DOCTYPE svg PUBLIC "-//W3C//DTD SVG 1.1//EN"
 "http://www.w3.org/Graphics/SVG/1.1/DTD/svg11.dtd">
<!-- Generated by graphviz version 2.40.1 (20161225.0304)
 -->
<!-- Title: Shape Pages: 1 -->
<svg width="549pt" height="248pt"
 viewBox="0.00 0.00 549.00 248.00" xmlns="http://www.w3.org/2000/svg" xmlns:xlink="http://www.w3.org/1999/xlink">
<g id="graph0" class="graph" transform="scale(1 1) rotate(0) translate(4 244)">
<title>Shape</title>
<!-- Node1 -->
<g id="node1" class="node">
<title>Node1</title>
<g id="a_node1"><a xlink:title=" ">
<polygon fill="#bfbfbf" stroke="#000000" points="211.5,-.5 211.5,-101.5 324.5,-101.5 324.5,-.5 211.5,-.5"/>
<text text-anchor="middle" x="268" y="-89.5" font-family="Helvetica,sans-Serif" font-size="10.00" fill="#000000">Shape</text>
<polyline fill="none" stroke="#000000" points="211.5,-82.5 324.5,-82.5 "/>
<text text-anchor="start" x="219.5" y="-70.5" font-family="Helvetica,sans-Serif" font-size="10.00" fill="#000000">+ Position</text>
<text text-anchor="start" x="219.5" y="-59.5" font-family="Helvetica,sans-Serif" font-size="10.00" fill="#000000">+ IsDragging</text>
<text text-anchor="start" x="219.5" y="-48.5" font-family="Helvetica,sans-Serif" font-size="10.00" fill="#000000">+ CanBeDragged</text>
<polyline fill="none" stroke="#000000" points="211.5,-41.5 324.5,-41.5 "/>
<text text-anchor="start" x="219.5" y="-29.5" font-family="Helvetica,sans-Serif" font-size="10.00" fill="#000000">+ Trigger()</text>
<text text-anchor="start" x="219.5" y="-18.5" font-family="Helvetica,sans-Serif" font-size="10.00" fill="#000000">+ MakeTriggerAction()</text>
<text text-anchor="start" x="219.5" y="-7.5" font-family="Helvetica,sans-Serif" font-size="10.00" fill="#000000">+ Destroy()</text>
</a>
</g>
</g>
<!-- Node2 -->
<g id="node2" class="node">
<title>Node2</title>
<g id="a_node2"><a xlink:href="class_mono_behaviour.html" target="_top" xlink:title=" ">
<polygon fill="none" stroke="#000000" points="0,-171.5 0,-228.5 84,-228.5 84,-171.5 0,-171.5"/>
<text text-anchor="middle" x="42" y="-216.5" font-family="Helvetica,sans-Serif" font-size="10.00" fill="#000000">MonoBehaviour</text>
<polyline fill="none" stroke="#000000" points="0,-209.5 84,-209.5 "/>
<text text-anchor="middle" x="42" y="-197.5" font-family="Helvetica,sans-Serif" font-size="10.00" fill="#000000"> </text>
<polyline fill="none" stroke="#000000" points="0,-190.5 84,-190.5 "/>
<text text-anchor="middle" x="42" y="-178.5" font-family="Helvetica,sans-Serif" font-size="10.00" fill="#000000"> </text>
</a>
</g>
</g>
<!-- Node2&#45;&gt;Node1 -->
<g id="edge1" class="edge">
<title>Node2&#45;&gt;Node1</title>
<path fill="none" stroke="#191970" d="M85.7877,-165.1737C88.2092,-163.3994 90.6239,-161.6645 93,-160 131.5503,-132.9945 176.6715,-104.9723 211.4411,-84.1036"/>
<polygon fill="none" stroke="#191970" points="83.489,-162.5222 77.5748,-171.3127 87.68,-168.1289 83.489,-162.5222"/>
</g>
<!-- Node3 -->
<g id="node3" class="node">
<title>Node3</title>
<g id="a_node3"><a xlink:href="interface_i_shape.html" target="_top" xlink:title=" ">
<polygon fill="none" stroke="#000000" points="102,-160.5 102,-239.5 204,-239.5 204,-160.5 102,-160.5"/>
<text text-anchor="middle" x="153" y="-227.5" font-family="Helvetica,sans-Serif" font-size="10.00" fill="#000000">IShape</text>
<polyline fill="none" stroke="#000000" points="102,-220.5 204,-220.5 "/>
<text text-anchor="start" x="110" y="-208.5" font-family="Helvetica,sans-Serif" font-size="10.00" fill="#000000">+ Position</text>
<text text-anchor="start" x="110" y="-197.5" font-family="Helvetica,sans-Serif" font-size="10.00" fill="#000000">+ ClosestNeighbors</text>
<text text-anchor="start" x="110" y="-186.5" font-family="Helvetica,sans-Serif" font-size="10.00" fill="#000000">+ Neighbors</text>
<polyline fill="none" stroke="#000000" points="102,-179.5 204,-179.5 "/>
<text text-anchor="middle" x="153" y="-167.5" font-family="Helvetica,sans-Serif" font-size="10.00" fill="#000000"> </text>
</a>
</g>
</g>
<!-- Node3&#45;&gt;Node1 -->
<g id="edge2" class="edge">
<title>Node3&#45;&gt;Node1</title>
<path fill="none" stroke="#191970" d="M189.8742,-152.2239C202.3204,-136.0979 216.2529,-118.0463 228.8675,-101.7021"/>
<polygon fill="none" stroke="#191970" points="186.8552,-150.4071 183.516,-160.4619 192.3967,-154.684 186.8552,-150.4071"/>
</g>
<!-- Node4 -->
<g id="node4" class="node">
<title>Node4</title>
<g id="a_node4"><a xlink:href="interface_i_draggable.html" target="_top" xlink:title=" ">
<polygon fill="none" stroke="#000000" points="222.5,-166 222.5,-234 313.5,-234 313.5,-166 222.5,-166"/>
<text text-anchor="middle" x="268" y="-222" font-family="Helvetica,sans-Serif" font-size="10.00" fill="#000000">IDraggable</text>
<polyline fill="none" stroke="#000000" points="222.5,-215 313.5,-215 "/>
<text text-anchor="start" x="230.5" y="-203" font-family="Helvetica,sans-Serif" font-size="10.00" fill="#000000">+ CanBeDragged</text>
<text text-anchor="start" x="230.5" y="-192" font-family="Helvetica,sans-Serif" font-size="10.00" fill="#000000">+ IsDragging</text>
<polyline fill="none" stroke="#000000" points="222.5,-185 313.5,-185 "/>
<text text-anchor="middle" x="268" y="-173" font-family="Helvetica,sans-Serif" font-size="10.00" fill="#000000"> </text>
</a>
</g>
</g>
<!-- Node4&#45;&gt;Node1 -->
<g id="edge3" class="edge">
<title>Node4&#45;&gt;Node1</title>
<path fill="none" stroke="#191970" d="M268,-155.6226C268,-138.6671 268,-119.2084 268,-101.707"/>
<polygon fill="none" stroke="#191970" points="264.5001,-155.8164 268,-165.8164 271.5001,-155.8164 264.5001,-155.8164"/>
</g>
<!-- Node5 -->
<g id="node5" class="node">
<title>Node5</title>
<g id="a_node5"><a xlink:href="interface_i_triggerable.html" target="_top" xlink:title=" ">
<polygon fill="none" stroke="#000000" points="331.5,-166 331.5,-234 444.5,-234 444.5,-166 331.5,-166"/>
<text text-anchor="middle" x="388" y="-222" font-family="Helvetica,sans-Serif" font-size="10.00" fill="#000000">ITriggerable</text>
<polyline fill="none" stroke="#000000" points="331.5,-215 444.5,-215 "/>
<text text-anchor="middle" x="388" y="-203" font-family="Helvetica,sans-Serif" font-size="10.00" fill="#000000"> </text>
<polyline fill="none" stroke="#000000" points="331.5,-196 444.5,-196 "/>
<text text-anchor="start" x="339.5" y="-184" font-family="Helvetica,sans-Serif" font-size="10.00" fill="#000000">+ Trigger()</text>
<text text-anchor="start" x="339.5" y="-173" font-family="Helvetica,sans-Serif" font-size="10.00" fill="#000000">+ MakeTriggerAction()</text>
</a>
</g>
</g>
<!-- Node5&#45;&gt;Node1 -->
<g id="edge4" class="edge">
<title>Node5&#45;&gt;Node1</title>
<path fill="none" stroke="#191970" d="M354.1783,-158.0047C340.0863,-140.5071 323.5978,-120.0339 308.8378,-101.707"/>
<polygon fill="none" stroke="#191970" points="351.4712,-160.2235 360.4696,-165.8164 356.923,-155.8328 351.4712,-160.2235"/>
</g>
<!-- Node6 -->
<g id="node6" class="node">
<title>Node6</title>
<g id="a_node6"><a xlink:title=" ">
<polygon fill="none" stroke="#bfbfbf" points="463,-171.5 463,-228.5 541,-228.5 541,-171.5 463,-171.5"/>
<text text-anchor="middle" x="502" y="-216.5" font-family="Helvetica,sans-Serif" font-size="10.00" fill="#000000">List&lt; Shape &gt;</text>
<polyline fill="none" stroke="#bfbfbf" points="463,-209.5 541,-209.5 "/>
<text text-anchor="middle" x="502" y="-197.5" font-family="Helvetica,sans-Serif" font-size="10.00" fill="#000000"> </text>
<polyline fill="none" stroke="#bfbfbf" points="463,-190.5 541,-190.5 "/>
<text text-anchor="middle" x="502" y="-178.5" font-family="Helvetica,sans-Serif" font-size="10.00" fill="#000000"> </text>
</a>
</g>
</g>
<!-- Node6&#45;&gt;Node1 -->
<g id="edge5" class="edge">
<title>Node6&#45;&gt;Node1</title>
<path fill="none" stroke="#404040" d="M468.9873,-171.2987C464.0635,-167.3702 458.9707,-163.4919 454,-160 416.2534,-133.4827 371.7398,-107.2335 335.7243,-87.1408"/>
<polygon fill="none" stroke="#404040" points="335.3337,-86.9245 328.1469,-87.5159 324.8368,-81.1093 332.0236,-80.518 335.3337,-86.9245"/>
<text text-anchor="middle" x="467" y="-134" font-family="Helvetica,sans-Serif" font-size="10.00" fill="#000000"> +ClosestNeighbors</text>
<text text-anchor="middle" x="467" y="-123" font-family="Helvetica,sans-Serif" font-size="10.00" fill="#000000">+Neighbors</text>
</g>
</g>
</svg>
