<?xml version="1.0" encoding="UTF-8" standalone="no"?>
<!DOCTYPE svg PUBLIC "-//W3C//DTD SVG 1.1//EN"
 "http://www.w3.org/Graphics/SVG/1.1/DTD/svg11.dtd">
<!-- Generated by graphviz version 2.40.1 (20161225.0304)
 -->
<!-- Title: Shape Pages: 1 -->
<svg width="453pt" height="551pt"
 viewBox="0.00 0.00 452.50 551.00" xmlns="http://www.w3.org/2000/svg" xmlns:xlink="http://www.w3.org/1999/xlink">
<g id="graph0" class="graph" transform="scale(1 1) rotate(0) translate(4 547)">
<title>Shape</title>
<polygon fill="#ffffff" stroke="transparent" points="-4,4 -4,-547 448.5,-547 448.5,4 -4,4"/>
<!-- Node1 -->
<g id="node1" class="node">
<title>Node1</title>
<g id="a_node1"><a xlink:title=" ">
<polygon fill="#bfbfbf" stroke="#000000" points="139.5,-182.5 139.5,-426.5 280.5,-426.5 280.5,-182.5 139.5,-182.5"/>
<text text-anchor="middle" x="210" y="-414.5" font-family="Helvetica,sans-Serif" font-size="10.00" fill="#000000">Shape</text>
<polyline fill="none" stroke="#000000" points="139.5,-407.5 280.5,-407.5 "/>
<text text-anchor="start" x="147.5" y="-395.5" font-family="Helvetica,sans-Serif" font-size="10.00" fill="#000000">+ ClosestNeighbors</text>
<text text-anchor="start" x="147.5" y="-384.5" font-family="Helvetica,sans-Serif" font-size="10.00" fill="#000000">+ Neighbors</text>
<text text-anchor="start" x="147.5" y="-373.5" font-family="Helvetica,sans-Serif" font-size="10.00" fill="#000000">+ Position</text>
<text text-anchor="start" x="147.5" y="-362.5" font-family="Helvetica,sans-Serif" font-size="10.00" fill="#000000">+ IsDragging</text>
<text text-anchor="start" x="147.5" y="-351.5" font-family="Helvetica,sans-Serif" font-size="10.00" fill="#000000">+ CanBeDragged</text>
<text text-anchor="start" x="147.5" y="-340.5" font-family="Helvetica,sans-Serif" font-size="10.00" fill="#000000">&#45; m_MouseEntered</text>
<text text-anchor="start" x="147.5" y="-329.5" font-family="Helvetica,sans-Serif" font-size="10.00" fill="#000000">&#45; m_DraggingStartPosition</text>
<text text-anchor="start" x="147.5" y="-318.5" font-family="Helvetica,sans-Serif" font-size="10.00" fill="#000000">&#45; m_DraggingCurrentPosition</text>
<text text-anchor="start" x="147.5" y="-307.5" font-family="Helvetica,sans-Serif" font-size="10.00" fill="#000000">&#45; m_DraggablePlane</text>
<polyline fill="none" stroke="#000000" points="139.5,-300.5 280.5,-300.5 "/>
<text text-anchor="start" x="147.5" y="-288.5" font-family="Helvetica,sans-Serif" font-size="10.00" fill="#000000">+ Trigger()</text>
<text text-anchor="start" x="147.5" y="-277.5" font-family="Helvetica,sans-Serif" font-size="10.00" fill="#000000">+ MakeTriggerAction()</text>
<text text-anchor="start" x="147.5" y="-266.5" font-family="Helvetica,sans-Serif" font-size="10.00" fill="#000000">+ Destroy()</text>
<text text-anchor="start" x="147.5" y="-255.5" font-family="Helvetica,sans-Serif" font-size="10.00" fill="#000000">&#45; Awake()</text>
<text text-anchor="start" x="147.5" y="-244.5" font-family="Helvetica,sans-Serif" font-size="10.00" fill="#000000">&#45; Update()</text>
<text text-anchor="start" x="147.5" y="-233.5" font-family="Helvetica,sans-Serif" font-size="10.00" fill="#000000">&#45; InitDraggable()</text>
<text text-anchor="start" x="147.5" y="-222.5" font-family="Helvetica,sans-Serif" font-size="10.00" fill="#000000">&#45; OnMouseEnter()</text>
<text text-anchor="start" x="147.5" y="-211.5" font-family="Helvetica,sans-Serif" font-size="10.00" fill="#000000">&#45; OnMouseExit()</text>
<text text-anchor="start" x="147.5" y="-200.5" font-family="Helvetica,sans-Serif" font-size="10.00" fill="#000000">&#45; UpdateDraggable()</text>
<text text-anchor="start" x="147.5" y="-189.5" font-family="Helvetica,sans-Serif" font-size="10.00" fill="#000000">&#45; UpdateDraggablePosition()</text>
</a>
</g>
</g>
<!-- Node6 -->
<g id="node6" class="node">
<title>Node6</title>
<g id="a_node6"><a xlink:href="class_base_shape.html" target="_top" xlink:title=" ">
<polygon fill="#ffffff" stroke="#000000" points="117.5,-39 117.5,-107 184.5,-107 184.5,-39 117.5,-39"/>
<text text-anchor="middle" x="151" y="-95" font-family="Helvetica,sans-Serif" font-size="10.00" fill="#000000">BaseShape</text>
<polyline fill="none" stroke="#000000" points="117.5,-88 184.5,-88 "/>
<text text-anchor="start" x="125.5" y="-76" font-family="Helvetica,sans-Serif" font-size="10.00" fill="#000000">+ Type</text>
<text text-anchor="start" x="125.5" y="-65" font-family="Helvetica,sans-Serif" font-size="10.00" fill="#000000">&#45; m_Type</text>
<polyline fill="none" stroke="#000000" points="117.5,-58 184.5,-58 "/>
<text text-anchor="start" x="125.5" y="-46" font-family="Helvetica,sans-Serif" font-size="10.00" fill="#000000">+ Destroy()</text>
</a>
</g>
</g>
<!-- Node1&#45;&gt;Node6 -->
<g id="edge5" class="edge">
<title>Node1&#45;&gt;Node6</title>
<path fill="none" stroke="#191970" d="M176.3109,-172.3132C170.1741,-148.234 164.2842,-125.1236 159.7327,-107.2647"/>
<polygon fill="none" stroke="#191970" points="172.9974,-173.484 178.8587,-182.3098 179.7805,-171.7552 172.9974,-173.484"/>
</g>
<!-- Node7 -->
<g id="node7" class="node">
<title>Node7</title>
<g id="a_node7"><a xlink:href="class_transistor_shape.html" target="_top" xlink:title=" ">
<polygon fill="#ffffff" stroke="#000000" points="202.5,-.5 202.5,-145.5 335.5,-145.5 335.5,-.5 202.5,-.5"/>
<text text-anchor="middle" x="269" y="-133.5" font-family="Helvetica,sans-Serif" font-size="10.00" fill="#000000">TransistorShape</text>
<polyline fill="none" stroke="#000000" points="202.5,-126.5 335.5,-126.5 "/>
<text text-anchor="start" x="210.5" y="-114.5" font-family="Helvetica,sans-Serif" font-size="10.00" fill="#000000">+ InputHolder</text>
<text text-anchor="start" x="210.5" y="-103.5" font-family="Helvetica,sans-Serif" font-size="10.00" fill="#000000">+ Absorbed</text>
<text text-anchor="start" x="210.5" y="-92.5" font-family="Helvetica,sans-Serif" font-size="10.00" fill="#000000">+ InputType</text>
<text text-anchor="start" x="210.5" y="-81.5" font-family="Helvetica,sans-Serif" font-size="10.00" fill="#000000">+ OutputType</text>
<polyline fill="none" stroke="#000000" points="202.5,-74.5 335.5,-74.5 "/>
<text text-anchor="start" x="210.5" y="-62.5" font-family="Helvetica,sans-Serif" font-size="10.00" fill="#000000">+ SetupIOTypes()</text>
<text text-anchor="start" x="210.5" y="-51.5" font-family="Helvetica,sans-Serif" font-size="10.00" fill="#000000">+ SetAbsorbed()</text>
<text text-anchor="start" x="210.5" y="-40.5" font-family="Helvetica,sans-Serif" font-size="10.00" fill="#000000">+ CanAbsorp()</text>
<text text-anchor="start" x="210.5" y="-29.5" font-family="Helvetica,sans-Serif" font-size="10.00" fill="#000000">+ CanAbsorpToExplosion()</text>
<text text-anchor="start" x="210.5" y="-18.5" font-family="Helvetica,sans-Serif" font-size="10.00" fill="#000000">+ Trigger()</text>
<text text-anchor="start" x="210.5" y="-7.5" font-family="Helvetica,sans-Serif" font-size="10.00" fill="#000000">+ MakeTriggerAction()</text>
</a>
</g>
</g>
<!-- Node1&#45;&gt;Node7 -->
<g id="edge6" class="edge">
<title>Node1&#45;&gt;Node7</title>
<path fill="none" stroke="#191970" d="M243.6717,-172.3814C245.9934,-163.2715 248.28,-154.2997 250.4723,-145.6978"/>
<polygon fill="none" stroke="#191970" points="240.2195,-171.7552 241.1413,-182.3098 247.0026,-173.484 240.2195,-171.7552"/>
</g>
<!-- Node2 -->
<g id="node2" class="node">
<title>Node2</title>
<g id="a_node2"><a xlink:title=" ">
<polygon fill="#ffffff" stroke="#bfbfbf" points="0,-474.5 0,-531.5 84,-531.5 84,-474.5 0,-474.5"/>
<text text-anchor="middle" x="42" y="-519.5" font-family="Helvetica,sans-Serif" font-size="10.00" fill="#000000">MonoBehaviour</text>
<polyline fill="none" stroke="#bfbfbf" points="0,-512.5 84,-512.5 "/>
<text text-anchor="middle" x="42" y="-500.5" font-family="Helvetica,sans-Serif" font-size="10.00" fill="#000000"> </text>
<polyline fill="none" stroke="#bfbfbf" points="0,-493.5 84,-493.5 "/>
<text text-anchor="middle" x="42" y="-481.5" font-family="Helvetica,sans-Serif" font-size="10.00" fill="#000000"> </text>
</a>
</g>
</g>
<!-- Node2&#45;&gt;Node1 -->
<g id="edge1" class="edge">
<title>Node2&#45;&gt;Node1</title>
<path fill="none" stroke="#191970" d="M73.0229,-466.345C91.6818,-444.2986 116.2332,-415.2899 139.3909,-387.928"/>
<polygon fill="none" stroke="#191970" points="70.2174,-464.2421 66.4286,-474.1364 75.5606,-468.7644 70.2174,-464.2421"/>
</g>
<!-- Node3 -->
<g id="node3" class="node">
<title>Node3</title>
<g id="a_node3"><a xlink:href="interface_i_shape.html" target="_top" xlink:title=" ">
<polygon fill="#ffffff" stroke="#000000" points="102,-463.5 102,-542.5 204,-542.5 204,-463.5 102,-463.5"/>
<text text-anchor="middle" x="153" y="-530.5" font-family="Helvetica,sans-Serif" font-size="10.00" fill="#000000">IShape</text>
<polyline fill="none" stroke="#000000" points="102,-523.5 204,-523.5 "/>
<text text-anchor="start" x="110" y="-511.5" font-family="Helvetica,sans-Serif" font-size="10.00" fill="#000000">+ Position</text>
<text text-anchor="start" x="110" y="-500.5" font-family="Helvetica,sans-Serif" font-size="10.00" fill="#000000">+ ClosestNeighbors</text>
<text text-anchor="start" x="110" y="-489.5" font-family="Helvetica,sans-Serif" font-size="10.00" fill="#000000">+ Neighbors</text>
<polyline fill="none" stroke="#000000" points="102,-482.5 204,-482.5 "/>
<text text-anchor="middle" x="153" y="-470.5" font-family="Helvetica,sans-Serif" font-size="10.00" fill="#000000"> </text>
</a>
</g>
</g>
<!-- Node3&#45;&gt;Node1 -->
<g id="edge2" class="edge">
<title>Node3&#45;&gt;Node1</title>
<path fill="none" stroke="#191970" d="M167.2348,-453.4278C169.6405,-445.0501 172.2289,-436.036 174.8992,-426.7371"/>
<polygon fill="none" stroke="#191970" points="163.7938,-452.73 164.3978,-463.3076 170.5219,-454.6621 163.7938,-452.73"/>
</g>
<!-- Node4 -->
<g id="node4" class="node">
<title>Node4</title>
<g id="a_node4"><a xlink:href="interface_i_draggable.html" target="_top" xlink:title=" ">
<polygon fill="#ffffff" stroke="#000000" points="222.5,-469 222.5,-537 313.5,-537 313.5,-469 222.5,-469"/>
<text text-anchor="middle" x="268" y="-525" font-family="Helvetica,sans-Serif" font-size="10.00" fill="#000000">IDraggable</text>
<polyline fill="none" stroke="#000000" points="222.5,-518 313.5,-518 "/>
<text text-anchor="start" x="230.5" y="-506" font-family="Helvetica,sans-Serif" font-size="10.00" fill="#000000">+ CanBeDragged</text>
<text text-anchor="start" x="230.5" y="-495" font-family="Helvetica,sans-Serif" font-size="10.00" fill="#000000">+ IsDragging</text>
<polyline fill="none" stroke="#000000" points="222.5,-488 313.5,-488 "/>
<text text-anchor="middle" x="268" y="-476" font-family="Helvetica,sans-Serif" font-size="10.00" fill="#000000"> </text>
</a>
</g>
</g>
<!-- Node4&#45;&gt;Node1 -->
<g id="edge3" class="edge">
<title>Node4&#45;&gt;Node1</title>
<path fill="none" stroke="#191970" d="M255.1449,-459.0047C252.2608,-449.134 249.064,-438.1931 245.7422,-426.8246"/>
<polygon fill="none" stroke="#191970" points="251.8652,-460.2596 258.0294,-468.8766 258.5843,-458.2963 251.8652,-460.2596"/>
</g>
<!-- Node5 -->
<g id="node5" class="node">
<title>Node5</title>
<g id="a_node5"><a xlink:href="interface_i_triggerable.html" target="_top" xlink:title=" ">
<polygon fill="#ffffff" stroke="#000000" points="331.5,-469 331.5,-537 444.5,-537 444.5,-469 331.5,-469"/>
<text text-anchor="middle" x="388" y="-525" font-family="Helvetica,sans-Serif" font-size="10.00" fill="#000000">ITriggerable</text>
<polyline fill="none" stroke="#000000" points="331.5,-518 444.5,-518 "/>
<text text-anchor="middle" x="388" y="-506" font-family="Helvetica,sans-Serif" font-size="10.00" fill="#000000"> </text>
<polyline fill="none" stroke="#000000" points="331.5,-499 444.5,-499 "/>
<text text-anchor="start" x="339.5" y="-487" font-family="Helvetica,sans-Serif" font-size="10.00" fill="#000000">+ Trigger()</text>
<text text-anchor="start" x="339.5" y="-476" font-family="Helvetica,sans-Serif" font-size="10.00" fill="#000000">+ MakeTriggerAction()</text>
</a>
</g>
</g>
<!-- Node5&#45;&gt;Node1 -->
<g id="edge4" class="edge">
<title>Node5&#45;&gt;Node1</title>
<path fill="none" stroke="#191970" d="M350.484,-461.1633C330.2584,-438.6084 304.6264,-410.0244 280.8098,-383.4649"/>
<polygon fill="none" stroke="#191970" points="348.1187,-463.7682 357.4007,-468.8766 353.3303,-459.0949 348.1187,-463.7682"/>
</g>
</g>
</svg>
