<?xml version="1.0" encoding="UTF-8" standalone="no"?>
<!DOCTYPE svg PUBLIC "-//W3C//DTD SVG 1.1//EN"
 "http://www.w3.org/Graphics/SVG/1.1/DTD/svg11.dtd">
<!-- Generated by graphviz version 2.40.1 (20161225.0304)
 -->
<!-- Title: GeneralUISpace Pages: 1 -->
<svg width="180pt" height="314pt"
 viewBox="0.00 0.00 179.50 314.00" xmlns="http://www.w3.org/2000/svg" xmlns:xlink="http://www.w3.org/1999/xlink">
<g id="graph0" class="graph" transform="scale(1 1) rotate(0) translate(4 310)">
<title>GeneralUISpace</title>
<polygon fill="#ffffff" stroke="transparent" points="-4,4 -4,-310 175.5,-310 175.5,4 -4,4"/>
<!-- Node1 -->
<g id="node1" class="node">
<title>Node1</title>
<g id="a_node1"><a xlink:title=" ">
<polygon fill="#bfbfbf" stroke="#000000" points="34,-.5 34,-200.5 144,-200.5 144,-.5 34,-.5"/>
<text text-anchor="middle" x="89" y="-188.5" font-family="Helvetica,sans-Serif" font-size="10.00" fill="#000000">GeneralUISpace</text>
<polyline fill="none" stroke="#000000" points="34,-181.5 144,-181.5 "/>
<text text-anchor="start" x="42" y="-169.5" font-family="Helvetica,sans-Serif" font-size="10.00" fill="#000000">+ mainWindow</text>
<text text-anchor="start" x="42" y="-158.5" font-family="Helvetica,sans-Serif" font-size="10.00" fill="#000000">+ mainParagraphText</text>
<text text-anchor="start" x="42" y="-147.5" font-family="Helvetica,sans-Serif" font-size="10.00" fill="#000000">+ mainTitleText</text>
<text text-anchor="start" x="42" y="-136.5" font-family="Helvetica,sans-Serif" font-size="10.00" fill="#000000">+ mainButton1</text>
<text text-anchor="start" x="42" y="-125.5" font-family="Helvetica,sans-Serif" font-size="10.00" fill="#000000">+ mainButton2</text>
<text text-anchor="start" x="42" y="-114.5" font-family="Helvetica,sans-Serif" font-size="10.00" fill="#000000">+ pauseRing1</text>
<text text-anchor="start" x="42" y="-103.5" font-family="Helvetica,sans-Serif" font-size="10.00" fill="#000000">+ pauseRing2</text>
<text text-anchor="start" x="42" y="-92.5" font-family="Helvetica,sans-Serif" font-size="10.00" fill="#000000">+ pauseWindow</text>
<text text-anchor="start" x="42" y="-81.5" font-family="Helvetica,sans-Serif" font-size="10.00" fill="#000000">+ chatWindow</text>
<text text-anchor="start" x="42" y="-70.5" font-family="Helvetica,sans-Serif" font-size="10.00" fill="#000000">+ chatRect</text>
<text text-anchor="start" x="42" y="-59.5" font-family="Helvetica,sans-Serif" font-size="10.00" fill="#000000">+ chatSprites</text>
<text text-anchor="start" x="42" y="-48.5" font-family="Helvetica,sans-Serif" font-size="10.00" fill="#000000">+ chatBar1</text>
<text text-anchor="start" x="42" y="-37.5" font-family="Helvetica,sans-Serif" font-size="10.00" fill="#000000">+ chatBar2</text>
<text text-anchor="start" x="42" y="-26.5" font-family="Helvetica,sans-Serif" font-size="10.00" fill="#000000">+ rawImageRect</text>
<polyline fill="none" stroke="#000000" points="34,-19.5 144,-19.5 "/>
<text text-anchor="start" x="42" y="-7.5" font-family="Helvetica,sans-Serif" font-size="10.00" fill="#000000">&#45; Start()</text>
</a>
</g>
</g>
<!-- Node2 -->
<g id="node2" class="node">
<title>Node2</title>
<g id="a_node2"><a xlink:title=" ">
<polygon fill="#ffffff" stroke="#bfbfbf" points="0,-248.5 0,-305.5 84,-305.5 84,-248.5 0,-248.5"/>
<text text-anchor="middle" x="42" y="-293.5" font-family="Helvetica,sans-Serif" font-size="10.00" fill="#000000">MonoBehaviour</text>
<polyline fill="none" stroke="#bfbfbf" points="0,-286.5 84,-286.5 "/>
<text text-anchor="middle" x="42" y="-274.5" font-family="Helvetica,sans-Serif" font-size="10.00" fill="#000000"> </text>
<polyline fill="none" stroke="#bfbfbf" points="0,-267.5 84,-267.5 "/>
<text text-anchor="middle" x="42" y="-255.5" font-family="Helvetica,sans-Serif" font-size="10.00" fill="#000000"> </text>
</a>
</g>
</g>
<!-- Node2&#45;&gt;Node1 -->
<g id="edge1" class="edge">
<title>Node2&#45;&gt;Node1</title>
<path fill="none" stroke="#191970" d="M52.302,-238.3126C55.3257,-226.9576 58.7808,-213.9826 62.3343,-200.6381"/>
<polygon fill="none" stroke="#191970" points="48.8471,-237.6855 49.656,-248.2494 55.6114,-239.4868 48.8471,-237.6855"/>
</g>
<!-- Node3 -->
<g id="node3" class="node">
<title>Node3</title>
<g id="a_node3"><a xlink:title=" ">
<polygon fill="#ffffff" stroke="#bfbfbf" points="102.5,-248.5 102.5,-305.5 171.5,-305.5 171.5,-248.5 102.5,-248.5"/>
<text text-anchor="middle" x="137" y="-293.5" font-family="Helvetica,sans-Serif" font-size="10.00" fill="#000000">UnityEngine</text>
<polyline fill="none" stroke="#bfbfbf" points="102.5,-286.5 171.5,-286.5 "/>
<text text-anchor="middle" x="137" y="-274.5" font-family="Helvetica,sans-Serif" font-size="10.00" fill="#000000"> </text>
<polyline fill="none" stroke="#bfbfbf" points="102.5,-267.5 171.5,-267.5 "/>
<text text-anchor="middle" x="137" y="-255.5" font-family="Helvetica,sans-Serif" font-size="10.00" fill="#000000"> </text>
</a>
</g>
</g>
<!-- Node3&#45;&gt;Node1 -->
<g id="edge2" class="edge">
<title>Node3&#45;&gt;Node1</title>
<path fill="none" stroke="#404040" d="M129.1811,-248.2494C126.3663,-237.8989 122.9955,-225.5044 119.4196,-212.3553"/>
<polygon fill="none" stroke="#404040" points="119.3822,-212.2176 113.9478,-207.4776 116.233,-200.6381 121.6674,-205.3781 119.3822,-212.2176"/>
<text text-anchor="middle" x="147.5" y="-222" font-family="Helvetica,sans-Serif" font-size="10.00" fill="#000000"> +chatText</text>
</g>
</g>
</svg>
