<?xml version="1.0" encoding="UTF-8" standalone="no"?>
<!DOCTYPE svg PUBLIC "-//W3C//DTD SVG 1.1//EN"
 "http://www.w3.org/Graphics/SVG/1.1/DTD/svg11.dtd">
<!-- Generated by graphviz version 2.40.1 (20161225.0304)
 -->
<!-- Title: Иерархия классов. Графический вид. Pages: 1 -->
<svg width="356pt" height="360pt"
 viewBox="0.00 0.00 356.00 360.00" xmlns="http://www.w3.org/2000/svg" xmlns:xlink="http://www.w3.org/1999/xlink">
<g id="graph0" class="graph" transform="scale(1 1) rotate(0) translate(4 356)">
<title>Иерархия классов. Графический вид.</title>
<!-- Node16 -->
<g id="node1" class="node">
<title>Node16</title>
<g id="a_node1"><a xlink:href="interface_i_draggable.html" target="_top" xlink:title=" ">
<polygon fill="none" stroke="#000000" points="14.5,-332.5 14.5,-351.5 77.5,-351.5 77.5,-332.5 14.5,-332.5"/>
<text text-anchor="middle" x="46" y="-339.5" font-family="Helvetica,sans-Serif" font-size="10.00" fill="#000000">IDraggable</text>
</a>
</g>
</g>
<!-- Node3 -->
<g id="node2" class="node">
<title>Node3</title>
<g id="a_node2"><a xlink:href="class_shape.html" target="_top" xlink:title=" ">
<polygon fill="none" stroke="#000000" points="154,-285.5 154,-304.5 198,-304.5 198,-285.5 154,-285.5"/>
<text text-anchor="middle" x="176" y="-292.5" font-family="Helvetica,sans-Serif" font-size="10.00" fill="#000000">Shape</text>
</a>
</g>
</g>
<!-- Node16&#45;&gt;Node3 -->
<g id="edge1" class="edge">
<title>Node16&#45;&gt;Node3</title>
<path fill="none" stroke="#191970" d="M81.7347,-329.0805C104.7189,-320.7708 133.8733,-310.2304 153.6291,-303.0879"/>
<polygon fill="#191970" stroke="#191970" points="80.5217,-325.7973 72.3074,-332.4888 82.9017,-332.3803 80.5217,-325.7973"/>
</g>
<!-- Node4 -->
<g id="node3" class="node">
<title>Node4</title>
<g id="a_node3"><a xlink:href="class_base_shape.html" target="_top" xlink:title=" ">
<polygon fill="none" stroke="#000000" points="270.5,-304.5 270.5,-323.5 337.5,-323.5 337.5,-304.5 270.5,-304.5"/>
<text text-anchor="middle" x="304" y="-311.5" font-family="Helvetica,sans-Serif" font-size="10.00" fill="#000000">BaseShape</text>
</a>
</g>
</g>
<!-- Node3&#45;&gt;Node4 -->
<g id="edge2" class="edge">
<title>Node3&#45;&gt;Node4</title>
<path fill="none" stroke="#191970" d="M207.9644,-299.7447C226.9435,-302.5619 250.9873,-306.1309 270.2688,-308.993"/>
<polygon fill="#191970" stroke="#191970" points="208.4095,-296.2725 198.004,-298.2662 207.3817,-303.1967 208.4095,-296.2725"/>
</g>
<!-- Node5 -->
<g id="node4" class="node">
<title>Node5</title>
<g id="a_node4"><a xlink:href="class_transistor_shape.html" target="_top" xlink:title=" ">
<polygon fill="none" stroke="#000000" points="260,-266.5 260,-285.5 348,-285.5 348,-266.5 260,-266.5"/>
<text text-anchor="middle" x="304" y="-273.5" font-family="Helvetica,sans-Serif" font-size="10.00" fill="#000000">TransistorShape</text>
</a>
</g>
</g>
<!-- Node3&#45;&gt;Node5 -->
<g id="edge3" class="edge">
<title>Node3&#45;&gt;Node5</title>
<path fill="none" stroke="#191970" d="M208.2074,-290.2192C223.8235,-287.9012 242.8246,-285.0807 259.7739,-282.5648"/>
<polygon fill="#191970" stroke="#191970" points="207.3817,-286.8033 198.004,-291.7338 208.4095,-293.7275 207.3817,-286.8033"/>
</g>
<!-- Node15 -->
<g id="node5" class="node">
<title>Node15</title>
<g id="a_node5"><a xlink:href="interface_i_shape.html" target="_top" xlink:title=" ">
<polygon fill="none" stroke="#000000" points="22.5,-294.5 22.5,-313.5 69.5,-313.5 69.5,-294.5 22.5,-294.5"/>
<text text-anchor="middle" x="46" y="-301.5" font-family="Helvetica,sans-Serif" font-size="10.00" fill="#000000">IShape</text>
</a>
</g>
</g>
<!-- Node15&#45;&gt;Node3 -->
<g id="edge4" class="edge">
<title>Node15&#45;&gt;Node3</title>
<path fill="none" stroke="#191970" d="M79.7272,-301.665C103.1158,-300.0458 133.5966,-297.9356 153.9335,-296.5277"/>
<polygon fill="#191970" stroke="#191970" points="79.2764,-298.1878 69.542,-302.3702 79.7599,-305.1711 79.2764,-298.1878"/>
</g>
<!-- Node14 -->
<g id="node6" class="node">
<title>Node14</title>
<g id="a_node6"><a xlink:href="interface_i_shapes_producer.html" target="_top" xlink:title=" ">
<polygon fill="none" stroke="#000000" points="0,-218.5 0,-237.5 92,-237.5 92,-218.5 0,-218.5"/>
<text text-anchor="middle" x="46" y="-225.5" font-family="Helvetica,sans-Serif" font-size="10.00" fill="#000000">IShapesProducer</text>
</a>
</g>
</g>
<!-- Node7 -->
<g id="node7" class="node">
<title>Node7</title>
<g id="a_node7"><a xlink:href="class_shapes_producer.html" target="_top" xlink:title=" ">
<polygon fill="none" stroke="#000000" points="131.5,-228.5 131.5,-247.5 220.5,-247.5 220.5,-228.5 131.5,-228.5"/>
<text text-anchor="middle" x="176" y="-235.5" font-family="Helvetica,sans-Serif" font-size="10.00" fill="#000000">ShapesProducer</text>
</a>
</g>
</g>
<!-- Node14&#45;&gt;Node7 -->
<g id="edge5" class="edge">
<title>Node14&#45;&gt;Node7</title>
<path fill="none" stroke="#191970" d="M102.1922,-232.3225C111.9103,-233.07 121.8959,-233.8381 131.2585,-234.5583"/>
<polygon fill="#191970" stroke="#191970" points="102.4382,-228.8311 92.1992,-231.5538 101.9013,-235.8105 102.4382,-228.8311"/>
</g>
<!-- Node13 -->
<g id="node8" class="node">
<title>Node13</title>
<g id="a_node8"><a xlink:href="interface_i_triggerable.html" target="_top" xlink:title=" ">
<polygon fill="none" stroke="#000000" points="12,-256.5 12,-275.5 80,-275.5 80,-256.5 12,-256.5"/>
<text text-anchor="middle" x="46" y="-263.5" font-family="Helvetica,sans-Serif" font-size="10.00" fill="#000000">ITriggerable</text>
</a>
</g>
</g>
<!-- Node13&#45;&gt;Node3 -->
<g id="edge6" class="edge">
<title>Node13&#45;&gt;Node3</title>
<path fill="none" stroke="#191970" d="M90.0646,-275.8298C111.552,-280.6231 136.4566,-286.1788 153.9059,-290.0713"/>
<polygon fill="#191970" stroke="#191970" points="90.6781,-272.3807 80.156,-273.6194 89.154,-279.2128 90.6781,-272.3807"/>
</g>
<!-- Node0 -->
<g id="node9" class="node">
<title>Node0</title>
<g id="a_node9"><a xlink:href="class_mono_behaviour.html" target="_top" xlink:title=" ">
<polygon fill="none" stroke="#000000" points="4,-133.5 4,-152.5 88,-152.5 88,-133.5 4,-133.5"/>
<text text-anchor="middle" x="46" y="-140.5" font-family="Helvetica,sans-Serif" font-size="10.00" fill="#000000">MonoBehaviour</text>
</a>
</g>
</g>
<!-- Node0&#45;&gt;Node3 -->
<g id="edge9" class="edge">
<title>Node0&#45;&gt;Node3</title>
<path fill="none" stroke="#191970" d="M58.4414,-160.8643C79.357,-190.8099 120.0654,-248.6911 128,-257 138.2766,-267.7614 151.6687,-278.1173 161.6952,-285.2927"/>
<polygon fill="#191970" stroke="#191970" points="61.2359,-158.7527 52.644,-152.5535 55.4947,-162.7576 61.2359,-158.7527"/>
</g>
<!-- Node0&#45;&gt;Node7 -->
<g id="edge11" class="edge">
<title>Node0&#45;&gt;Node7</title>
<path fill="none" stroke="#191970" d="M60.9049,-160.1125C76.3109,-176.9469 101.7488,-202.4622 128,-219 133.7632,-222.6307 140.3349,-225.7802 146.7272,-228.4143"/>
<polygon fill="#191970" stroke="#191970" points="63.4705,-157.731 54.1883,-152.6231 58.2592,-162.4046 63.4705,-157.731"/>
</g>
<!-- Node1 -->
<g id="node10" class="node">
<title>Node1</title>
<g id="a_node10"><a xlink:href="class_main_menu_script.html" target="_top" xlink:title=" ">
<polygon fill="none" stroke="#000000" points="132.5,-190.5 132.5,-209.5 219.5,-209.5 219.5,-190.5 132.5,-190.5"/>
<text text-anchor="middle" x="176" y="-197.5" font-family="Helvetica,sans-Serif" font-size="10.00" fill="#000000">MainMenuScript</text>
</a>
</g>
</g>
<!-- Node0&#45;&gt;Node1 -->
<g id="edge7" class="edge">
<title>Node0&#45;&gt;Node1</title>
<path fill="none" stroke="#191970" d="M74.8921,-156.8789C90.5182,-164.2608 110.209,-173.3639 128,-181 135.4123,-184.1814 143.5454,-187.4742 150.9764,-190.4069"/>
<polygon fill="#191970" stroke="#191970" points="76.2759,-153.6615 65.7413,-152.5335 73.2732,-159.9848 76.2759,-153.6615"/>
</g>
<!-- Node2 -->
<g id="node11" class="node">
<title>Node2</title>
<g id="a_node11"><a xlink:href="class_score_tracker.html" target="_top" xlink:title=" ">
<polygon fill="none" stroke="#000000" points="138.5,-152.5 138.5,-171.5 213.5,-171.5 213.5,-152.5 138.5,-152.5"/>
<text text-anchor="middle" x="176" y="-159.5" font-family="Helvetica,sans-Serif" font-size="10.00" fill="#000000">ScoreTracker</text>
</a>
</g>
</g>
<!-- Node0&#45;&gt;Node2 -->
<g id="edge8" class="edge">
<title>Node0&#45;&gt;Node2</title>
<path fill="none" stroke="#191970" d="M98.2827,-150.6413C111.7023,-152.6026 125.8746,-154.674 138.3891,-156.503"/>
<polygon fill="#191970" stroke="#191970" points="98.6083,-147.1518 88.2073,-149.1688 97.596,-154.0782 98.6083,-147.1518"/>
</g>
<!-- Node6 -->
<g id="node12" class="node">
<title>Node6</title>
<g id="a_node12"><a xlink:href="class_shape_slot.html" target="_top" xlink:title=" ">
<polygon fill="none" stroke="#000000" points="145,-114.5 145,-133.5 207,-133.5 207,-114.5 145,-114.5"/>
<text text-anchor="middle" x="176" y="-121.5" font-family="Helvetica,sans-Serif" font-size="10.00" fill="#000000">ShapeSlot</text>
</a>
</g>
</g>
<!-- Node0&#45;&gt;Node6 -->
<g id="edge10" class="edge">
<title>Node0&#45;&gt;Node6</title>
<path fill="none" stroke="#191970" d="M98.3479,-135.3492C114.0661,-133.0519 130.8111,-130.6045 144.7118,-128.5729"/>
<polygon fill="#191970" stroke="#191970" points="97.596,-131.9218 88.2073,-136.8312 98.6083,-138.8482 97.596,-131.9218"/>
</g>
<!-- Node8 -->
<g id="node13" class="node">
<title>Node8</title>
<g id="a_node13"><a xlink:href="class_shapes_repository.html" target="_top" xlink:title=" ">
<polygon fill="none" stroke="#000000" points="128,-76.5 128,-95.5 224,-95.5 224,-76.5 128,-76.5"/>
<text text-anchor="middle" x="176" y="-83.5" font-family="Helvetica,sans-Serif" font-size="10.00" fill="#000000">ShapesRepository</text>
</a>
</g>
</g>
<!-- Node0&#45;&gt;Node8 -->
<g id="edge12" class="edge">
<title>Node0&#45;&gt;Node8</title>
<path fill="none" stroke="#191970" d="M74.8921,-129.1211C90.5182,-121.7392 110.209,-112.6361 128,-105 135.4123,-101.8186 143.5454,-98.5258 150.9764,-95.5931"/>
<polygon fill="#191970" stroke="#191970" points="73.2732,-126.0152 65.7413,-133.4665 76.2759,-132.3385 73.2732,-126.0152"/>
</g>
<!-- Node9 -->
<g id="node14" class="node">
<title>Node9</title>
<g id="a_node14"><a xlink:href="class_tile_map.html" target="_top" xlink:title=" ">
<polygon fill="none" stroke="#000000" points="150.5,-38.5 150.5,-57.5 201.5,-57.5 201.5,-38.5 150.5,-38.5"/>
<text text-anchor="middle" x="176" y="-45.5" font-family="Helvetica,sans-Serif" font-size="10.00" fill="#000000">TileMap</text>
</a>
</g>
</g>
<!-- Node0&#45;&gt;Node9 -->
<g id="edge13" class="edge">
<title>Node0&#45;&gt;Node9</title>
<path fill="none" stroke="#191970" d="M60.9049,-125.8875C76.3109,-109.0531 101.7488,-83.5378 128,-67 134.8248,-62.7005 142.7835,-59.0757 150.2354,-56.1827"/>
<polygon fill="#191970" stroke="#191970" points="58.2592,-123.5954 54.1883,-133.3769 63.4705,-128.269 58.2592,-123.5954"/>
</g>
<!-- Node10 -->
<g id="node15" class="node">
<title>Node10</title>
<g id="a_node15"><a xlink:href="class_tile_map_cell.html" target="_top" xlink:title=" ">
<polygon fill="none" stroke="#000000" points="142,-.5 142,-19.5 210,-19.5 210,-.5 142,-.5"/>
<text text-anchor="middle" x="176" y="-7.5" font-family="Helvetica,sans-Serif" font-size="10.00" fill="#000000">TileMapCell</text>
</a>
</g>
</g>
<!-- Node0&#45;&gt;Node10 -->
<g id="edge14" class="edge">
<title>Node0&#45;&gt;Node10</title>
<path fill="none" stroke="#191970" d="M55.1522,-124.1945C68.1552,-99.2598 94.1993,-55.3454 128,-29 132.8775,-25.1983 138.6128,-22.0657 144.3891,-19.5176"/>
<polygon fill="#191970" stroke="#191970" points="51.9246,-122.8212 50.534,-133.3244 58.1709,-125.9808 51.9246,-122.8212"/>
</g>
</g>
</svg>
