<?xml version="1.0" encoding="UTF-8" standalone="no"?>
<!DOCTYPE svg PUBLIC "-//W3C//DTD SVG 1.1//EN"
 "http://www.w3.org/Graphics/SVG/1.1/DTD/svg11.dtd">
<!-- Generated by graphviz version 2.40.1 (20161225.0304)
 -->
<!-- Title: Иерархия классов. Графический вид. Pages: 1 -->
<svg width="183pt" height="104pt"
 viewBox="0.00 0.00 183.00 104.00" xmlns="http://www.w3.org/2000/svg" xmlns:xlink="http://www.w3.org/1999/xlink">
<g id="graph0" class="graph" transform="scale(1 1) rotate(0) translate(4 100)">
<title>Иерархия классов. Графический вид.</title>
<polygon fill="#ffffff" stroke="transparent" points="-4,4 -4,-100 179,-100 179,4 -4,4"/>
<!-- Node4 -->
<g id="node1" class="node">
<title>Node4</title>
<g id="a_node1"><a xlink:title=" ">
<polygon fill="#ffffff" stroke="#bfbfbf" points="0,-38.5 0,-57.5 43,-57.5 43,-38.5 0,-38.5"/>
<text text-anchor="middle" x="21.5" y="-45.5" font-family="Helvetica,sans-Serif" font-size="10.00" fill="#000000">object</text>
</a>
</g>
</g>
<!-- Node0 -->
<g id="node2" class="node">
<title>Node0</title>
<g id="a_node2"><a xlink:href="class_lean_audio.html" target="_top" xlink:title=" ">
<polygon fill="#ffffff" stroke="#000000" points="96,-76.5 96,-95.5 158,-95.5 158,-76.5 96,-76.5"/>
<text text-anchor="middle" x="127" y="-83.5" font-family="Helvetica,sans-Serif" font-size="10.00" fill="#000000">LeanAudio</text>
</a>
</g>
</g>
<!-- Node4&#45;&gt;Node0 -->
<g id="edge1" class="edge">
<title>Node4&#45;&gt;Node0</title>
<path fill="none" stroke="#191970" d="M52.6288,-59.2123C67.8642,-64.6999 86.0096,-71.2357 100.563,-76.4777"/>
<polygon fill="#191970" stroke="#191970" points="53.6985,-55.8775 43.1041,-55.7816 51.3263,-62.4633 53.6985,-55.8775"/>
</g>
<!-- Node6 -->
<g id="node3" class="node">
<title>Node6</title>
<g id="a_node3"><a xlink:href="class_lean_audio_options.html" target="_top" xlink:title=" ">
<polygon fill="#ffffff" stroke="#000000" points="79,-38.5 79,-57.5 175,-57.5 175,-38.5 79,-38.5"/>
<text text-anchor="middle" x="127" y="-45.5" font-family="Helvetica,sans-Serif" font-size="10.00" fill="#000000">LeanAudioOptions</text>
</a>
</g>
</g>
<!-- Node4&#45;&gt;Node6 -->
<g id="edge2" class="edge">
<title>Node4&#45;&gt;Node6</title>
<path fill="none" stroke="#191970" d="M53.1979,-48C61.2833,-48 70.1582,-48 78.8641,-48"/>
<polygon fill="#191970" stroke="#191970" points="53.1041,-44.5001 43.1041,-48 53.104,-51.5001 53.1041,-44.5001"/>
</g>
<!-- Node7 -->
<g id="node4" class="node">
<title>Node7</title>
<g id="a_node4"><a xlink:href="class_lean_test.html" target="_top" xlink:title=" ">
<polygon fill="#ffffff" stroke="#000000" points="99,-.5 99,-19.5 155,-19.5 155,-.5 99,-.5"/>
<text text-anchor="middle" x="127" y="-7.5" font-family="Helvetica,sans-Serif" font-size="10.00" fill="#000000">LeanTest</text>
</a>
</g>
</g>
<!-- Node4&#45;&gt;Node7 -->
<g id="edge3" class="edge">
<title>Node4&#45;&gt;Node7</title>
<path fill="none" stroke="#191970" d="M52.6288,-36.7877C67.8642,-31.3001 86.0096,-24.7643 100.563,-19.5223"/>
<polygon fill="#191970" stroke="#191970" points="51.3263,-33.5367 43.1041,-40.2184 53.6985,-40.1225 51.3263,-33.5367"/>
</g>
</g>
</svg>
