<?xml version="1.0" encoding="UTF-8" standalone="no"?>
<!DOCTYPE svg PUBLIC "-//W3C//DTD SVG 1.1//EN"
 "http://www.w3.org/Graphics/SVG/1.1/DTD/svg11.dtd">
<!-- Generated by graphviz version 2.40.1 (20161225.0304)
 -->
<!-- Title: IShapesProducer Pages: 1 -->
<svg width="129pt" height="182pt"
 viewBox="0.00 0.00 129.00 182.00" xmlns="http://www.w3.org/2000/svg" xmlns:xlink="http://www.w3.org/1999/xlink">
<g id="graph0" class="graph" transform="scale(1 1) rotate(0) translate(4 178)">
<title>IShapesProducer</title>
<!-- Node1 -->
<g id="node1" class="node">
<title>Node1</title>
<g id="a_node1"><a xlink:title=" ">
<polygon fill="#bfbfbf" stroke="#000000" points="0,-116.5 0,-173.5 121,-173.5 121,-116.5 0,-116.5"/>
<text text-anchor="middle" x="60.5" y="-161.5" font-family="Helvetica,sans-Serif" font-size="10.00" fill="#000000">IShapesProducer</text>
<polyline fill="none" stroke="#000000" points="0,-154.5 121,-154.5 "/>
<text text-anchor="start" x="8" y="-142.5" font-family="Helvetica,sans-Serif" font-size="10.00" fill="#000000">+ HasNotPlacedShapes</text>
<polyline fill="none" stroke="#000000" points="0,-135.5 121,-135.5 "/>
<text text-anchor="start" x="8" y="-123.5" font-family="Helvetica,sans-Serif" font-size="10.00" fill="#000000">+ SpawnNewShapes()</text>
</a>
</g>
</g>
<!-- Node2 -->
<g id="node2" class="node">
<title>Node2</title>
<g id="a_node2"><a xlink:href="class_shapes_producer.html" target="_top" xlink:title=" ">
<polygon fill="none" stroke="#000000" points="0,-.5 0,-79.5 121,-79.5 121,-.5 0,-.5"/>
<text text-anchor="middle" x="60.5" y="-67.5" font-family="Helvetica,sans-Serif" font-size="10.00" fill="#000000">ShapesProducer</text>
<polyline fill="none" stroke="#000000" points="0,-60.5 121,-60.5 "/>
<text text-anchor="start" x="8" y="-48.5" font-family="Helvetica,sans-Serif" font-size="10.00" fill="#000000">+ Instance</text>
<text text-anchor="start" x="8" y="-37.5" font-family="Helvetica,sans-Serif" font-size="10.00" fill="#000000">+ HasNotPlacedShapes</text>
<polyline fill="none" stroke="#000000" points="0,-30.5 121,-30.5 "/>
<text text-anchor="start" x="8" y="-18.5" font-family="Helvetica,sans-Serif" font-size="10.00" fill="#000000">+ SpawnNewShapes()</text>
<text text-anchor="start" x="8" y="-7.5" font-family="Helvetica,sans-Serif" font-size="10.00" fill="#000000">+ FreeShape()</text>
</a>
</g>
</g>
<!-- Node1&#45;&gt;Node2 -->
<g id="edge1" class="edge">
<title>Node1&#45;&gt;Node2</title>
<path fill="none" stroke="#191970" d="M60.5,-106.1156C60.5,-97.4889 60.5,-88.3353 60.5,-79.6773"/>
<polygon fill="none" stroke="#191970" points="57.0001,-106.3083 60.5,-116.3083 64.0001,-106.3083 57.0001,-106.3083"/>
</g>
</g>
</svg>
