<?xml version="1.0" encoding="UTF-8" standalone="no"?>
<!DOCTYPE svg PUBLIC "-//W3C//DTD SVG 1.1//EN"
 "http://www.w3.org/Graphics/SVG/1.1/DTD/svg11.dtd">
<!-- Generated by graphviz version 2.40.1 (20161225.0304)
 -->
<!-- Title: IShape Pages: 1 -->
<svg width="226pt" height="430pt"
 viewBox="0.00 0.00 226.00 430.00" xmlns="http://www.w3.org/2000/svg" xmlns:xlink="http://www.w3.org/1999/xlink">
<g id="graph0" class="graph" transform="scale(1 1) rotate(0) translate(4 426)">
<title>IShape</title>
<!-- Node1 -->
<g id="node1" class="node">
<title>Node1</title>
<g id="a_node1"><a xlink:title=" ">
<polygon fill="#bfbfbf" stroke="#000000" points="41.5,-342.5 41.5,-421.5 143.5,-421.5 143.5,-342.5 41.5,-342.5"/>
<text text-anchor="middle" x="92.5" y="-409.5" font-family="Helvetica,sans-Serif" font-size="10.00" fill="#000000">IShape</text>
<polyline fill="none" stroke="#000000" points="41.5,-402.5 143.5,-402.5 "/>
<text text-anchor="start" x="49.5" y="-390.5" font-family="Helvetica,sans-Serif" font-size="10.00" fill="#000000">+ Position</text>
<text text-anchor="start" x="49.5" y="-379.5" font-family="Helvetica,sans-Serif" font-size="10.00" fill="#000000">+ ClosestNeighbors</text>
<text text-anchor="start" x="49.5" y="-368.5" font-family="Helvetica,sans-Serif" font-size="10.00" fill="#000000">+ Neighbors</text>
<polyline fill="none" stroke="#000000" points="41.5,-361.5 143.5,-361.5 "/>
<text text-anchor="middle" x="92.5" y="-349.5" font-family="Helvetica,sans-Serif" font-size="10.00" fill="#000000"> </text>
</a>
</g>
</g>
<!-- Node2 -->
<g id="node2" class="node">
<title>Node2</title>
<g id="a_node2"><a xlink:href="class_shape.html" target="_top" xlink:title=" ">
<polygon fill="none" stroke="#000000" points="36,-182.5 36,-305.5 149,-305.5 149,-182.5 36,-182.5"/>
<text text-anchor="middle" x="92.5" y="-293.5" font-family="Helvetica,sans-Serif" font-size="10.00" fill="#000000">Shape</text>
<polyline fill="none" stroke="#000000" points="36,-286.5 149,-286.5 "/>
<text text-anchor="start" x="44" y="-274.5" font-family="Helvetica,sans-Serif" font-size="10.00" fill="#000000">+ ClosestNeighbors</text>
<text text-anchor="start" x="44" y="-263.5" font-family="Helvetica,sans-Serif" font-size="10.00" fill="#000000">+ Neighbors</text>
<text text-anchor="start" x="44" y="-252.5" font-family="Helvetica,sans-Serif" font-size="10.00" fill="#000000">+ Position</text>
<text text-anchor="start" x="44" y="-241.5" font-family="Helvetica,sans-Serif" font-size="10.00" fill="#000000">+ IsDragging</text>
<text text-anchor="start" x="44" y="-230.5" font-family="Helvetica,sans-Serif" font-size="10.00" fill="#000000">+ CanBeDragged</text>
<polyline fill="none" stroke="#000000" points="36,-223.5 149,-223.5 "/>
<text text-anchor="start" x="44" y="-211.5" font-family="Helvetica,sans-Serif" font-size="10.00" fill="#000000">+ Trigger()</text>
<text text-anchor="start" x="44" y="-200.5" font-family="Helvetica,sans-Serif" font-size="10.00" fill="#000000">+ MakeTriggerAction()</text>
<text text-anchor="start" x="44" y="-189.5" font-family="Helvetica,sans-Serif" font-size="10.00" fill="#000000">+ Destroy()</text>
</a>
</g>
</g>
<!-- Node1&#45;&gt;Node2 -->
<g id="edge1" class="edge">
<title>Node1&#45;&gt;Node2</title>
<path fill="none" stroke="#191970" d="M92.5,-332.214C92.5,-323.6094 92.5,-314.5717 92.5,-305.6969"/>
<polygon fill="none" stroke="#191970" points="89.0001,-332.4547 92.5,-342.4547 96.0001,-332.4548 89.0001,-332.4547"/>
</g>
<!-- Node3 -->
<g id="node3" class="node">
<title>Node3</title>
<g id="a_node3"><a xlink:href="class_base_shape.html" target="_top" xlink:title=" ">
<polygon fill="none" stroke="#000000" points="0,-44.5 0,-101.5 67,-101.5 67,-44.5 0,-44.5"/>
<text text-anchor="middle" x="33.5" y="-89.5" font-family="Helvetica,sans-Serif" font-size="10.00" fill="#000000">BaseShape</text>
<polyline fill="none" stroke="#000000" points="0,-82.5 67,-82.5 "/>
<text text-anchor="start" x="8" y="-70.5" font-family="Helvetica,sans-Serif" font-size="10.00" fill="#000000">+ Type</text>
<polyline fill="none" stroke="#000000" points="0,-63.5 67,-63.5 "/>
<text text-anchor="start" x="8" y="-51.5" font-family="Helvetica,sans-Serif" font-size="10.00" fill="#000000">+ Destroy()</text>
</a>
</g>
</g>
<!-- Node2&#45;&gt;Node3 -->
<g id="edge2" class="edge">
<title>Node2&#45;&gt;Node3</title>
<path fill="none" stroke="#191970" d="M67.9279,-172.7826C59.3008,-147.7784 50.0949,-121.0971 43.3753,-101.6216"/>
<polygon fill="none" stroke="#191970" points="64.6294,-173.9535 71.1996,-182.2651 71.2466,-171.6703 64.6294,-173.9535"/>
</g>
<!-- Node4 -->
<g id="node4" class="node">
<title>Node4</title>
<g id="a_node4"><a xlink:href="class_transistor_shape.html" target="_top" xlink:title=" ">
<polygon fill="none" stroke="#000000" points="85,-.5 85,-145.5 218,-145.5 218,-.5 85,-.5"/>
<text text-anchor="middle" x="151.5" y="-133.5" font-family="Helvetica,sans-Serif" font-size="10.00" fill="#000000">TransistorShape</text>
<polyline fill="none" stroke="#000000" points="85,-126.5 218,-126.5 "/>
<text text-anchor="start" x="93" y="-114.5" font-family="Helvetica,sans-Serif" font-size="10.00" fill="#000000">+ InputHolder</text>
<text text-anchor="start" x="93" y="-103.5" font-family="Helvetica,sans-Serif" font-size="10.00" fill="#000000">+ Absorbed</text>
<text text-anchor="start" x="93" y="-92.5" font-family="Helvetica,sans-Serif" font-size="10.00" fill="#000000">+ InputType</text>
<text text-anchor="start" x="93" y="-81.5" font-family="Helvetica,sans-Serif" font-size="10.00" fill="#000000">+ OutputType</text>
<polyline fill="none" stroke="#000000" points="85,-74.5 218,-74.5 "/>
<text text-anchor="start" x="93" y="-62.5" font-family="Helvetica,sans-Serif" font-size="10.00" fill="#000000">+ SetupIOTypes()</text>
<text text-anchor="start" x="93" y="-51.5" font-family="Helvetica,sans-Serif" font-size="10.00" fill="#000000">+ SetAbsorbed()</text>
<text text-anchor="start" x="93" y="-40.5" font-family="Helvetica,sans-Serif" font-size="10.00" fill="#000000">+ CanAbsorp()</text>
<text text-anchor="start" x="93" y="-29.5" font-family="Helvetica,sans-Serif" font-size="10.00" fill="#000000">+ CanAbsorpToExplosion()</text>
<text text-anchor="start" x="93" y="-18.5" font-family="Helvetica,sans-Serif" font-size="10.00" fill="#000000">+ Trigger()</text>
<text text-anchor="start" x="93" y="-7.5" font-family="Helvetica,sans-Serif" font-size="10.00" fill="#000000">+ MakeTriggerAction()</text>
</a>
</g>
</g>
<!-- Node2&#45;&gt;Node4 -->
<g id="edge3" class="edge">
<title>Node2&#45;&gt;Node4</title>
<path fill="none" stroke="#191970" d="M117.1038,-172.6908C120.1806,-163.7733 123.3305,-154.6439 126.4145,-145.7054"/>
<polygon fill="none" stroke="#191970" points="113.7534,-171.6703 113.8004,-182.2651 120.3706,-173.9535 113.7534,-171.6703"/>
</g>
</g>
</svg>
