<?xml version="1.0" encoding="UTF-8" standalone="no"?>
<!DOCTYPE svg PUBLIC "-//W3C//DTD SVG 1.1//EN"
 "http://www.w3.org/Graphics/SVG/1.1/DTD/svg11.dtd">
<!-- Generated by graphviz version 2.40.1 (20161225.0304)
 -->
<!-- Title: ITriggerable Pages: 1 -->
<svg width="226pt" height="540pt"
 viewBox="0.00 0.00 226.00 540.00" xmlns="http://www.w3.org/2000/svg" xmlns:xlink="http://www.w3.org/1999/xlink">
<g id="graph0" class="graph" transform="scale(1 1) rotate(0) translate(4 536)">
<title>ITriggerable</title>
<polygon fill="#ffffff" stroke="transparent" points="-4,4 -4,-536 222,-536 222,4 -4,4"/>
<!-- Node1 -->
<g id="node1" class="node">
<title>Node1</title>
<g id="a_node1"><a xlink:title=" ">
<polygon fill="#bfbfbf" stroke="#000000" points="36,-463.5 36,-531.5 149,-531.5 149,-463.5 36,-463.5"/>
<text text-anchor="middle" x="92.5" y="-519.5" font-family="Helvetica,sans-Serif" font-size="10.00" fill="#000000">ITriggerable</text>
<polyline fill="none" stroke="#000000" points="36,-512.5 149,-512.5 "/>
<text text-anchor="middle" x="92.5" y="-500.5" font-family="Helvetica,sans-Serif" font-size="10.00" fill="#000000"> </text>
<polyline fill="none" stroke="#000000" points="36,-493.5 149,-493.5 "/>
<text text-anchor="start" x="44" y="-481.5" font-family="Helvetica,sans-Serif" font-size="10.00" fill="#000000">+ Trigger()</text>
<text text-anchor="start" x="44" y="-470.5" font-family="Helvetica,sans-Serif" font-size="10.00" fill="#000000">+ MakeTriggerAction()</text>
</a>
</g>
</g>
<!-- Node2 -->
<g id="node2" class="node">
<title>Node2</title>
<g id="a_node2"><a xlink:href="class_shape.html" target="_top" xlink:title=" ">
<polygon fill="#ffffff" stroke="#000000" points="22,-182.5 22,-426.5 163,-426.5 163,-182.5 22,-182.5"/>
<text text-anchor="middle" x="92.5" y="-414.5" font-family="Helvetica,sans-Serif" font-size="10.00" fill="#000000">Shape</text>
<polyline fill="none" stroke="#000000" points="22,-407.5 163,-407.5 "/>
<text text-anchor="start" x="30" y="-395.5" font-family="Helvetica,sans-Serif" font-size="10.00" fill="#000000">+ ClosestNeighbors</text>
<text text-anchor="start" x="30" y="-384.5" font-family="Helvetica,sans-Serif" font-size="10.00" fill="#000000">+ Neighbors</text>
<text text-anchor="start" x="30" y="-373.5" font-family="Helvetica,sans-Serif" font-size="10.00" fill="#000000">+ Position</text>
<text text-anchor="start" x="30" y="-362.5" font-family="Helvetica,sans-Serif" font-size="10.00" fill="#000000">+ IsDragging</text>
<text text-anchor="start" x="30" y="-351.5" font-family="Helvetica,sans-Serif" font-size="10.00" fill="#000000">+ CanBeDragged</text>
<text text-anchor="start" x="30" y="-340.5" font-family="Helvetica,sans-Serif" font-size="10.00" fill="#000000">&#45; m_MouseEntered</text>
<text text-anchor="start" x="30" y="-329.5" font-family="Helvetica,sans-Serif" font-size="10.00" fill="#000000">&#45; m_DraggingStartPosition</text>
<text text-anchor="start" x="30" y="-318.5" font-family="Helvetica,sans-Serif" font-size="10.00" fill="#000000">&#45; m_DraggingCurrentPosition</text>
<text text-anchor="start" x="30" y="-307.5" font-family="Helvetica,sans-Serif" font-size="10.00" fill="#000000">&#45; m_DraggablePlane</text>
<polyline fill="none" stroke="#000000" points="22,-300.5 163,-300.5 "/>
<text text-anchor="start" x="30" y="-288.5" font-family="Helvetica,sans-Serif" font-size="10.00" fill="#000000">+ Trigger()</text>
<text text-anchor="start" x="30" y="-277.5" font-family="Helvetica,sans-Serif" font-size="10.00" fill="#000000">+ MakeTriggerAction()</text>
<text text-anchor="start" x="30" y="-266.5" font-family="Helvetica,sans-Serif" font-size="10.00" fill="#000000">+ Destroy()</text>
<text text-anchor="start" x="30" y="-255.5" font-family="Helvetica,sans-Serif" font-size="10.00" fill="#000000">&#45; Awake()</text>
<text text-anchor="start" x="30" y="-244.5" font-family="Helvetica,sans-Serif" font-size="10.00" fill="#000000">&#45; Update()</text>
<text text-anchor="start" x="30" y="-233.5" font-family="Helvetica,sans-Serif" font-size="10.00" fill="#000000">&#45; InitDraggable()</text>
<text text-anchor="start" x="30" y="-222.5" font-family="Helvetica,sans-Serif" font-size="10.00" fill="#000000">&#45; OnMouseEnter()</text>
<text text-anchor="start" x="30" y="-211.5" font-family="Helvetica,sans-Serif" font-size="10.00" fill="#000000">&#45; OnMouseExit()</text>
<text text-anchor="start" x="30" y="-200.5" font-family="Helvetica,sans-Serif" font-size="10.00" fill="#000000">&#45; UpdateDraggable()</text>
<text text-anchor="start" x="30" y="-189.5" font-family="Helvetica,sans-Serif" font-size="10.00" fill="#000000">&#45; UpdateDraggablePosition()</text>
</a>
</g>
</g>
<!-- Node1&#45;&gt;Node2 -->
<g id="edge1" class="edge">
<title>Node1&#45;&gt;Node2</title>
<path fill="none" stroke="#191970" d="M92.5,-453.3459C92.5,-445.0406 92.5,-435.9934 92.5,-426.5973"/>
<polygon fill="none" stroke="#191970" points="89.0001,-453.4397 92.5,-463.4397 96.0001,-453.4398 89.0001,-453.4397"/>
</g>
<!-- Node3 -->
<g id="node3" class="node">
<title>Node3</title>
<g id="a_node3"><a xlink:href="class_base_shape.html" target="_top" xlink:title=" ">
<polygon fill="#ffffff" stroke="#000000" points="0,-39 0,-107 67,-107 67,-39 0,-39"/>
<text text-anchor="middle" x="33.5" y="-95" font-family="Helvetica,sans-Serif" font-size="10.00" fill="#000000">BaseShape</text>
<polyline fill="none" stroke="#000000" points="0,-88 67,-88 "/>
<text text-anchor="start" x="8" y="-76" font-family="Helvetica,sans-Serif" font-size="10.00" fill="#000000">+ Type</text>
<text text-anchor="start" x="8" y="-65" font-family="Helvetica,sans-Serif" font-size="10.00" fill="#000000">&#45; m_Type</text>
<polyline fill="none" stroke="#000000" points="0,-58 67,-58 "/>
<text text-anchor="start" x="8" y="-46" font-family="Helvetica,sans-Serif" font-size="10.00" fill="#000000">+ Destroy()</text>
</a>
</g>
</g>
<!-- Node2&#45;&gt;Node3 -->
<g id="edge2" class="edge">
<title>Node2&#45;&gt;Node3</title>
<path fill="none" stroke="#191970" d="M58.8109,-172.3132C52.6741,-148.234 46.7842,-125.1236 42.2327,-107.2647"/>
<polygon fill="none" stroke="#191970" points="55.4974,-173.484 61.3587,-182.3098 62.2805,-171.7552 55.4974,-173.484"/>
</g>
<!-- Node4 -->
<g id="node4" class="node">
<title>Node4</title>
<g id="a_node4"><a xlink:href="class_transistor_shape.html" target="_top" xlink:title=" ">
<polygon fill="#ffffff" stroke="#000000" points="85,-.5 85,-145.5 218,-145.5 218,-.5 85,-.5"/>
<text text-anchor="middle" x="151.5" y="-133.5" font-family="Helvetica,sans-Serif" font-size="10.00" fill="#000000">TransistorShape</text>
<polyline fill="none" stroke="#000000" points="85,-126.5 218,-126.5 "/>
<text text-anchor="start" x="93" y="-114.5" font-family="Helvetica,sans-Serif" font-size="10.00" fill="#000000">+ InputHolder</text>
<text text-anchor="start" x="93" y="-103.5" font-family="Helvetica,sans-Serif" font-size="10.00" fill="#000000">+ Absorbed</text>
<text text-anchor="start" x="93" y="-92.5" font-family="Helvetica,sans-Serif" font-size="10.00" fill="#000000">+ InputType</text>
<text text-anchor="start" x="93" y="-81.5" font-family="Helvetica,sans-Serif" font-size="10.00" fill="#000000">+ OutputType</text>
<polyline fill="none" stroke="#000000" points="85,-74.5 218,-74.5 "/>
<text text-anchor="start" x="93" y="-62.5" font-family="Helvetica,sans-Serif" font-size="10.00" fill="#000000">+ SetupIOTypes()</text>
<text text-anchor="start" x="93" y="-51.5" font-family="Helvetica,sans-Serif" font-size="10.00" fill="#000000">+ SetAbsorbed()</text>
<text text-anchor="start" x="93" y="-40.5" font-family="Helvetica,sans-Serif" font-size="10.00" fill="#000000">+ CanAbsorp()</text>
<text text-anchor="start" x="93" y="-29.5" font-family="Helvetica,sans-Serif" font-size="10.00" fill="#000000">+ CanAbsorpToExplosion()</text>
<text text-anchor="start" x="93" y="-18.5" font-family="Helvetica,sans-Serif" font-size="10.00" fill="#000000">+ Trigger()</text>
<text text-anchor="start" x="93" y="-7.5" font-family="Helvetica,sans-Serif" font-size="10.00" fill="#000000">+ MakeTriggerAction()</text>
</a>
</g>
</g>
<!-- Node2&#45;&gt;Node4 -->
<g id="edge3" class="edge">
<title>Node2&#45;&gt;Node4</title>
<path fill="none" stroke="#191970" d="M126.1717,-172.3814C128.4934,-163.2715 130.78,-154.2997 132.9723,-145.6978"/>
<polygon fill="none" stroke="#191970" points="122.7195,-171.7552 123.6413,-182.3098 129.5026,-173.484 122.7195,-171.7552"/>
</g>
</g>
</svg>
