<?xml version="1.0" encoding="UTF-8" standalone="no"?>
<!DOCTYPE svg PUBLIC "-//W3C//DTD SVG 1.1//EN"
 "http://www.w3.org/Graphics/SVG/1.1/DTD/svg11.dtd">
<!-- Generated by graphviz version 2.40.1 (20161225.0304)
 -->
<!-- Title: Absorption Pages: 1 -->
<svg width="549pt" height="375pt"
 viewBox="0.00 0.00 549.00 375.00" xmlns="http://www.w3.org/2000/svg" xmlns:xlink="http://www.w3.org/1999/xlink">
<g id="graph0" class="graph" transform="scale(1 1) rotate(0) translate(4 371)">
<title>Absorption</title>
<!-- Node1 -->
<g id="node1" class="node">
<title>Node1</title>
<g id="a_node1"><a xlink:title=" ">
<polygon fill="#bfbfbf" stroke="#000000" points="222,-.5 222,-68.5 314,-68.5 314,-.5 222,-.5"/>
<text text-anchor="middle" x="268" y="-56.5" font-family="Helvetica,sans-Serif" font-size="10.00" fill="#000000">Absorption</text>
<polyline fill="none" stroke="#000000" points="222,-49.5 314,-49.5 "/>
<text text-anchor="middle" x="268" y="-37.5" font-family="Helvetica,sans-Serif" font-size="10.00" fill="#000000"> </text>
<polyline fill="none" stroke="#000000" points="222,-30.5 314,-30.5 "/>
<text text-anchor="start" x="230" y="-18.5" font-family="Helvetica,sans-Serif" font-size="10.00" fill="#000000">+ Equals()</text>
<text text-anchor="start" x="230" y="-7.5" font-family="Helvetica,sans-Serif" font-size="10.00" fill="#000000">+ GetHashCode()</text>
</a>
</g>
</g>
<!-- Node2 -->
<g id="node2" class="node">
<title>Node2</title>
<g id="a_node2"><a xlink:href="class_shape.html" target="_top" xlink:title=" ">
<polygon fill="none" stroke="#000000" points="211.5,-127.5 211.5,-228.5 324.5,-228.5 324.5,-127.5 211.5,-127.5"/>
<text text-anchor="middle" x="268" y="-216.5" font-family="Helvetica,sans-Serif" font-size="10.00" fill="#000000">Shape</text>
<polyline fill="none" stroke="#000000" points="211.5,-209.5 324.5,-209.5 "/>
<text text-anchor="start" x="219.5" y="-197.5" font-family="Helvetica,sans-Serif" font-size="10.00" fill="#000000">+ Position</text>
<text text-anchor="start" x="219.5" y="-186.5" font-family="Helvetica,sans-Serif" font-size="10.00" fill="#000000">+ IsDragging</text>
<text text-anchor="start" x="219.5" y="-175.5" font-family="Helvetica,sans-Serif" font-size="10.00" fill="#000000">+ CanBeDragged</text>
<polyline fill="none" stroke="#000000" points="211.5,-168.5 324.5,-168.5 "/>
<text text-anchor="start" x="219.5" y="-156.5" font-family="Helvetica,sans-Serif" font-size="10.00" fill="#000000">+ Trigger()</text>
<text text-anchor="start" x="219.5" y="-145.5" font-family="Helvetica,sans-Serif" font-size="10.00" fill="#000000">+ MakeTriggerAction()</text>
<text text-anchor="start" x="219.5" y="-134.5" font-family="Helvetica,sans-Serif" font-size="10.00" fill="#000000">+ Destroy()</text>
</a>
</g>
</g>
<!-- Node2&#45;&gt;Node1 -->
<g id="edge1" class="edge">
<title>Node2&#45;&gt;Node1</title>
<path fill="none" stroke="#404040" d="M268,-127.4073C268,-112.2774 268,-95.7692 268,-80.9212"/>
<polygon fill="none" stroke="#404040" points="268.0001,-80.906 264,-74.9061 268,-68.906 272,-74.906 268.0001,-80.906"/>
<text text-anchor="middle" x="296" y="-101" font-family="Helvetica,sans-Serif" font-size="10.00" fill="#000000"> +Consumee</text>
<text text-anchor="middle" x="296" y="-90" font-family="Helvetica,sans-Serif" font-size="10.00" fill="#000000">+Consumer</text>
</g>
<!-- Node3 -->
<g id="node3" class="node">
<title>Node3</title>
<g id="a_node3"><a xlink:href="class_mono_behaviour.html" target="_top" xlink:title=" ">
<polygon fill="none" stroke="#000000" points="0,-298.5 0,-355.5 84,-355.5 84,-298.5 0,-298.5"/>
<text text-anchor="middle" x="42" y="-343.5" font-family="Helvetica,sans-Serif" font-size="10.00" fill="#000000">MonoBehaviour</text>
<polyline fill="none" stroke="#000000" points="0,-336.5 84,-336.5 "/>
<text text-anchor="middle" x="42" y="-324.5" font-family="Helvetica,sans-Serif" font-size="10.00" fill="#000000"> </text>
<polyline fill="none" stroke="#000000" points="0,-317.5 84,-317.5 "/>
<text text-anchor="middle" x="42" y="-305.5" font-family="Helvetica,sans-Serif" font-size="10.00" fill="#000000"> </text>
</a>
</g>
</g>
<!-- Node3&#45;&gt;Node2 -->
<g id="edge2" class="edge">
<title>Node3&#45;&gt;Node2</title>
<path fill="none" stroke="#191970" d="M85.7877,-292.1737C88.2092,-290.3994 90.6239,-288.6645 93,-287 131.5503,-259.9945 176.6715,-231.9723 211.4411,-211.1036"/>
<polygon fill="none" stroke="#191970" points="83.489,-289.5222 77.5748,-298.3127 87.68,-295.1289 83.489,-289.5222"/>
</g>
<!-- Node4 -->
<g id="node4" class="node">
<title>Node4</title>
<g id="a_node4"><a xlink:href="interface_i_shape.html" target="_top" xlink:title=" ">
<polygon fill="none" stroke="#000000" points="102,-287.5 102,-366.5 204,-366.5 204,-287.5 102,-287.5"/>
<text text-anchor="middle" x="153" y="-354.5" font-family="Helvetica,sans-Serif" font-size="10.00" fill="#000000">IShape</text>
<polyline fill="none" stroke="#000000" points="102,-347.5 204,-347.5 "/>
<text text-anchor="start" x="110" y="-335.5" font-family="Helvetica,sans-Serif" font-size="10.00" fill="#000000">+ Position</text>
<text text-anchor="start" x="110" y="-324.5" font-family="Helvetica,sans-Serif" font-size="10.00" fill="#000000">+ ClosestNeighbors</text>
<text text-anchor="start" x="110" y="-313.5" font-family="Helvetica,sans-Serif" font-size="10.00" fill="#000000">+ Neighbors</text>
<polyline fill="none" stroke="#000000" points="102,-306.5 204,-306.5 "/>
<text text-anchor="middle" x="153" y="-294.5" font-family="Helvetica,sans-Serif" font-size="10.00" fill="#000000"> </text>
</a>
</g>
</g>
<!-- Node4&#45;&gt;Node2 -->
<g id="edge3" class="edge">
<title>Node4&#45;&gt;Node2</title>
<path fill="none" stroke="#191970" d="M189.8742,-279.2239C202.3204,-263.0979 216.2529,-245.0463 228.8675,-228.7021"/>
<polygon fill="none" stroke="#191970" points="186.8552,-277.4071 183.516,-287.4619 192.3967,-281.684 186.8552,-277.4071"/>
</g>
<!-- Node5 -->
<g id="node5" class="node">
<title>Node5</title>
<g id="a_node5"><a xlink:href="interface_i_draggable.html" target="_top" xlink:title=" ">
<polygon fill="none" stroke="#000000" points="222.5,-293 222.5,-361 313.5,-361 313.5,-293 222.5,-293"/>
<text text-anchor="middle" x="268" y="-349" font-family="Helvetica,sans-Serif" font-size="10.00" fill="#000000">IDraggable</text>
<polyline fill="none" stroke="#000000" points="222.5,-342 313.5,-342 "/>
<text text-anchor="start" x="230.5" y="-330" font-family="Helvetica,sans-Serif" font-size="10.00" fill="#000000">+ CanBeDragged</text>
<text text-anchor="start" x="230.5" y="-319" font-family="Helvetica,sans-Serif" font-size="10.00" fill="#000000">+ IsDragging</text>
<polyline fill="none" stroke="#000000" points="222.5,-312 313.5,-312 "/>
<text text-anchor="middle" x="268" y="-300" font-family="Helvetica,sans-Serif" font-size="10.00" fill="#000000"> </text>
</a>
</g>
</g>
<!-- Node5&#45;&gt;Node2 -->
<g id="edge4" class="edge">
<title>Node5&#45;&gt;Node2</title>
<path fill="none" stroke="#191970" d="M268,-282.6226C268,-265.6671 268,-246.2084 268,-228.707"/>
<polygon fill="none" stroke="#191970" points="264.5001,-282.8164 268,-292.8164 271.5001,-282.8164 264.5001,-282.8164"/>
</g>
<!-- Node6 -->
<g id="node6" class="node">
<title>Node6</title>
<g id="a_node6"><a xlink:href="interface_i_triggerable.html" target="_top" xlink:title=" ">
<polygon fill="none" stroke="#000000" points="331.5,-293 331.5,-361 444.5,-361 444.5,-293 331.5,-293"/>
<text text-anchor="middle" x="388" y="-349" font-family="Helvetica,sans-Serif" font-size="10.00" fill="#000000">ITriggerable</text>
<polyline fill="none" stroke="#000000" points="331.5,-342 444.5,-342 "/>
<text text-anchor="middle" x="388" y="-330" font-family="Helvetica,sans-Serif" font-size="10.00" fill="#000000"> </text>
<polyline fill="none" stroke="#000000" points="331.5,-323 444.5,-323 "/>
<text text-anchor="start" x="339.5" y="-311" font-family="Helvetica,sans-Serif" font-size="10.00" fill="#000000">+ Trigger()</text>
<text text-anchor="start" x="339.5" y="-300" font-family="Helvetica,sans-Serif" font-size="10.00" fill="#000000">+ MakeTriggerAction()</text>
</a>
</g>
</g>
<!-- Node6&#45;&gt;Node2 -->
<g id="edge5" class="edge">
<title>Node6&#45;&gt;Node2</title>
<path fill="none" stroke="#191970" d="M354.1783,-285.0047C340.0863,-267.5071 323.5978,-247.0339 308.8378,-228.707"/>
<polygon fill="none" stroke="#191970" points="351.4712,-287.2235 360.4696,-292.8164 356.923,-282.8328 351.4712,-287.2235"/>
</g>
<!-- Node7 -->
<g id="node7" class="node">
<title>Node7</title>
<g id="a_node7"><a xlink:title=" ">
<polygon fill="none" stroke="#bfbfbf" points="463,-298.5 463,-355.5 541,-355.5 541,-298.5 463,-298.5"/>
<text text-anchor="middle" x="502" y="-343.5" font-family="Helvetica,sans-Serif" font-size="10.00" fill="#000000">List&lt; Shape &gt;</text>
<polyline fill="none" stroke="#bfbfbf" points="463,-336.5 541,-336.5 "/>
<text text-anchor="middle" x="502" y="-324.5" font-family="Helvetica,sans-Serif" font-size="10.00" fill="#000000"> </text>
<polyline fill="none" stroke="#bfbfbf" points="463,-317.5 541,-317.5 "/>
<text text-anchor="middle" x="502" y="-305.5" font-family="Helvetica,sans-Serif" font-size="10.00" fill="#000000"> </text>
</a>
</g>
</g>
<!-- Node7&#45;&gt;Node2 -->
<g id="edge6" class="edge">
<title>Node7&#45;&gt;Node2</title>
<path fill="none" stroke="#404040" d="M468.9873,-298.2987C464.0635,-294.3702 458.9707,-290.4919 454,-287 416.2534,-260.4827 371.7398,-234.2335 335.7243,-214.1408"/>
<polygon fill="none" stroke="#404040" points="335.3337,-213.9245 328.1469,-214.5159 324.8368,-208.1093 332.0236,-207.518 335.3337,-213.9245"/>
<text text-anchor="middle" x="467" y="-261" font-family="Helvetica,sans-Serif" font-size="10.00" fill="#000000"> +ClosestNeighbors</text>
<text text-anchor="middle" x="467" y="-250" font-family="Helvetica,sans-Serif" font-size="10.00" fill="#000000">+Neighbors</text>
</g>
</g>
</svg>
